<?xml version="1.0" encoding="utf-8" standalone="no"?>
<!DOCTYPE svg PUBLIC "-//W3C//DTD SVG 1.1//EN"
  "http://www.w3.org/Graphics/SVG/1.1/DTD/svg11.dtd">
<svg xmlns:xlink="http://www.w3.org/1999/xlink" width="460.8pt" height="345.6pt" viewBox="0 0 460.8 345.6" xmlns="http://www.w3.org/2000/svg" version="1.1">
 <metadata>
  <rdf:RDF xmlns:dc="http://purl.org/dc/elements/1.1/" xmlns:cc="http://creativecommons.org/ns#" xmlns:rdf="http://www.w3.org/1999/02/22-rdf-syntax-ns#">
   <cc:Work>
    <dc:type rdf:resource="http://purl.org/dc/dcmitype/StillImage"/>
    <dc:date>2025-12-23T16:40:29.314980</dc:date>
    <dc:format>image/svg+xml</dc:format>
    <dc:creator>
     <cc:Agent>
      <dc:title>Matplotlib v3.8.4, https://matplotlib.org/</dc:title>
     </cc:Agent>
    </dc:creator>
   </cc:Work>
  </rdf:RDF>
 </metadata>
 <defs>
  <style type="text/css">*{stroke-linejoin: round; stroke-linecap: butt}</style>
 </defs>
 <g id="figure_1">
  <g id="patch_1">
   <path d="M 0 345.6 
L 460.8 345.6 
L 460.8 0 
L 0 0 
z
" style="fill: #ffffff"/>
  </g>
  <g id="axes_1">
   <g id="patch_2">
    <path d="M 50.87 303.64 
L 448.09786 303.64 
L 448.09786 26.88 
L 50.87 26.88 
z
" style="fill: #ffffff"/>
   </g>
   <g id="patch_3">
    <path d="M 68.925812 303.64 
L 72.536974 303.64 
L 72.536974 281.46964 
L 68.925812 281.46964 
z
" clip-path="url(#p4b38eea1b5)" style="fill: #1f77b4"/>
   </g>
   <g id="patch_4">
    <path d="M 72.536974 303.64 
L 76.148137 303.64 
L 76.148137 265.457713 
L 72.536974 265.457713 
z
" clip-path="url(#p4b38eea1b5)" style="fill: #1f77b4"/>
   </g>
   <g id="patch_5">
    <path d="M 76.148137 303.64 
L 79.759299 303.64 
L 79.759299 267.921086 
L 76.148137 267.921086 
z
" clip-path="url(#p4b38eea1b5)" style="fill: #1f77b4"/>
   </g>
   <g id="patch_6">
    <path d="M 79.759299 303.64 
L 83.370461 303.64 
L 83.370461 270.384459 
L 79.759299 270.384459 
z
" clip-path="url(#p4b38eea1b5)" style="fill: #1f77b4"/>
   </g>
   <g id="patch_7">
    <path d="M 83.370461 303.64 
L 86.981624 303.64 
L 86.981624 282.701326 
L 83.370461 282.701326 
z
" clip-path="url(#p4b38eea1b5)" style="fill: #1f77b4"/>
   </g>
   <g id="patch_8">
    <path d="M 86.981624 303.64 
L 90.592786 303.64 
L 90.592786 291.323133 
L 86.981624 291.323133 
z
" clip-path="url(#p4b38eea1b5)" style="fill: #1f77b4"/>
   </g>
   <g id="patch_9">
    <path d="M 90.592786 303.64 
L 94.203948 303.64 
L 94.203948 291.323133 
L 90.592786 291.323133 
z
" clip-path="url(#p4b38eea1b5)" style="fill: #1f77b4"/>
   </g>
   <g id="patch_10">
    <path d="M 94.203948 303.64 
L 97.815111 303.64 
L 97.815111 295.018193 
L 94.203948 295.018193 
z
" clip-path="url(#p4b38eea1b5)" style="fill: #1f77b4"/>
   </g>
   <g id="patch_11">
    <path d="M 97.815111 303.64 
L 101.426273 303.64 
L 101.426273 292.55482 
L 97.815111 292.55482 
z
" clip-path="url(#p4b38eea1b5)" style="fill: #1f77b4"/>
   </g>
   <g id="patch_12">
    <path d="M 101.426273 303.64 
L 105.037435 303.64 
L 105.037435 298.713253 
L 101.426273 298.713253 
z
" clip-path="url(#p4b38eea1b5)" style="fill: #1f77b4"/>
   </g>
   <g id="patch_13">
    <path d="M 105.037435 303.64 
L 108.648598 303.64 
L 108.648598 296.24988 
L 105.037435 296.24988 
z
" clip-path="url(#p4b38eea1b5)" style="fill: #1f77b4"/>
   </g>
   <g id="patch_14">
    <path d="M 108.648598 303.64 
L 112.25976 303.64 
L 112.25976 297.481567 
L 108.648598 297.481567 
z
" clip-path="url(#p4b38eea1b5)" style="fill: #1f77b4"/>
   </g>
   <g id="patch_15">
    <path d="M 112.25976 303.64 
L 115.870923 303.64 
L 115.870923 296.24988 
L 112.25976 296.24988 
z
" clip-path="url(#p4b38eea1b5)" style="fill: #1f77b4"/>
   </g>
   <g id="patch_16">
    <path d="M 115.870923 303.64 
L 119.482085 303.64 
L 119.482085 301.176627 
L 115.870923 301.176627 
z
" clip-path="url(#p4b38eea1b5)" style="fill: #1f77b4"/>
   </g>
   <g id="patch_17">
    <path d="M 119.482085 303.64 
L 123.093247 303.64 
L 123.093247 293.786506 
L 119.482085 293.786506 
z
" clip-path="url(#p4b38eea1b5)" style="fill: #1f77b4"/>
   </g>
   <g id="patch_18">
    <path d="M 123.093247 303.64 
L 126.70441 303.64 
L 126.70441 291.323133 
L 123.093247 291.323133 
z
" clip-path="url(#p4b38eea1b5)" style="fill: #1f77b4"/>
   </g>
   <g id="patch_19">
    <path d="M 126.70441 303.64 
L 130.315572 303.64 
L 130.315572 285.1647 
L 126.70441 285.1647 
z
" clip-path="url(#p4b38eea1b5)" style="fill: #1f77b4"/>
   </g>
   <g id="patch_20">
    <path d="M 130.315572 303.64 
L 133.926734 303.64 
L 133.926734 291.323133 
L 130.315572 291.323133 
z
" clip-path="url(#p4b38eea1b5)" style="fill: #1f77b4"/>
   </g>
   <g id="patch_21">
    <path d="M 133.926734 303.64 
L 137.537897 303.64 
L 137.537897 280.237953 
L 133.926734 280.237953 
z
" clip-path="url(#p4b38eea1b5)" style="fill: #1f77b4"/>
   </g>
   <g id="patch_22">
    <path d="M 137.537897 303.64 
L 141.149059 303.64 
L 141.149059 274.079519 
L 137.537897 274.079519 
z
" clip-path="url(#p4b38eea1b5)" style="fill: #1f77b4"/>
   </g>
   <g id="patch_23">
    <path d="M 141.149059 303.64 
L 144.760222 303.64 
L 144.760222 267.921086 
L 141.149059 267.921086 
z
" clip-path="url(#p4b38eea1b5)" style="fill: #1f77b4"/>
   </g>
   <g id="patch_24">
    <path d="M 144.760222 303.64 
L 148.371384 303.64 
L 148.371384 264.226026 
L 144.760222 264.226026 
z
" clip-path="url(#p4b38eea1b5)" style="fill: #1f77b4"/>
   </g>
   <g id="patch_25">
    <path d="M 148.371384 303.64 
L 151.982546 303.64 
L 151.982546 253.140846 
L 148.371384 253.140846 
z
" clip-path="url(#p4b38eea1b5)" style="fill: #1f77b4"/>
   </g>
   <g id="patch_26">
    <path d="M 151.982546 303.64 
L 155.593709 303.64 
L 155.593709 238.360605 
L 151.982546 238.360605 
z
" clip-path="url(#p4b38eea1b5)" style="fill: #1f77b4"/>
   </g>
   <g id="patch_27">
    <path d="M 155.593709 303.64 
L 159.204871 303.64 
L 159.204871 212.495185 
L 155.593709 212.495185 
z
" clip-path="url(#p4b38eea1b5)" style="fill: #1f77b4"/>
   </g>
   <g id="patch_28">
    <path d="M 159.204871 303.64 
L 162.816033 303.64 
L 162.816033 190.324824 
L 159.204871 190.324824 
z
" clip-path="url(#p4b38eea1b5)" style="fill: #1f77b4"/>
   </g>
   <g id="patch_29">
    <path d="M 162.816033 303.64 
L 166.427196 303.64 
L 166.427196 189.093138 
L 162.816033 189.093138 
z
" clip-path="url(#p4b38eea1b5)" style="fill: #1f77b4"/>
   </g>
   <g id="patch_30">
    <path d="M 166.427196 303.64 
L 170.038358 303.64 
L 170.038358 153.374223 
L 166.427196 153.374223 
z
" clip-path="url(#p4b38eea1b5)" style="fill: #1f77b4"/>
   </g>
   <g id="patch_31">
    <path d="M 170.038358 303.64 
L 173.64952 303.64 
L 173.64952 145.984103 
L 170.038358 145.984103 
z
" clip-path="url(#p4b38eea1b5)" style="fill: #1f77b4"/>
   </g>
   <g id="patch_32">
    <path d="M 173.64952 303.64 
L 177.260683 303.64 
L 177.260683 40.059048 
L 173.64952 40.059048 
z
" clip-path="url(#p4b38eea1b5)" style="fill: #1f77b4"/>
   </g>
   <g id="patch_33">
    <path d="M 177.260683 303.64 
L 180.871845 303.64 
L 180.871845 111.496876 
L 177.260683 111.496876 
z
" clip-path="url(#p4b38eea1b5)" style="fill: #1f77b4"/>
   </g>
   <g id="patch_34">
    <path d="M 180.871845 303.64 
L 184.483008 303.64 
L 184.483008 104.106756 
L 180.871845 104.106756 
z
" clip-path="url(#p4b38eea1b5)" style="fill: #1f77b4"/>
   </g>
   <g id="patch_35">
    <path d="M 184.483008 303.64 
L 188.09417 303.64 
L 188.09417 67.156155 
L 184.483008 67.156155 
z
" clip-path="url(#p4b38eea1b5)" style="fill: #1f77b4"/>
   </g>
   <g id="patch_36">
    <path d="M 188.09417 303.64 
L 191.705332 303.64 
L 191.705332 56.070975 
L 188.09417 56.070975 
z
" clip-path="url(#p4b38eea1b5)" style="fill: #1f77b4"/>
   </g>
   <g id="patch_37">
    <path d="M 191.705332 303.64 
L 195.316495 303.64 
L 195.316495 96.716636 
L 191.705332 96.716636 
z
" clip-path="url(#p4b38eea1b5)" style="fill: #1f77b4"/>
   </g>
   <g id="patch_38">
    <path d="M 195.316495 303.64 
L 198.927657 303.64 
L 198.927657 72.082902 
L 195.316495 72.082902 
z
" clip-path="url(#p4b38eea1b5)" style="fill: #1f77b4"/>
   </g>
   <g id="patch_39">
    <path d="M 198.927657 303.64 
L 202.538819 303.64 
L 202.538819 75.777962 
L 198.927657 75.777962 
z
" clip-path="url(#p4b38eea1b5)" style="fill: #1f77b4"/>
   </g>
   <g id="patch_40">
    <path d="M 202.538819 303.64 
L 206.149982 303.64 
L 206.149982 90.558202 
L 202.538819 90.558202 
z
" clip-path="url(#p4b38eea1b5)" style="fill: #1f77b4"/>
   </g>
   <g id="patch_41">
    <path d="M 206.149982 303.64 
L 209.761144 303.64 
L 209.761144 85.631455 
L 206.149982 85.631455 
z
" clip-path="url(#p4b38eea1b5)" style="fill: #1f77b4"/>
   </g>
   <g id="patch_42">
    <path d="M 209.761144 303.64 
L 213.372306 303.64 
L 213.372306 100.411696 
L 209.761144 100.411696 
z
" clip-path="url(#p4b38eea1b5)" style="fill: #1f77b4"/>
   </g>
   <g id="patch_43">
    <path d="M 213.372306 303.64 
L 216.983469 303.64 
L 216.983469 101.643382 
L 213.372306 101.643382 
z
" clip-path="url(#p4b38eea1b5)" style="fill: #1f77b4"/>
   </g>
   <g id="patch_44">
    <path d="M 216.983469 303.64 
L 220.594631 303.64 
L 220.594631 95.484949 
L 216.983469 95.484949 
z
" clip-path="url(#p4b38eea1b5)" style="fill: #1f77b4"/>
   </g>
   <g id="patch_45">
    <path d="M 220.594631 303.64 
L 224.205794 303.64 
L 224.205794 88.094829 
L 220.594631 88.094829 
z
" clip-path="url(#p4b38eea1b5)" style="fill: #1f77b4"/>
   </g>
   <g id="patch_46">
    <path d="M 224.205794 303.64 
L 227.816956 303.64 
L 227.816956 81.936395 
L 224.205794 81.936395 
z
" clip-path="url(#p4b38eea1b5)" style="fill: #1f77b4"/>
   </g>
   <g id="patch_47">
    <path d="M 227.816956 303.64 
L 231.428118 303.64 
L 231.428118 109.033502 
L 227.816956 109.033502 
z
" clip-path="url(#p4b38eea1b5)" style="fill: #1f77b4"/>
   </g>
   <g id="patch_48">
    <path d="M 231.428118 303.64 
L 235.039281 303.64 
L 235.039281 107.801816 
L 231.428118 107.801816 
z
" clip-path="url(#p4b38eea1b5)" style="fill: #1f77b4"/>
   </g>
   <g id="patch_49">
    <path d="M 235.039281 303.64 
L 238.650443 303.64 
L 238.650443 128.74049 
L 235.039281 128.74049 
z
" clip-path="url(#p4b38eea1b5)" style="fill: #1f77b4"/>
   </g>
   <g id="patch_50">
    <path d="M 238.650443 303.64 
L 242.261605 303.64 
L 242.261605 128.74049 
L 238.650443 128.74049 
z
" clip-path="url(#p4b38eea1b5)" style="fill: #1f77b4"/>
   </g>
   <g id="patch_51">
    <path d="M 242.261605 303.64 
L 245.872768 303.64 
L 245.872768 95.484949 
L 242.261605 95.484949 
z
" clip-path="url(#p4b38eea1b5)" style="fill: #1f77b4"/>
   </g>
   <g id="patch_52">
    <path d="M 245.872768 303.64 
L 249.48393 303.64 
L 249.48393 91.789889 
L 245.872768 91.789889 
z
" clip-path="url(#p4b38eea1b5)" style="fill: #1f77b4"/>
   </g>
   <g id="patch_53">
    <path d="M 249.48393 303.64 
L 253.095092 303.64 
L 253.095092 149.679163 
L 249.48393 149.679163 
z
" clip-path="url(#p4b38eea1b5)" style="fill: #1f77b4"/>
   </g>
   <g id="patch_54">
    <path d="M 253.095092 303.64 
L 256.706255 303.64 
L 256.706255 104.106756 
L 253.095092 104.106756 
z
" clip-path="url(#p4b38eea1b5)" style="fill: #1f77b4"/>
   </g>
   <g id="patch_55">
    <path d="M 256.706255 303.64 
L 260.317417 303.64 
L 260.317417 105.338442 
L 256.706255 105.338442 
z
" clip-path="url(#p4b38eea1b5)" style="fill: #1f77b4"/>
   </g>
   <g id="patch_56">
    <path d="M 260.317417 303.64 
L 263.92858 303.64 
L 263.92858 142.289043 
L 260.317417 142.289043 
z
" clip-path="url(#p4b38eea1b5)" style="fill: #1f77b4"/>
   </g>
   <g id="patch_57">
    <path d="M 263.92858 303.64 
L 267.539742 303.64 
L 267.539742 141.057356 
L 263.92858 141.057356 
z
" clip-path="url(#p4b38eea1b5)" style="fill: #1f77b4"/>
   </g>
   <g id="patch_58">
    <path d="M 267.539742 303.64 
L 271.150904 303.64 
L 271.150904 132.43555 
L 267.539742 132.43555 
z
" clip-path="url(#p4b38eea1b5)" style="fill: #1f77b4"/>
   </g>
   <g id="patch_59">
    <path d="M 271.150904 303.64 
L 274.762067 303.64 
L 274.762067 166.922777 
L 271.150904 166.922777 
z
" clip-path="url(#p4b38eea1b5)" style="fill: #1f77b4"/>
   </g>
   <g id="patch_60">
    <path d="M 274.762067 303.64 
L 278.373229 303.64 
L 278.373229 153.374223 
L 274.762067 153.374223 
z
" clip-path="url(#p4b38eea1b5)" style="fill: #1f77b4"/>
   </g>
   <g id="patch_61">
    <path d="M 278.373229 303.64 
L 281.984391 303.64 
L 281.984391 132.43555 
L 278.373229 132.43555 
z
" clip-path="url(#p4b38eea1b5)" style="fill: #1f77b4"/>
   </g>
   <g id="patch_62">
    <path d="M 281.984391 303.64 
L 285.595554 303.64 
L 285.595554 184.166391 
L 281.984391 184.166391 
z
" clip-path="url(#p4b38eea1b5)" style="fill: #1f77b4"/>
   </g>
   <g id="patch_63">
    <path d="M 285.595554 303.64 
L 289.206716 303.64 
L 289.206716 197.714944 
L 285.595554 197.714944 
z
" clip-path="url(#p4b38eea1b5)" style="fill: #1f77b4"/>
   </g>
   <g id="patch_64">
    <path d="M 289.206716 303.64 
L 292.817878 303.64 
L 292.817878 163.227717 
L 289.206716 163.227717 
z
" clip-path="url(#p4b38eea1b5)" style="fill: #1f77b4"/>
   </g>
   <g id="patch_65">
    <path d="M 292.817878 303.64 
L 296.429041 303.64 
L 296.429041 173.081211 
L 292.817878 173.081211 
z
" clip-path="url(#p4b38eea1b5)" style="fill: #1f77b4"/>
   </g>
   <g id="patch_66">
    <path d="M 296.429041 303.64 
L 300.040203 303.64 
L 300.040203 173.081211 
L 296.429041 173.081211 
z
" clip-path="url(#p4b38eea1b5)" style="fill: #1f77b4"/>
   </g>
   <g id="patch_67">
    <path d="M 300.040203 303.64 
L 303.651366 303.64 
L 303.651366 187.861451 
L 300.040203 187.861451 
z
" clip-path="url(#p4b38eea1b5)" style="fill: #1f77b4"/>
   </g>
   <g id="patch_68">
    <path d="M 303.651366 303.64 
L 307.262528 303.64 
L 307.262528 181.703017 
L 303.651366 181.703017 
z
" clip-path="url(#p4b38eea1b5)" style="fill: #1f77b4"/>
   </g>
   <g id="patch_69">
    <path d="M 307.262528 303.64 
L 310.87369 303.64 
L 310.87369 173.081211 
L 307.262528 173.081211 
z
" clip-path="url(#p4b38eea1b5)" style="fill: #1f77b4"/>
   </g>
   <g id="patch_70">
    <path d="M 310.87369 303.64 
L 314.484853 303.64 
L 314.484853 192.788198 
L 310.87369 192.788198 
z
" clip-path="url(#p4b38eea1b5)" style="fill: #1f77b4"/>
   </g>
   <g id="patch_71">
    <path d="M 314.484853 303.64 
L 318.096015 303.64 
L 318.096015 203.873378 
L 314.484853 203.873378 
z
" clip-path="url(#p4b38eea1b5)" style="fill: #1f77b4"/>
   </g>
   <g id="patch_72">
    <path d="M 318.096015 303.64 
L 321.707177 303.64 
L 321.707177 171.849524 
L 318.096015 171.849524 
z
" clip-path="url(#p4b38eea1b5)" style="fill: #1f77b4"/>
   </g>
   <g id="patch_73">
    <path d="M 321.707177 303.64 
L 325.31834 303.64 
L 325.31834 207.568438 
L 321.707177 207.568438 
z
" clip-path="url(#p4b38eea1b5)" style="fill: #1f77b4"/>
   </g>
   <g id="patch_74">
    <path d="M 325.31834 303.64 
L 328.929502 303.64 
L 328.929502 198.946631 
L 325.31834 198.946631 
z
" clip-path="url(#p4b38eea1b5)" style="fill: #1f77b4"/>
   </g>
   <g id="patch_75">
    <path d="M 328.929502 303.64 
L 332.540665 303.64 
L 332.540665 234.665545 
L 328.929502 234.665545 
z
" clip-path="url(#p4b38eea1b5)" style="fill: #1f77b4"/>
   </g>
   <g id="patch_76">
    <path d="M 332.540665 303.64 
L 336.151827 303.64 
L 336.151827 223.580365 
L 332.540665 223.580365 
z
" clip-path="url(#p4b38eea1b5)" style="fill: #1f77b4"/>
   </g>
   <g id="patch_77">
    <path d="M 336.151827 303.64 
L 339.762989 303.64 
L 339.762989 206.336751 
L 336.151827 206.336751 
z
" clip-path="url(#p4b38eea1b5)" style="fill: #1f77b4"/>
   </g>
   <g id="patch_78">
    <path d="M 339.762989 303.64 
L 343.374152 303.64 
L 343.374152 232.202172 
L 339.762989 232.202172 
z
" clip-path="url(#p4b38eea1b5)" style="fill: #1f77b4"/>
   </g>
   <g id="patch_79">
    <path d="M 343.374152 303.64 
L 346.985314 303.64 
L 346.985314 217.421931 
L 343.374152 217.421931 
z
" clip-path="url(#p4b38eea1b5)" style="fill: #1f77b4"/>
   </g>
   <g id="patch_80">
    <path d="M 346.985314 303.64 
L 350.596476 303.64 
L 350.596476 229.738798 
L 346.985314 229.738798 
z
" clip-path="url(#p4b38eea1b5)" style="fill: #1f77b4"/>
   </g>
   <g id="patch_81">
    <path d="M 350.596476 303.64 
L 354.207639 303.64 
L 354.207639 230.970485 
L 350.596476 230.970485 
z
" clip-path="url(#p4b38eea1b5)" style="fill: #1f77b4"/>
   </g>
   <g id="patch_82">
    <path d="M 354.207639 303.64 
L 357.818801 303.64 
L 357.818801 218.653618 
L 354.207639 218.653618 
z
" clip-path="url(#p4b38eea1b5)" style="fill: #1f77b4"/>
   </g>
   <g id="patch_83">
    <path d="M 357.818801 303.64 
L 361.429963 303.64 
L 361.429963 233.433858 
L 357.818801 233.433858 
z
" clip-path="url(#p4b38eea1b5)" style="fill: #1f77b4"/>
   </g>
   <g id="patch_84">
    <path d="M 361.429963 303.64 
L 365.041126 303.64 
L 365.041126 227.275425 
L 361.429963 227.275425 
z
" clip-path="url(#p4b38eea1b5)" style="fill: #1f77b4"/>
   </g>
   <g id="patch_85">
    <path d="M 365.041126 303.64 
L 368.652288 303.64 
L 368.652288 240.823979 
L 365.041126 240.823979 
z
" clip-path="url(#p4b38eea1b5)" style="fill: #1f77b4"/>
   </g>
   <g id="patch_86">
    <path d="M 368.652288 303.64 
L 372.263451 303.64 
L 372.263451 269.152773 
L 368.652288 269.152773 
z
" clip-path="url(#p4b38eea1b5)" style="fill: #1f77b4"/>
   </g>
   <g id="patch_87">
    <path d="M 372.263451 303.64 
L 375.874613 303.64 
L 375.874613 248.214099 
L 372.263451 248.214099 
z
" clip-path="url(#p4b38eea1b5)" style="fill: #1f77b4"/>
   </g>
   <g id="patch_88">
    <path d="M 375.874613 303.64 
L 379.485775 303.64 
L 379.485775 248.214099 
L 375.874613 248.214099 
z
" clip-path="url(#p4b38eea1b5)" style="fill: #1f77b4"/>
   </g>
   <g id="patch_89">
    <path d="M 379.485775 303.64 
L 383.096938 303.64 
L 383.096938 267.921086 
L 379.485775 267.921086 
z
" clip-path="url(#p4b38eea1b5)" style="fill: #1f77b4"/>
   </g>
   <g id="patch_90">
    <path d="M 383.096938 303.64 
L 386.7081 303.64 
L 386.7081 255.604219 
L 383.096938 255.604219 
z
" clip-path="url(#p4b38eea1b5)" style="fill: #1f77b4"/>
   </g>
   <g id="patch_91">
    <path d="M 386.7081 303.64 
L 390.319262 303.64 
L 390.319262 270.384459 
L 386.7081 270.384459 
z
" clip-path="url(#p4b38eea1b5)" style="fill: #1f77b4"/>
   </g>
   <g id="patch_92">
    <path d="M 390.319262 303.64 
L 393.930425 303.64 
L 393.930425 281.46964 
L 390.319262 281.46964 
z
" clip-path="url(#p4b38eea1b5)" style="fill: #1f77b4"/>
   </g>
   <g id="patch_93">
    <path d="M 393.930425 303.64 
L 397.541587 303.64 
L 397.541587 282.701326 
L 393.930425 282.701326 
z
" clip-path="url(#p4b38eea1b5)" style="fill: #1f77b4"/>
   </g>
   <g id="patch_94">
    <path d="M 397.541587 303.64 
L 401.152749 303.64 
L 401.152749 283.933013 
L 397.541587 283.933013 
z
" clip-path="url(#p4b38eea1b5)" style="fill: #1f77b4"/>
   </g>
   <g id="patch_95">
    <path d="M 401.152749 303.64 
L 404.763912 303.64 
L 404.763912 291.323133 
L 401.152749 291.323133 
z
" clip-path="url(#p4b38eea1b5)" style="fill: #1f77b4"/>
   </g>
   <g id="patch_96">
    <path d="M 404.763912 303.64 
L 408.375074 303.64 
L 408.375074 293.786506 
L 404.763912 293.786506 
z
" clip-path="url(#p4b38eea1b5)" style="fill: #1f77b4"/>
   </g>
   <g id="patch_97">
    <path d="M 408.375074 303.64 
L 411.986237 303.64 
L 411.986237 297.481567 
L 408.375074 297.481567 
z
" clip-path="url(#p4b38eea1b5)" style="fill: #1f77b4"/>
   </g>
   <g id="patch_98">
    <path d="M 411.986237 303.64 
L 415.597399 303.64 
L 415.597399 296.24988 
L 411.986237 296.24988 
z
" clip-path="url(#p4b38eea1b5)" style="fill: #1f77b4"/>
   </g>
   <g id="patch_99">
    <path d="M 415.597399 303.64 
L 419.208561 303.64 
L 419.208561 299.94494 
L 415.597399 299.94494 
z
" clip-path="url(#p4b38eea1b5)" style="fill: #1f77b4"/>
   </g>
   <g id="patch_100">
    <path d="M 419.208561 303.64 
L 422.819724 303.64 
L 422.819724 301.176627 
L 419.208561 301.176627 
z
" clip-path="url(#p4b38eea1b5)" style="fill: #1f77b4"/>
   </g>
   <g id="patch_101">
    <path d="M 422.819724 303.64 
L 426.430886 303.64 
L 426.430886 302.408313 
L 422.819724 302.408313 
z
" clip-path="url(#p4b38eea1b5)" style="fill: #1f77b4"/>
   </g>
   <g id="patch_102">
    <path d="M 426.430886 303.64 
L 430.042048 303.64 
L 430.042048 301.176627 
L 426.430886 301.176627 
z
" clip-path="url(#p4b38eea1b5)" style="fill: #1f77b4"/>
   </g>
   <g id="matplotlib.axis_1">
    <g id="xtick_1">
     <g id="line2d_1">
      <defs>
       <path id="mad6e4e0a6b" d="M 0 0 
L 0 3.5 
" style="stroke: #000000; stroke-width: 0.8"/>
      </defs>
      <g>
       <use xlink:href="#mad6e4e0a6b" x="51.418312" y="303.64" style="stroke: #000000; stroke-width: 0.8"/>
      </g>
     </g>
     <g id="text_1">
      <!-- 0 -->
      <g transform="translate(48.237062 318.238437) scale(0.1 -0.1)">
       <defs>
        <path id="DejaVuSans-30" d="M 2034 4250 
Q 1547 4250 1301 3770 
Q 1056 3291 1056 2328 
Q 1056 1369 1301 889 
Q 1547 409 2034 409 
Q 2525 409 2770 889 
Q 3016 1369 3016 2328 
Q 3016 3291 2770 3770 
Q 2525 4250 2034 4250 
z
M 2034 4750 
Q 2819 4750 3233 4129 
Q 3647 3509 3647 2328 
Q 3647 1150 3233 529 
Q 2819 -91 2034 -91 
Q 1250 -91 836 529 
Q 422 1150 422 2328 
Q 422 3509 836 4129 
Q 1250 4750 2034 4750 
z
" transform="scale(0.015625)"/>
       </defs>
       <use xlink:href="#DejaVuSans-30"/>
      </g>
     </g>
    </g>
    <g id="xtick_2">
     <g id="line2d_2">
      <g>
       <use xlink:href="#mad6e4e0a6b" x="99.515839" y="303.64" style="stroke: #000000; stroke-width: 0.8"/>
      </g>
     </g>
     <g id="text_2">
      <!-- 250 -->
      <g transform="translate(89.972089 318.238437) scale(0.1 -0.1)">
       <defs>
        <path id="DejaVuSans-32" d="M 1228 531 
L 3431 531 
L 3431 0 
L 469 0 
L 469 531 
Q 828 903 1448 1529 
Q 2069 2156 2228 2338 
Q 2531 2678 2651 2914 
Q 2772 3150 2772 3378 
Q 2772 3750 2511 3984 
Q 2250 4219 1831 4219 
Q 1534 4219 1204 4116 
Q 875 4013 500 3803 
L 500 4441 
Q 881 4594 1212 4672 
Q 1544 4750 1819 4750 
Q 2544 4750 2975 4387 
Q 3406 4025 3406 3419 
Q 3406 3131 3298 2873 
Q 3191 2616 2906 2266 
Q 2828 2175 2409 1742 
Q 1991 1309 1228 531 
z
" transform="scale(0.015625)"/>
        <path id="DejaVuSans-35" d="M 691 4666 
L 3169 4666 
L 3169 4134 
L 1269 4134 
L 1269 2991 
Q 1406 3038 1543 3061 
Q 1681 3084 1819 3084 
Q 2600 3084 3056 2656 
Q 3513 2228 3513 1497 
Q 3513 744 3044 326 
Q 2575 -91 1722 -91 
Q 1428 -91 1123 -41 
Q 819 9 494 109 
L 494 744 
Q 775 591 1075 516 
Q 1375 441 1709 441 
Q 2250 441 2565 725 
Q 2881 1009 2881 1497 
Q 2881 1984 2565 2268 
Q 2250 2553 1709 2553 
Q 1456 2553 1204 2497 
Q 953 2441 691 2322 
L 691 4666 
z
" transform="scale(0.015625)"/>
       </defs>
       <use xlink:href="#DejaVuSans-32"/>
       <use xlink:href="#DejaVuSans-35" x="63.623047"/>
       <use xlink:href="#DejaVuSans-30" x="127.246094"/>
      </g>
     </g>
    </g>
    <g id="xtick_3">
     <g id="line2d_3">
      <g>
       <use xlink:href="#mad6e4e0a6b" x="147.613367" y="303.64" style="stroke: #000000; stroke-width: 0.8"/>
      </g>
     </g>
     <g id="text_3">
      <!-- 500 -->
      <g transform="translate(138.069617 318.238437) scale(0.1 -0.1)">
       <use xlink:href="#DejaVuSans-35"/>
       <use xlink:href="#DejaVuSans-30" x="63.623047"/>
       <use xlink:href="#DejaVuSans-30" x="127.246094"/>
      </g>
     </g>
    </g>
    <g id="xtick_4">
     <g id="line2d_4">
      <g>
       <use xlink:href="#mad6e4e0a6b" x="195.710894" y="303.64" style="stroke: #000000; stroke-width: 0.8"/>
      </g>
     </g>
     <g id="text_4">
      <!-- 750 -->
      <g transform="translate(186.167144 318.238437) scale(0.1 -0.1)">
       <defs>
        <path id="DejaVuSans-37" d="M 525 4666 
L 3525 4666 
L 3525 4397 
L 1831 0 
L 1172 0 
L 2766 4134 
L 525 4134 
L 525 4666 
z
" transform="scale(0.015625)"/>
       </defs>
       <use xlink:href="#DejaVuSans-37"/>
       <use xlink:href="#DejaVuSans-35" x="63.623047"/>
       <use xlink:href="#DejaVuSans-30" x="127.246094"/>
      </g>
     </g>
    </g>
    <g id="xtick_5">
     <g id="line2d_5">
      <g>
       <use xlink:href="#mad6e4e0a6b" x="243.808422" y="303.64" style="stroke: #000000; stroke-width: 0.8"/>
      </g>
     </g>
     <g id="text_5">
      <!-- 1000 -->
      <g transform="translate(231.083422 318.238437) scale(0.1 -0.1)">
       <defs>
        <path id="DejaVuSans-31" d="M 794 531 
L 1825 531 
L 1825 4091 
L 703 3866 
L 703 4441 
L 1819 4666 
L 2450 4666 
L 2450 531 
L 3481 531 
L 3481 0 
L 794 0 
L 794 531 
z
" transform="scale(0.015625)"/>
       </defs>
       <use xlink:href="#DejaVuSans-31"/>
       <use xlink:href="#DejaVuSans-30" x="63.623047"/>
       <use xlink:href="#DejaVuSans-30" x="127.246094"/>
       <use xlink:href="#DejaVuSans-30" x="190.869141"/>
      </g>
     </g>
    </g>
    <g id="xtick_6">
     <g id="line2d_6">
      <g>
       <use xlink:href="#mad6e4e0a6b" x="291.905949" y="303.64" style="stroke: #000000; stroke-width: 0.8"/>
      </g>
     </g>
     <g id="text_6">
      <!-- 1250 -->
      <g transform="translate(279.180949 318.238437) scale(0.1 -0.1)">
       <use xlink:href="#DejaVuSans-31"/>
       <use xlink:href="#DejaVuSans-32" x="63.623047"/>
       <use xlink:href="#DejaVuSans-35" x="127.246094"/>
       <use xlink:href="#DejaVuSans-30" x="190.869141"/>
      </g>
     </g>
    </g>
    <g id="xtick_7">
     <g id="line2d_7">
      <g>
       <use xlink:href="#mad6e4e0a6b" x="340.003477" y="303.64" style="stroke: #000000; stroke-width: 0.8"/>
      </g>
     </g>
     <g id="text_7">
      <!-- 1500 -->
      <g transform="translate(327.278477 318.238437) scale(0.1 -0.1)">
       <use xlink:href="#DejaVuSans-31"/>
       <use xlink:href="#DejaVuSans-35" x="63.623047"/>
       <use xlink:href="#DejaVuSans-30" x="127.246094"/>
       <use xlink:href="#DejaVuSans-30" x="190.869141"/>
      </g>
     </g>
    </g>
    <g id="xtick_8">
     <g id="line2d_8">
      <g>
       <use xlink:href="#mad6e4e0a6b" x="388.101004" y="303.64" style="stroke: #000000; stroke-width: 0.8"/>
      </g>
     </g>
     <g id="text_8">
      <!-- 1750 -->
      <g transform="translate(375.376004 318.238437) scale(0.1 -0.1)">
       <use xlink:href="#DejaVuSans-31"/>
       <use xlink:href="#DejaVuSans-37" x="63.623047"/>
       <use xlink:href="#DejaVuSans-35" x="127.246094"/>
       <use xlink:href="#DejaVuSans-30" x="190.869141"/>
      </g>
     </g>
    </g>
    <g id="xtick_9">
     <g id="line2d_9">
      <g>
       <use xlink:href="#mad6e4e0a6b" x="436.198532" y="303.64" style="stroke: #000000; stroke-width: 0.8"/>
      </g>
     </g>
     <g id="text_9">
      <!-- 2000 -->
      <g transform="translate(423.473532 318.238437) scale(0.1 -0.1)">
       <use xlink:href="#DejaVuSans-32"/>
       <use xlink:href="#DejaVuSans-30" x="63.623047"/>
       <use xlink:href="#DejaVuSans-30" x="127.246094"/>
       <use xlink:href="#DejaVuSans-30" x="190.869141"/>
      </g>
     </g>
    </g>
    <g id="text_10">
     <!-- Number of genes expressed in a cell -->
     <g transform="translate(158.11518 331.916562) scale(0.1 -0.1)">
      <defs>
       <path id="DejaVuSans-4e" d="M 628 4666 
L 1478 4666 
L 3547 763 
L 3547 4666 
L 4159 4666 
L 4159 0 
L 3309 0 
L 1241 3903 
L 1241 0 
L 628 0 
L 628 4666 
z
" transform="scale(0.015625)"/>
       <path id="DejaVuSans-75" d="M 544 1381 
L 544 3500 
L 1119 3500 
L 1119 1403 
Q 1119 906 1312 657 
Q 1506 409 1894 409 
Q 2359 409 2629 706 
Q 2900 1003 2900 1516 
L 2900 3500 
L 3475 3500 
L 3475 0 
L 2900 0 
L 2900 538 
Q 2691 219 2414 64 
Q 2138 -91 1772 -91 
Q 1169 -91 856 284 
Q 544 659 544 1381 
z
M 1991 3584 
L 1991 3584 
z
" transform="scale(0.015625)"/>
       <path id="DejaVuSans-6d" d="M 3328 2828 
Q 3544 3216 3844 3400 
Q 4144 3584 4550 3584 
Q 5097 3584 5394 3201 
Q 5691 2819 5691 2113 
L 5691 0 
L 5113 0 
L 5113 2094 
Q 5113 2597 4934 2840 
Q 4756 3084 4391 3084 
Q 3944 3084 3684 2787 
Q 3425 2491 3425 1978 
L 3425 0 
L 2847 0 
L 2847 2094 
Q 2847 2600 2669 2842 
Q 2491 3084 2119 3084 
Q 1678 3084 1418 2786 
Q 1159 2488 1159 1978 
L 1159 0 
L 581 0 
L 581 3500 
L 1159 3500 
L 1159 2956 
Q 1356 3278 1631 3431 
Q 1906 3584 2284 3584 
Q 2666 3584 2933 3390 
Q 3200 3197 3328 2828 
z
" transform="scale(0.015625)"/>
       <path id="DejaVuSans-62" d="M 3116 1747 
Q 3116 2381 2855 2742 
Q 2594 3103 2138 3103 
Q 1681 3103 1420 2742 
Q 1159 2381 1159 1747 
Q 1159 1113 1420 752 
Q 1681 391 2138 391 
Q 2594 391 2855 752 
Q 3116 1113 3116 1747 
z
M 1159 2969 
Q 1341 3281 1617 3432 
Q 1894 3584 2278 3584 
Q 2916 3584 3314 3078 
Q 3713 2572 3713 1747 
Q 3713 922 3314 415 
Q 2916 -91 2278 -91 
Q 1894 -91 1617 61 
Q 1341 213 1159 525 
L 1159 0 
L 581 0 
L 581 4863 
L 1159 4863 
L 1159 2969 
z
" transform="scale(0.015625)"/>
       <path id="DejaVuSans-65" d="M 3597 1894 
L 3597 1613 
L 953 1613 
Q 991 1019 1311 708 
Q 1631 397 2203 397 
Q 2534 397 2845 478 
Q 3156 559 3463 722 
L 3463 178 
Q 3153 47 2828 -22 
Q 2503 -91 2169 -91 
Q 1331 -91 842 396 
Q 353 884 353 1716 
Q 353 2575 817 3079 
Q 1281 3584 2069 3584 
Q 2775 3584 3186 3129 
Q 3597 2675 3597 1894 
z
M 3022 2063 
Q 3016 2534 2758 2815 
Q 2500 3097 2075 3097 
Q 1594 3097 1305 2825 
Q 1016 2553 972 2059 
L 3022 2063 
z
" transform="scale(0.015625)"/>
       <path id="DejaVuSans-72" d="M 2631 2963 
Q 2534 3019 2420 3045 
Q 2306 3072 2169 3072 
Q 1681 3072 1420 2755 
Q 1159 2438 1159 1844 
L 1159 0 
L 581 0 
L 581 3500 
L 1159 3500 
L 1159 2956 
Q 1341 3275 1631 3429 
Q 1922 3584 2338 3584 
Q 2397 3584 2469 3576 
Q 2541 3569 2628 3553 
L 2631 2963 
z
" transform="scale(0.015625)"/>
       <path id="DejaVuSans-20" transform="scale(0.015625)"/>
       <path id="DejaVuSans-6f" d="M 1959 3097 
Q 1497 3097 1228 2736 
Q 959 2375 959 1747 
Q 959 1119 1226 758 
Q 1494 397 1959 397 
Q 2419 397 2687 759 
Q 2956 1122 2956 1747 
Q 2956 2369 2687 2733 
Q 2419 3097 1959 3097 
z
M 1959 3584 
Q 2709 3584 3137 3096 
Q 3566 2609 3566 1747 
Q 3566 888 3137 398 
Q 2709 -91 1959 -91 
Q 1206 -91 779 398 
Q 353 888 353 1747 
Q 353 2609 779 3096 
Q 1206 3584 1959 3584 
z
" transform="scale(0.015625)"/>
       <path id="DejaVuSans-66" d="M 2375 4863 
L 2375 4384 
L 1825 4384 
Q 1516 4384 1395 4259 
Q 1275 4134 1275 3809 
L 1275 3500 
L 2222 3500 
L 2222 3053 
L 1275 3053 
L 1275 0 
L 697 0 
L 697 3053 
L 147 3053 
L 147 3500 
L 697 3500 
L 697 3744 
Q 697 4328 969 4595 
Q 1241 4863 1831 4863 
L 2375 4863 
z
" transform="scale(0.015625)"/>
       <path id="DejaVuSans-67" d="M 2906 1791 
Q 2906 2416 2648 2759 
Q 2391 3103 1925 3103 
Q 1463 3103 1205 2759 
Q 947 2416 947 1791 
Q 947 1169 1205 825 
Q 1463 481 1925 481 
Q 2391 481 2648 825 
Q 2906 1169 2906 1791 
z
M 3481 434 
Q 3481 -459 3084 -895 
Q 2688 -1331 1869 -1331 
Q 1566 -1331 1297 -1286 
Q 1028 -1241 775 -1147 
L 775 -588 
Q 1028 -725 1275 -790 
Q 1522 -856 1778 -856 
Q 2344 -856 2625 -561 
Q 2906 -266 2906 331 
L 2906 616 
Q 2728 306 2450 153 
Q 2172 0 1784 0 
Q 1141 0 747 490 
Q 353 981 353 1791 
Q 353 2603 747 3093 
Q 1141 3584 1784 3584 
Q 2172 3584 2450 3431 
Q 2728 3278 2906 2969 
L 2906 3500 
L 3481 3500 
L 3481 434 
z
" transform="scale(0.015625)"/>
       <path id="DejaVuSans-6e" d="M 3513 2113 
L 3513 0 
L 2938 0 
L 2938 2094 
Q 2938 2591 2744 2837 
Q 2550 3084 2163 3084 
Q 1697 3084 1428 2787 
Q 1159 2491 1159 1978 
L 1159 0 
L 581 0 
L 581 3500 
L 1159 3500 
L 1159 2956 
Q 1366 3272 1645 3428 
Q 1925 3584 2291 3584 
Q 2894 3584 3203 3211 
Q 3513 2838 3513 2113 
z
" transform="scale(0.015625)"/>
       <path id="DejaVuSans-73" d="M 2834 3397 
L 2834 2853 
Q 2591 2978 2328 3040 
Q 2066 3103 1784 3103 
Q 1356 3103 1142 2972 
Q 928 2841 928 2578 
Q 928 2378 1081 2264 
Q 1234 2150 1697 2047 
L 1894 2003 
Q 2506 1872 2764 1633 
Q 3022 1394 3022 966 
Q 3022 478 2636 193 
Q 2250 -91 1575 -91 
Q 1294 -91 989 -36 
Q 684 19 347 128 
L 347 722 
Q 666 556 975 473 
Q 1284 391 1588 391 
Q 1994 391 2212 530 
Q 2431 669 2431 922 
Q 2431 1156 2273 1281 
Q 2116 1406 1581 1522 
L 1381 1569 
Q 847 1681 609 1914 
Q 372 2147 372 2553 
Q 372 3047 722 3315 
Q 1072 3584 1716 3584 
Q 2034 3584 2315 3537 
Q 2597 3491 2834 3397 
z
" transform="scale(0.015625)"/>
       <path id="DejaVuSans-78" d="M 3513 3500 
L 2247 1797 
L 3578 0 
L 2900 0 
L 1881 1375 
L 863 0 
L 184 0 
L 1544 1831 
L 300 3500 
L 978 3500 
L 1906 2253 
L 2834 3500 
L 3513 3500 
z
" transform="scale(0.015625)"/>
       <path id="DejaVuSans-70" d="M 1159 525 
L 1159 -1331 
L 581 -1331 
L 581 3500 
L 1159 3500 
L 1159 2969 
Q 1341 3281 1617 3432 
Q 1894 3584 2278 3584 
Q 2916 3584 3314 3078 
Q 3713 2572 3713 1747 
Q 3713 922 3314 415 
Q 2916 -91 2278 -91 
Q 1894 -91 1617 61 
Q 1341 213 1159 525 
z
M 3116 1747 
Q 3116 2381 2855 2742 
Q 2594 3103 2138 3103 
Q 1681 3103 1420 2742 
Q 1159 2381 1159 1747 
Q 1159 1113 1420 752 
Q 1681 391 2138 391 
Q 2594 391 2855 752 
Q 3116 1113 3116 1747 
z
" transform="scale(0.015625)"/>
       <path id="DejaVuSans-64" d="M 2906 2969 
L 2906 4863 
L 3481 4863 
L 3481 0 
L 2906 0 
L 2906 525 
Q 2725 213 2448 61 
Q 2172 -91 1784 -91 
Q 1150 -91 751 415 
Q 353 922 353 1747 
Q 353 2572 751 3078 
Q 1150 3584 1784 3584 
Q 2172 3584 2448 3432 
Q 2725 3281 2906 2969 
z
M 947 1747 
Q 947 1113 1208 752 
Q 1469 391 1925 391 
Q 2381 391 2643 752 
Q 2906 1113 2906 1747 
Q 2906 2381 2643 2742 
Q 2381 3103 1925 3103 
Q 1469 3103 1208 2742 
Q 947 2381 947 1747 
z
" transform="scale(0.015625)"/>
       <path id="DejaVuSans-69" d="M 603 3500 
L 1178 3500 
L 1178 0 
L 603 0 
L 603 3500 
z
M 603 4863 
L 1178 4863 
L 1178 4134 
L 603 4134 
L 603 4863 
z
" transform="scale(0.015625)"/>
       <path id="DejaVuSans-61" d="M 2194 1759 
Q 1497 1759 1228 1600 
Q 959 1441 959 1056 
Q 959 750 1161 570 
Q 1363 391 1709 391 
Q 2188 391 2477 730 
Q 2766 1069 2766 1631 
L 2766 1759 
L 2194 1759 
z
M 3341 1997 
L 3341 0 
L 2766 0 
L 2766 531 
Q 2569 213 2275 61 
Q 1981 -91 1556 -91 
Q 1019 -91 701 211 
Q 384 513 384 1019 
Q 384 1609 779 1909 
Q 1175 2209 1959 2209 
L 2766 2209 
L 2766 2266 
Q 2766 2663 2505 2880 
Q 2244 3097 1772 3097 
Q 1472 3097 1187 3025 
Q 903 2953 641 2809 
L 641 3341 
Q 956 3463 1253 3523 
Q 1550 3584 1831 3584 
Q 2591 3584 2966 3190 
Q 3341 2797 3341 1997 
z
" transform="scale(0.015625)"/>
       <path id="DejaVuSans-63" d="M 3122 3366 
L 3122 2828 
Q 2878 2963 2633 3030 
Q 2388 3097 2138 3097 
Q 1578 3097 1268 2742 
Q 959 2388 959 1747 
Q 959 1106 1268 751 
Q 1578 397 2138 397 
Q 2388 397 2633 464 
Q 2878 531 3122 666 
L 3122 134 
Q 2881 22 2623 -34 
Q 2366 -91 2075 -91 
Q 1284 -91 818 406 
Q 353 903 353 1747 
Q 353 2603 823 3093 
Q 1294 3584 2113 3584 
Q 2378 3584 2631 3529 
Q 2884 3475 3122 3366 
z
" transform="scale(0.015625)"/>
       <path id="DejaVuSans-6c" d="M 603 4863 
L 1178 4863 
L 1178 0 
L 603 0 
L 603 4863 
z
" transform="scale(0.015625)"/>
      </defs>
      <use xlink:href="#DejaVuSans-4e"/>
      <use xlink:href="#DejaVuSans-75" x="74.804688"/>
      <use xlink:href="#DejaVuSans-6d" x="138.183594"/>
      <use xlink:href="#DejaVuSans-62" x="235.595703"/>
      <use xlink:href="#DejaVuSans-65" x="299.072266"/>
      <use xlink:href="#DejaVuSans-72" x="360.595703"/>
      <use xlink:href="#DejaVuSans-20" x="401.708984"/>
      <use xlink:href="#DejaVuSans-6f" x="433.496094"/>
      <use xlink:href="#DejaVuSans-66" x="494.677734"/>
      <use xlink:href="#DejaVuSans-20" x="529.882812"/>
      <use xlink:href="#DejaVuSans-67" x="561.669922"/>
      <use xlink:href="#DejaVuSans-65" x="625.146484"/>
      <use xlink:href="#DejaVuSans-6e" x="686.669922"/>
      <use xlink:href="#DejaVuSans-65" x="750.048828"/>
      <use xlink:href="#DejaVuSans-73" x="811.572266"/>
      <use xlink:href="#DejaVuSans-20" x="863.671875"/>
      <use xlink:href="#DejaVuSans-65" x="895.458984"/>
      <use xlink:href="#DejaVuSans-78" x="955.232422"/>
      <use xlink:href="#DejaVuSans-70" x="1014.412109"/>
      <use xlink:href="#DejaVuSans-72" x="1077.888672"/>
      <use xlink:href="#DejaVuSans-65" x="1116.751953"/>
      <use xlink:href="#DejaVuSans-73" x="1178.275391"/>
      <use xlink:href="#DejaVuSans-73" x="1230.375"/>
      <use xlink:href="#DejaVuSans-65" x="1282.474609"/>
      <use xlink:href="#DejaVuSans-64" x="1343.998047"/>
      <use xlink:href="#DejaVuSans-20" x="1407.474609"/>
      <use xlink:href="#DejaVuSans-69" x="1439.261719"/>
      <use xlink:href="#DejaVuSans-6e" x="1467.044922"/>
      <use xlink:href="#DejaVuSans-20" x="1530.423828"/>
      <use xlink:href="#DejaVuSans-61" x="1562.210938"/>
      <use xlink:href="#DejaVuSans-20" x="1623.490234"/>
      <use xlink:href="#DejaVuSans-63" x="1655.277344"/>
      <use xlink:href="#DejaVuSans-65" x="1710.257812"/>
      <use xlink:href="#DejaVuSans-6c" x="1771.78125"/>
      <use xlink:href="#DejaVuSans-6c" x="1799.564453"/>
     </g>
    </g>
   </g>
   <g id="matplotlib.axis_2">
    <g id="ytick_1">
     <g id="line2d_10">
      <defs>
       <path id="m30185cf34a" d="M 0 0 
L -3.5 0 
" style="stroke: #000000; stroke-width: 0.8"/>
      </defs>
      <g>
       <use xlink:href="#m30185cf34a" x="50.87" y="303.64" style="stroke: #000000; stroke-width: 0.8"/>
      </g>
     </g>
     <g id="text_11">
      <!-- 0 -->
      <g transform="translate(37.5075 307.439219) scale(0.1 -0.1)">
       <use xlink:href="#DejaVuSans-30"/>
      </g>
     </g>
    </g>
    <g id="ytick_2">
     <g id="line2d_11">
      <g>
       <use xlink:href="#m30185cf34a" x="50.87" y="272.847833" style="stroke: #000000; stroke-width: 0.8"/>
      </g>
     </g>
     <g id="text_12">
      <!-- 25 -->
      <g transform="translate(31.145 276.647051) scale(0.1 -0.1)">
       <use xlink:href="#DejaVuSans-32"/>
       <use xlink:href="#DejaVuSans-35" x="63.623047"/>
      </g>
     </g>
    </g>
    <g id="ytick_3">
     <g id="line2d_12">
      <g>
       <use xlink:href="#m30185cf34a" x="50.87" y="242.055665" style="stroke: #000000; stroke-width: 0.8"/>
      </g>
     </g>
     <g id="text_13">
      <!-- 50 -->
      <g transform="translate(31.145 245.854884) scale(0.1 -0.1)">
       <use xlink:href="#DejaVuSans-35"/>
       <use xlink:href="#DejaVuSans-30" x="63.623047"/>
      </g>
     </g>
    </g>
    <g id="ytick_4">
     <g id="line2d_13">
      <g>
       <use xlink:href="#m30185cf34a" x="50.87" y="211.263498" style="stroke: #000000; stroke-width: 0.8"/>
      </g>
     </g>
     <g id="text_14">
      <!-- 75 -->
      <g transform="translate(31.145 215.062717) scale(0.1 -0.1)">
       <use xlink:href="#DejaVuSans-37"/>
       <use xlink:href="#DejaVuSans-35" x="63.623047"/>
      </g>
     </g>
    </g>
    <g id="ytick_5">
     <g id="line2d_14">
      <g>
       <use xlink:href="#m30185cf34a" x="50.87" y="180.471331" style="stroke: #000000; stroke-width: 0.8"/>
      </g>
     </g>
     <g id="text_15">
      <!-- 100 -->
      <g transform="translate(24.7825 184.270549) scale(0.1 -0.1)">
       <use xlink:href="#DejaVuSans-31"/>
       <use xlink:href="#DejaVuSans-30" x="63.623047"/>
       <use xlink:href="#DejaVuSans-30" x="127.246094"/>
      </g>
     </g>
    </g>
    <g id="ytick_6">
     <g id="line2d_15">
      <g>
       <use xlink:href="#m30185cf34a" x="50.87" y="149.679163" style="stroke: #000000; stroke-width: 0.8"/>
      </g>
     </g>
     <g id="text_16">
      <!-- 125 -->
      <g transform="translate(24.7825 153.478382) scale(0.1 -0.1)">
       <use xlink:href="#DejaVuSans-31"/>
       <use xlink:href="#DejaVuSans-32" x="63.623047"/>
       <use xlink:href="#DejaVuSans-35" x="127.246094"/>
      </g>
     </g>
    </g>
    <g id="ytick_7">
     <g id="line2d_16">
      <g>
       <use xlink:href="#m30185cf34a" x="50.87" y="118.886996" style="stroke: #000000; stroke-width: 0.8"/>
      </g>
     </g>
     <g id="text_17">
      <!-- 150 -->
      <g transform="translate(24.7825 122.686215) scale(0.1 -0.1)">
       <use xlink:href="#DejaVuSans-31"/>
       <use xlink:href="#DejaVuSans-35" x="63.623047"/>
       <use xlink:href="#DejaVuSans-30" x="127.246094"/>
      </g>
     </g>
    </g>
    <g id="ytick_8">
     <g id="line2d_17">
      <g>
       <use xlink:href="#m30185cf34a" x="50.87" y="88.094829" style="stroke: #000000; stroke-width: 0.8"/>
      </g>
     </g>
     <g id="text_18">
      <!-- 175 -->
      <g transform="translate(24.7825 91.894047) scale(0.1 -0.1)">
       <use xlink:href="#DejaVuSans-31"/>
       <use xlink:href="#DejaVuSans-37" x="63.623047"/>
       <use xlink:href="#DejaVuSans-35" x="127.246094"/>
      </g>
     </g>
    </g>
    <g id="ytick_9">
     <g id="line2d_18">
      <g>
       <use xlink:href="#m30185cf34a" x="50.87" y="57.302661" style="stroke: #000000; stroke-width: 0.8"/>
      </g>
     </g>
     <g id="text_19">
      <!-- 200 -->
      <g transform="translate(24.7825 61.10188) scale(0.1 -0.1)">
       <use xlink:href="#DejaVuSans-32"/>
       <use xlink:href="#DejaVuSans-30" x="63.623047"/>
       <use xlink:href="#DejaVuSans-30" x="127.246094"/>
      </g>
     </g>
    </g>
    <g id="text_20">
     <!-- Number of cells -->
     <g transform="translate(18.702813 204.552187) rotate(-90) scale(0.1 -0.1)">
      <use xlink:href="#DejaVuSans-4e"/>
      <use xlink:href="#DejaVuSans-75" x="74.804688"/>
      <use xlink:href="#DejaVuSans-6d" x="138.183594"/>
      <use xlink:href="#DejaVuSans-62" x="235.595703"/>
      <use xlink:href="#DejaVuSans-65" x="299.072266"/>
      <use xlink:href="#DejaVuSans-72" x="360.595703"/>
      <use xlink:href="#DejaVuSans-20" x="401.708984"/>
      <use xlink:href="#DejaVuSans-6f" x="433.496094"/>
      <use xlink:href="#DejaVuSans-66" x="494.677734"/>
      <use xlink:href="#DejaVuSans-20" x="529.882812"/>
      <use xlink:href="#DejaVuSans-63" x="561.669922"/>
      <use xlink:href="#DejaVuSans-65" x="616.650391"/>
      <use xlink:href="#DejaVuSans-6c" x="678.173828"/>
      <use xlink:href="#DejaVuSans-6c" x="705.957031"/>
      <use xlink:href="#DejaVuSans-73" x="733.740234"/>
     </g>
    </g>
   </g>
   <g id="patch_103">
    <path d="M 50.87 303.64 
L 50.87 26.88 
" style="fill: none; stroke: #000000; stroke-width: 0.8; stroke-linejoin: miter; stroke-linecap: square"/>
   </g>
   <g id="patch_104">
    <path d="M 448.09786 303.64 
L 448.09786 26.88 
" style="fill: none; stroke: #000000; stroke-width: 0.8; stroke-linejoin: miter; stroke-linecap: square"/>
   </g>
   <g id="patch_105">
    <path d="M 50.87 303.64 
L 448.09786 303.64 
" style="fill: none; stroke: #000000; stroke-width: 0.8; stroke-linejoin: miter; stroke-linecap: square"/>
   </g>
   <g id="patch_106">
    <path d="M 50.87 26.88 
L 448.09786 26.88 
" style="fill: none; stroke: #000000; stroke-width: 0.8; stroke-linejoin: miter; stroke-linecap: square"/>
   </g>
   <g id="text_21">
    <!-- Distribution of expressed genes per cell -->
    <g transform="translate(130.02768 20.88) scale(0.12 -0.12)">
     <defs>
      <path id="DejaVuSans-44" d="M 1259 4147 
L 1259 519 
L 2022 519 
Q 2988 519 3436 956 
Q 3884 1394 3884 2338 
Q 3884 3275 3436 3711 
Q 2988 4147 2022 4147 
L 1259 4147 
z
M 628 4666 
L 1925 4666 
Q 3281 4666 3915 4102 
Q 4550 3538 4550 2338 
Q 4550 1131 3912 565 
Q 3275 0 1925 0 
L 628 0 
L 628 4666 
z
" transform="scale(0.015625)"/>
      <path id="DejaVuSans-74" d="M 1172 4494 
L 1172 3500 
L 2356 3500 
L 2356 3053 
L 1172 3053 
L 1172 1153 
Q 1172 725 1289 603 
Q 1406 481 1766 481 
L 2356 481 
L 2356 0 
L 1766 0 
Q 1100 0 847 248 
Q 594 497 594 1153 
L 594 3053 
L 172 3053 
L 172 3500 
L 594 3500 
L 594 4494 
L 1172 4494 
z
" transform="scale(0.015625)"/>
     </defs>
     <use xlink:href="#DejaVuSans-44"/>
     <use xlink:href="#DejaVuSans-69" x="77.001953"/>
     <use xlink:href="#DejaVuSans-73" x="104.785156"/>
     <use xlink:href="#DejaVuSans-74" x="156.884766"/>
     <use xlink:href="#DejaVuSans-72" x="196.09375"/>
     <use xlink:href="#DejaVuSans-69" x="237.207031"/>
     <use xlink:href="#DejaVuSans-62" x="264.990234"/>
     <use xlink:href="#DejaVuSans-75" x="328.466797"/>
     <use xlink:href="#DejaVuSans-74" x="391.845703"/>
     <use xlink:href="#DejaVuSans-69" x="431.054688"/>
     <use xlink:href="#DejaVuSans-6f" x="458.837891"/>
     <use xlink:href="#DejaVuSans-6e" x="520.019531"/>
     <use xlink:href="#DejaVuSans-20" x="583.398438"/>
     <use xlink:href="#DejaVuSans-6f" x="615.185547"/>
     <use xlink:href="#DejaVuSans-66" x="676.367188"/>
     <use xlink:href="#DejaVuSans-20" x="711.572266"/>
     <use xlink:href="#DejaVuSans-65" x="743.359375"/>
     <use xlink:href="#DejaVuSans-78" x="803.132812"/>
     <use xlink:href="#DejaVuSans-70" x="862.3125"/>
     <use xlink:href="#DejaVuSans-72" x="925.789062"/>
     <use xlink:href="#DejaVuSans-65" x="964.652344"/>
     <use xlink:href="#DejaVuSans-73" x="1026.175781"/>
     <use xlink:href="#DejaVuSans-73" x="1078.275391"/>
     <use xlink:href="#DejaVuSans-65" x="1130.375"/>
     <use xlink:href="#DejaVuSans-64" x="1191.898438"/>
     <use xlink:href="#DejaVuSans-20" x="1255.375"/>
     <use xlink:href="#DejaVuSans-67" x="1287.162109"/>
     <use xlink:href="#DejaVuSans-65" x="1350.638672"/>
     <use xlink:href="#DejaVuSans-6e" x="1412.162109"/>
     <use xlink:href="#DejaVuSans-65" x="1475.541016"/>
     <use xlink:href="#DejaVuSans-73" x="1537.064453"/>
     <use xlink:href="#DejaVuSans-20" x="1589.164062"/>
     <use xlink:href="#DejaVuSans-70" x="1620.951172"/>
     <use xlink:href="#DejaVuSans-65" x="1684.427734"/>
     <use xlink:href="#DejaVuSans-72" x="1745.951172"/>
     <use xlink:href="#DejaVuSans-20" x="1787.064453"/>
     <use xlink:href="#DejaVuSans-63" x="1818.851562"/>
     <use xlink:href="#DejaVuSans-65" x="1873.832031"/>
     <use xlink:href="#DejaVuSans-6c" x="1935.355469"/>
     <use xlink:href="#DejaVuSans-6c" x="1963.138672"/>
    </g>
   </g>
  </g>
 </g>
 <defs>
  <clipPath id="p4b38eea1b5">
   <rect x="50.87" y="26.88" width="397.22786" height="276.76"/>
  </clipPath>
 </defs>
</svg>
