<?xml version="1.0" encoding="utf-8" standalone="no"?>
<!DOCTYPE svg PUBLIC "-//W3C//DTD SVG 1.1//EN"
  "http://www.w3.org/Graphics/SVG/1.1/DTD/svg11.dtd">
<svg xmlns:xlink="http://www.w3.org/1999/xlink" width="460.8pt" height="345.6pt" viewBox="0 0 460.8 345.6" xmlns="http://www.w3.org/2000/svg" version="1.1">
 <metadata>
  <rdf:RDF xmlns:dc="http://purl.org/dc/elements/1.1/" xmlns:cc="http://creativecommons.org/ns#" xmlns:rdf="http://www.w3.org/1999/02/22-rdf-syntax-ns#">
   <cc:Work>
    <dc:type rdf:resource="http://purl.org/dc/dcmitype/StillImage"/>
    <dc:date>2025-12-23T16:40:29.205354</dc:date>
    <dc:format>image/svg+xml</dc:format>
    <dc:creator>
     <cc:Agent>
      <dc:title>Matplotlib v3.8.4, https://matplotlib.org/</dc:title>
     </cc:Agent>
    </dc:creator>
   </cc:Work>
  </rdf:RDF>
 </metadata>
 <defs>
  <style type="text/css">*{stroke-linejoin: round; stroke-linecap: butt}</style>
 </defs>
 <g id="figure_1">
  <g id="patch_1">
   <path d="M 0 345.6 
L 460.8 345.6 
L 460.8 0 
L 0 0 
z
" style="fill: #ffffff"/>
  </g>
  <g id="axes_1">
   <g id="patch_2">
    <path d="M 63.56 303.64 
L 450 303.64 
L 450 26.88 
L 63.56 26.88 
z
" style="fill: #ffffff"/>
   </g>
   <g id="patch_3">
    <path d="M 81.125455 303.64 
L 84.638545 303.64 
L 84.638545 40.059048 
L 81.125455 40.059048 
z
" clip-path="url(#paf53cb5f83)" style="fill: #1f77b4"/>
   </g>
   <g id="patch_4">
    <path d="M 84.638545 303.64 
L 88.151636 303.64 
L 88.151636 274.263526 
L 84.638545 274.263526 
z
" clip-path="url(#paf53cb5f83)" style="fill: #1f77b4"/>
   </g>
   <g id="patch_5">
    <path d="M 88.151636 303.64 
L 91.664727 303.64 
L 91.664727 282.30375 
L 88.151636 282.30375 
z
" clip-path="url(#paf53cb5f83)" style="fill: #1f77b4"/>
   </g>
   <g id="patch_6">
    <path d="M 91.664727 303.64 
L 95.177818 303.64 
L 95.177818 287.394793 
L 91.664727 287.394793 
z
" clip-path="url(#paf53cb5f83)" style="fill: #1f77b4"/>
   </g>
   <g id="patch_7">
    <path d="M 95.177818 303.64 
L 98.690909 303.64 
L 98.690909 290.706443 
L 95.177818 290.706443 
z
" clip-path="url(#paf53cb5f83)" style="fill: #1f77b4"/>
   </g>
   <g id="patch_8">
    <path d="M 98.690909 303.64 
L 102.204 303.64 
L 102.204 292.667071 
L 98.690909 292.667071 
z
" clip-path="url(#paf53cb5f83)" style="fill: #1f77b4"/>
   </g>
   <g id="patch_9">
    <path d="M 102.204 303.64 
L 105.717091 303.64 
L 105.717091 294.166375 
L 102.204 294.166375 
z
" clip-path="url(#paf53cb5f83)" style="fill: #1f77b4"/>
   </g>
   <g id="patch_10">
    <path d="M 105.717091 303.64 
L 109.230182 303.64 
L 109.230182 296.0611 
L 105.717091 296.0611 
z
" clip-path="url(#paf53cb5f83)" style="fill: #1f77b4"/>
   </g>
   <g id="patch_11">
    <path d="M 109.230182 303.64 
L 112.743273 303.64 
L 112.743273 296.769563 
L 109.230182 296.769563 
z
" clip-path="url(#paf53cb5f83)" style="fill: #1f77b4"/>
   </g>
   <g id="patch_12">
    <path d="M 112.743273 303.64 
L 116.256364 303.64 
L 116.256364 297.642784 
L 112.743273 297.642784 
z
" clip-path="url(#paf53cb5f83)" style="fill: #1f77b4"/>
   </g>
   <g id="patch_13">
    <path d="M 116.256364 303.64 
L 119.769455 303.64 
L 119.769455 298.483053 
L 116.256364 298.483053 
z
" clip-path="url(#paf53cb5f83)" style="fill: #1f77b4"/>
   </g>
   <g id="patch_14">
    <path d="M 119.769455 303.64 
L 123.282545 303.64 
L 123.282545 299.125612 
L 119.769455 299.125612 
z
" clip-path="url(#paf53cb5f83)" style="fill: #1f77b4"/>
   </g>
   <g id="patch_15">
    <path d="M 123.282545 303.64 
L 126.795636 303.64 
L 126.795636 300.015309 
L 123.282545 300.015309 
z
" clip-path="url(#paf53cb5f83)" style="fill: #1f77b4"/>
   </g>
   <g id="patch_16">
    <path d="M 126.795636 303.64 
L 130.308727 303.64 
L 130.308727 300.097688 
L 126.795636 300.097688 
z
" clip-path="url(#paf53cb5f83)" style="fill: #1f77b4"/>
   </g>
   <g id="patch_17">
    <path d="M 130.308727 303.64 
L 133.821818 303.64 
L 133.821818 300.493109 
L 130.308727 300.493109 
z
" clip-path="url(#paf53cb5f83)" style="fill: #1f77b4"/>
   </g>
   <g id="patch_18">
    <path d="M 133.821818 303.64 
L 137.334909 303.64 
L 137.334909 300.641392 
L 133.821818 300.641392 
z
" clip-path="url(#paf53cb5f83)" style="fill: #1f77b4"/>
   </g>
   <g id="patch_19">
    <path d="M 137.334909 303.64 
L 140.848 303.64 
L 140.848 301.596992 
L 137.334909 301.596992 
z
" clip-path="url(#paf53cb5f83)" style="fill: #1f77b4"/>
   </g>
   <g id="patch_20">
    <path d="M 140.848 303.64 
L 144.361091 303.64 
L 144.361091 301.382806 
L 140.848 301.382806 
z
" clip-path="url(#paf53cb5f83)" style="fill: #1f77b4"/>
   </g>
   <g id="patch_21">
    <path d="M 144.361091 303.64 
L 147.874182 303.64 
L 147.874182 301.662896 
L 144.361091 301.662896 
z
" clip-path="url(#paf53cb5f83)" style="fill: #1f77b4"/>
   </g>
   <g id="patch_22">
    <path d="M 147.874182 303.64 
L 151.387273 303.64 
L 151.387273 302.091268 
L 147.874182 302.091268 
z
" clip-path="url(#paf53cb5f83)" style="fill: #1f77b4"/>
   </g>
   <g id="patch_23">
    <path d="M 151.387273 303.64 
L 154.900364 303.64 
L 154.900364 302.206599 
L 151.387273 302.206599 
z
" clip-path="url(#paf53cb5f83)" style="fill: #1f77b4"/>
   </g>
   <g id="patch_24">
    <path d="M 154.900364 303.64 
L 158.413455 303.64 
L 158.413455 302.140696 
L 154.900364 302.140696 
z
" clip-path="url(#paf53cb5f83)" style="fill: #1f77b4"/>
   </g>
   <g id="patch_25">
    <path d="M 158.413455 303.64 
L 161.926545 303.64 
L 161.926545 302.371358 
L 158.413455 302.371358 
z
" clip-path="url(#paf53cb5f83)" style="fill: #1f77b4"/>
   </g>
   <g id="patch_26">
    <path d="M 161.926545 303.64 
L 165.439636 303.64 
L 165.439636 302.420786 
L 161.926545 302.420786 
z
" clip-path="url(#paf53cb5f83)" style="fill: #1f77b4"/>
   </g>
   <g id="patch_27">
    <path d="M 165.439636 303.64 
L 168.952727 303.64 
L 168.952727 302.305455 
L 165.439636 302.305455 
z
" clip-path="url(#paf53cb5f83)" style="fill: #1f77b4"/>
   </g>
   <g id="patch_28">
    <path d="M 168.952727 303.64 
L 172.465818 303.64 
L 172.465818 302.931538 
L 168.952727 302.931538 
z
" clip-path="url(#paf53cb5f83)" style="fill: #1f77b4"/>
   </g>
   <g id="patch_29">
    <path d="M 172.465818 303.64 
L 175.978909 303.64 
L 175.978909 302.766779 
L 172.465818 302.766779 
z
" clip-path="url(#paf53cb5f83)" style="fill: #1f77b4"/>
   </g>
   <g id="patch_30">
    <path d="M 175.978909 303.64 
L 179.492 303.64 
L 179.492 302.931538 
L 175.978909 302.931538 
z
" clip-path="url(#paf53cb5f83)" style="fill: #1f77b4"/>
   </g>
   <g id="patch_31">
    <path d="M 179.492 303.64 
L 183.005091 303.64 
L 183.005091 302.997441 
L 179.492 302.997441 
z
" clip-path="url(#paf53cb5f83)" style="fill: #1f77b4"/>
   </g>
   <g id="patch_32">
    <path d="M 183.005091 303.64 
L 186.518182 303.64 
L 186.518182 302.948014 
L 183.005091 302.948014 
z
" clip-path="url(#paf53cb5f83)" style="fill: #1f77b4"/>
   </g>
   <g id="patch_33">
    <path d="M 186.518182 303.64 
L 190.031273 303.64 
L 190.031273 303.013917 
L 186.518182 303.013917 
z
" clip-path="url(#paf53cb5f83)" style="fill: #1f77b4"/>
   </g>
   <g id="patch_34">
    <path d="M 190.031273 303.64 
L 193.544364 303.64 
L 193.544364 303.112772 
L 190.031273 303.112772 
z
" clip-path="url(#paf53cb5f83)" style="fill: #1f77b4"/>
   </g>
   <g id="patch_35">
    <path d="M 193.544364 303.64 
L 197.057455 303.64 
L 197.057455 303.030393 
L 193.544364 303.030393 
z
" clip-path="url(#paf53cb5f83)" style="fill: #1f77b4"/>
   </g>
   <g id="patch_36">
    <path d="M 197.057455 303.64 
L 200.570545 303.64 
L 200.570545 303.211627 
L 197.057455 303.211627 
z
" clip-path="url(#paf53cb5f83)" style="fill: #1f77b4"/>
   </g>
   <g id="patch_37">
    <path d="M 200.570545 303.64 
L 204.083636 303.64 
L 204.083636 303.326958 
L 200.570545 303.326958 
z
" clip-path="url(#paf53cb5f83)" style="fill: #1f77b4"/>
   </g>
   <g id="patch_38">
    <path d="M 204.083636 303.64 
L 207.596727 303.64 
L 207.596727 303.409338 
L 204.083636 303.409338 
z
" clip-path="url(#paf53cb5f83)" style="fill: #1f77b4"/>
   </g>
   <g id="patch_39">
    <path d="M 207.596727 303.64 
L 211.109818 303.64 
L 211.109818 303.228103 
L 207.596727 303.228103 
z
" clip-path="url(#paf53cb5f83)" style="fill: #1f77b4"/>
   </g>
   <g id="patch_40">
    <path d="M 211.109818 303.64 
L 214.622909 303.64 
L 214.622909 303.277531 
L 211.109818 303.277531 
z
" clip-path="url(#paf53cb5f83)" style="fill: #1f77b4"/>
   </g>
   <g id="patch_41">
    <path d="M 214.622909 303.64 
L 218.136 303.64 
L 218.136 303.35991 
L 214.622909 303.35991 
z
" clip-path="url(#paf53cb5f83)" style="fill: #1f77b4"/>
   </g>
   <g id="patch_42">
    <path d="M 218.136 303.64 
L 221.649091 303.64 
L 221.649091 303.343434 
L 218.136 303.343434 
z
" clip-path="url(#paf53cb5f83)" style="fill: #1f77b4"/>
   </g>
   <g id="patch_43">
    <path d="M 221.649091 303.64 
L 225.162182 303.64 
L 225.162182 303.425814 
L 221.649091 303.425814 
z
" clip-path="url(#paf53cb5f83)" style="fill: #1f77b4"/>
   </g>
   <g id="patch_44">
    <path d="M 225.162182 303.64 
L 228.675273 303.64 
L 228.675273 303.458765 
L 225.162182 303.458765 
z
" clip-path="url(#paf53cb5f83)" style="fill: #1f77b4"/>
   </g>
   <g id="patch_45">
    <path d="M 228.675273 303.64 
L 232.188364 303.64 
L 232.188364 303.376386 
L 228.675273 303.376386 
z
" clip-path="url(#paf53cb5f83)" style="fill: #1f77b4"/>
   </g>
   <g id="patch_46">
    <path d="M 232.188364 303.64 
L 235.701455 303.64 
L 235.701455 303.425814 
L 232.188364 303.425814 
z
" clip-path="url(#paf53cb5f83)" style="fill: #1f77b4"/>
   </g>
   <g id="patch_47">
    <path d="M 235.701455 303.64 
L 239.214545 303.64 
L 239.214545 303.508193 
L 235.701455 303.508193 
z
" clip-path="url(#paf53cb5f83)" style="fill: #1f77b4"/>
   </g>
   <g id="patch_48">
    <path d="M 239.214545 303.64 
L 242.727636 303.64 
L 242.727636 303.458765 
L 239.214545 303.458765 
z
" clip-path="url(#paf53cb5f83)" style="fill: #1f77b4"/>
   </g>
   <g id="patch_49">
    <path d="M 242.727636 303.64 
L 246.240727 303.64 
L 246.240727 303.557621 
L 242.727636 303.557621 
z
" clip-path="url(#paf53cb5f83)" style="fill: #1f77b4"/>
   </g>
   <g id="patch_50">
    <path d="M 246.240727 303.64 
L 249.753818 303.64 
L 249.753818 303.524669 
L 246.240727 303.524669 
z
" clip-path="url(#paf53cb5f83)" style="fill: #1f77b4"/>
   </g>
   <g id="patch_51">
    <path d="M 249.753818 303.64 
L 253.266909 303.64 
L 253.266909 303.491717 
L 249.753818 303.491717 
z
" clip-path="url(#paf53cb5f83)" style="fill: #1f77b4"/>
   </g>
   <g id="patch_52">
    <path d="M 253.266909 303.64 
L 256.78 303.64 
L 256.78 303.392862 
L 253.266909 303.392862 
z
" clip-path="url(#paf53cb5f83)" style="fill: #1f77b4"/>
   </g>
   <g id="patch_53">
    <path d="M 256.78 303.64 
L 260.293091 303.64 
L 260.293091 303.557621 
L 256.78 303.557621 
z
" clip-path="url(#paf53cb5f83)" style="fill: #1f77b4"/>
   </g>
   <g id="patch_54">
    <path d="M 260.293091 303.64 
L 263.806182 303.64 
L 263.806182 303.590572 
L 260.293091 303.590572 
z
" clip-path="url(#paf53cb5f83)" style="fill: #1f77b4"/>
   </g>
   <g id="patch_55">
    <path d="M 263.806182 303.64 
L 267.319273 303.64 
L 267.319273 303.508193 
L 263.806182 303.508193 
z
" clip-path="url(#paf53cb5f83)" style="fill: #1f77b4"/>
   </g>
   <g id="patch_56">
    <path d="M 267.319273 303.64 
L 270.832364 303.64 
L 270.832364 303.607048 
L 267.319273 303.607048 
z
" clip-path="url(#paf53cb5f83)" style="fill: #1f77b4"/>
   </g>
   <g id="patch_57">
    <path d="M 270.832364 303.64 
L 274.345455 303.64 
L 274.345455 303.508193 
L 270.832364 303.508193 
z
" clip-path="url(#paf53cb5f83)" style="fill: #1f77b4"/>
   </g>
   <g id="patch_58">
    <path d="M 274.345455 303.64 
L 277.858545 303.64 
L 277.858545 303.491717 
L 274.345455 303.491717 
z
" clip-path="url(#paf53cb5f83)" style="fill: #1f77b4"/>
   </g>
   <g id="patch_59">
    <path d="M 277.858545 303.64 
L 281.371636 303.64 
L 281.371636 303.491717 
L 277.858545 303.491717 
z
" clip-path="url(#paf53cb5f83)" style="fill: #1f77b4"/>
   </g>
   <g id="patch_60">
    <path d="M 281.371636 303.64 
L 284.884727 303.64 
L 284.884727 303.508193 
L 281.371636 303.508193 
z
" clip-path="url(#paf53cb5f83)" style="fill: #1f77b4"/>
   </g>
   <g id="patch_61">
    <path d="M 284.884727 303.64 
L 288.397818 303.64 
L 288.397818 303.590572 
L 284.884727 303.590572 
z
" clip-path="url(#paf53cb5f83)" style="fill: #1f77b4"/>
   </g>
   <g id="patch_62">
    <path d="M 288.397818 303.64 
L 291.910909 303.64 
L 291.910909 303.574097 
L 288.397818 303.574097 
z
" clip-path="url(#paf53cb5f83)" style="fill: #1f77b4"/>
   </g>
   <g id="patch_63">
    <path d="M 291.910909 303.64 
L 295.424 303.64 
L 295.424 303.541145 
L 291.910909 303.541145 
z
" clip-path="url(#paf53cb5f83)" style="fill: #1f77b4"/>
   </g>
   <g id="patch_64">
    <path d="M 295.424 303.64 
L 298.937091 303.64 
L 298.937091 303.607048 
L 295.424 303.607048 
z
" clip-path="url(#paf53cb5f83)" style="fill: #1f77b4"/>
   </g>
   <g id="patch_65">
    <path d="M 298.937091 303.64 
L 302.450182 303.64 
L 302.450182 303.458765 
L 298.937091 303.458765 
z
" clip-path="url(#paf53cb5f83)" style="fill: #1f77b4"/>
   </g>
   <g id="patch_66">
    <path d="M 302.450182 303.64 
L 305.963273 303.64 
L 305.963273 303.590572 
L 302.450182 303.590572 
z
" clip-path="url(#paf53cb5f83)" style="fill: #1f77b4"/>
   </g>
   <g id="patch_67">
    <path d="M 305.963273 303.64 
L 309.476364 303.64 
L 309.476364 303.524669 
L 305.963273 303.524669 
z
" clip-path="url(#paf53cb5f83)" style="fill: #1f77b4"/>
   </g>
   <g id="patch_68">
    <path d="M 309.476364 303.64 
L 312.989455 303.64 
L 312.989455 303.574097 
L 309.476364 303.574097 
z
" clip-path="url(#paf53cb5f83)" style="fill: #1f77b4"/>
   </g>
   <g id="patch_69">
    <path d="M 312.989455 303.64 
L 316.502545 303.64 
L 316.502545 303.574097 
L 312.989455 303.574097 
z
" clip-path="url(#paf53cb5f83)" style="fill: #1f77b4"/>
   </g>
   <g id="patch_70">
    <path d="M 316.502545 303.64 
L 320.015636 303.64 
L 320.015636 303.574097 
L 316.502545 303.574097 
z
" clip-path="url(#paf53cb5f83)" style="fill: #1f77b4"/>
   </g>
   <g id="patch_71">
    <path d="M 320.015636 303.64 
L 323.528727 303.64 
L 323.528727 303.607048 
L 320.015636 303.607048 
z
" clip-path="url(#paf53cb5f83)" style="fill: #1f77b4"/>
   </g>
   <g id="patch_72">
    <path d="M 323.528727 303.64 
L 327.041818 303.64 
L 327.041818 303.557621 
L 323.528727 303.557621 
z
" clip-path="url(#paf53cb5f83)" style="fill: #1f77b4"/>
   </g>
   <g id="patch_73">
    <path d="M 327.041818 303.64 
L 330.554909 303.64 
L 330.554909 303.607048 
L 327.041818 303.607048 
z
" clip-path="url(#paf53cb5f83)" style="fill: #1f77b4"/>
   </g>
   <g id="patch_74">
    <path d="M 330.554909 303.64 
L 334.068 303.64 
L 334.068 303.64 
L 330.554909 303.64 
z
" clip-path="url(#paf53cb5f83)" style="fill: #1f77b4"/>
   </g>
   <g id="patch_75">
    <path d="M 334.068 303.64 
L 337.581091 303.64 
L 337.581091 303.607048 
L 334.068 303.607048 
z
" clip-path="url(#paf53cb5f83)" style="fill: #1f77b4"/>
   </g>
   <g id="patch_76">
    <path d="M 337.581091 303.64 
L 341.094182 303.64 
L 341.094182 303.590572 
L 337.581091 303.590572 
z
" clip-path="url(#paf53cb5f83)" style="fill: #1f77b4"/>
   </g>
   <g id="patch_77">
    <path d="M 341.094182 303.64 
L 344.607273 303.64 
L 344.607273 303.607048 
L 341.094182 303.607048 
z
" clip-path="url(#paf53cb5f83)" style="fill: #1f77b4"/>
   </g>
   <g id="patch_78">
    <path d="M 344.607273 303.64 
L 348.120364 303.64 
L 348.120364 303.607048 
L 344.607273 303.607048 
z
" clip-path="url(#paf53cb5f83)" style="fill: #1f77b4"/>
   </g>
   <g id="patch_79">
    <path d="M 348.120364 303.64 
L 351.633455 303.64 
L 351.633455 303.607048 
L 348.120364 303.607048 
z
" clip-path="url(#paf53cb5f83)" style="fill: #1f77b4"/>
   </g>
   <g id="patch_80">
    <path d="M 351.633455 303.64 
L 355.146545 303.64 
L 355.146545 303.557621 
L 351.633455 303.557621 
z
" clip-path="url(#paf53cb5f83)" style="fill: #1f77b4"/>
   </g>
   <g id="patch_81">
    <path d="M 355.146545 303.64 
L 358.659636 303.64 
L 358.659636 303.607048 
L 355.146545 303.607048 
z
" clip-path="url(#paf53cb5f83)" style="fill: #1f77b4"/>
   </g>
   <g id="patch_82">
    <path d="M 358.659636 303.64 
L 362.172727 303.64 
L 362.172727 303.524669 
L 358.659636 303.524669 
z
" clip-path="url(#paf53cb5f83)" style="fill: #1f77b4"/>
   </g>
   <g id="patch_83">
    <path d="M 362.172727 303.64 
L 365.685818 303.64 
L 365.685818 303.590572 
L 362.172727 303.590572 
z
" clip-path="url(#paf53cb5f83)" style="fill: #1f77b4"/>
   </g>
   <g id="patch_84">
    <path d="M 365.685818 303.64 
L 369.198909 303.64 
L 369.198909 303.574097 
L 365.685818 303.574097 
z
" clip-path="url(#paf53cb5f83)" style="fill: #1f77b4"/>
   </g>
   <g id="patch_85">
    <path d="M 369.198909 303.64 
L 372.712 303.64 
L 372.712 303.590572 
L 369.198909 303.590572 
z
" clip-path="url(#paf53cb5f83)" style="fill: #1f77b4"/>
   </g>
   <g id="patch_86">
    <path d="M 372.712 303.64 
L 376.225091 303.64 
L 376.225091 303.623524 
L 372.712 303.623524 
z
" clip-path="url(#paf53cb5f83)" style="fill: #1f77b4"/>
   </g>
   <g id="patch_87">
    <path d="M 376.225091 303.64 
L 379.738182 303.64 
L 379.738182 303.607048 
L 376.225091 303.607048 
z
" clip-path="url(#paf53cb5f83)" style="fill: #1f77b4"/>
   </g>
   <g id="patch_88">
    <path d="M 379.738182 303.64 
L 383.251273 303.64 
L 383.251273 303.574097 
L 379.738182 303.574097 
z
" clip-path="url(#paf53cb5f83)" style="fill: #1f77b4"/>
   </g>
   <g id="patch_89">
    <path d="M 383.251273 303.64 
L 386.764364 303.64 
L 386.764364 303.607048 
L 383.251273 303.607048 
z
" clip-path="url(#paf53cb5f83)" style="fill: #1f77b4"/>
   </g>
   <g id="patch_90">
    <path d="M 386.764364 303.64 
L 390.277455 303.64 
L 390.277455 303.64 
L 386.764364 303.64 
z
" clip-path="url(#paf53cb5f83)" style="fill: #1f77b4"/>
   </g>
   <g id="patch_91">
    <path d="M 390.277455 303.64 
L 393.790545 303.64 
L 393.790545 303.590572 
L 390.277455 303.590572 
z
" clip-path="url(#paf53cb5f83)" style="fill: #1f77b4"/>
   </g>
   <g id="patch_92">
    <path d="M 393.790545 303.64 
L 397.303636 303.64 
L 397.303636 303.590572 
L 393.790545 303.590572 
z
" clip-path="url(#paf53cb5f83)" style="fill: #1f77b4"/>
   </g>
   <g id="patch_93">
    <path d="M 397.303636 303.64 
L 400.816727 303.64 
L 400.816727 303.574097 
L 397.303636 303.574097 
z
" clip-path="url(#paf53cb5f83)" style="fill: #1f77b4"/>
   </g>
   <g id="patch_94">
    <path d="M 400.816727 303.64 
L 404.329818 303.64 
L 404.329818 303.607048 
L 400.816727 303.607048 
z
" clip-path="url(#paf53cb5f83)" style="fill: #1f77b4"/>
   </g>
   <g id="patch_95">
    <path d="M 404.329818 303.64 
L 407.842909 303.64 
L 407.842909 303.623524 
L 404.329818 303.623524 
z
" clip-path="url(#paf53cb5f83)" style="fill: #1f77b4"/>
   </g>
   <g id="patch_96">
    <path d="M 407.842909 303.64 
L 411.356 303.64 
L 411.356 303.623524 
L 407.842909 303.623524 
z
" clip-path="url(#paf53cb5f83)" style="fill: #1f77b4"/>
   </g>
   <g id="patch_97">
    <path d="M 411.356 303.64 
L 414.869091 303.64 
L 414.869091 303.607048 
L 411.356 303.607048 
z
" clip-path="url(#paf53cb5f83)" style="fill: #1f77b4"/>
   </g>
   <g id="patch_98">
    <path d="M 414.869091 303.64 
L 418.382182 303.64 
L 418.382182 303.64 
L 414.869091 303.64 
z
" clip-path="url(#paf53cb5f83)" style="fill: #1f77b4"/>
   </g>
   <g id="patch_99">
    <path d="M 418.382182 303.64 
L 421.895273 303.64 
L 421.895273 303.64 
L 418.382182 303.64 
z
" clip-path="url(#paf53cb5f83)" style="fill: #1f77b4"/>
   </g>
   <g id="patch_100">
    <path d="M 421.895273 303.64 
L 425.408364 303.64 
L 425.408364 303.623524 
L 421.895273 303.623524 
z
" clip-path="url(#paf53cb5f83)" style="fill: #1f77b4"/>
   </g>
   <g id="patch_101">
    <path d="M 425.408364 303.64 
L 428.921455 303.64 
L 428.921455 303.623524 
L 425.408364 303.623524 
z
" clip-path="url(#paf53cb5f83)" style="fill: #1f77b4"/>
   </g>
   <g id="patch_102">
    <path d="M 428.921455 303.64 
L 432.434545 303.64 
L 432.434545 303.557621 
L 428.921455 303.557621 
z
" clip-path="url(#paf53cb5f83)" style="fill: #1f77b4"/>
   </g>
   <g id="matplotlib.axis_1">
    <g id="xtick_1">
     <g id="line2d_1">
      <defs>
       <path id="m597397ffaa" d="M 0 0 
L 0 3.5 
" style="stroke: #000000; stroke-width: 0.8"/>
      </defs>
      <g>
       <use xlink:href="#m597397ffaa" x="81.125455" y="303.64" style="stroke: #000000; stroke-width: 0.8"/>
      </g>
     </g>
     <g id="text_1">
      <!-- 0 -->
      <g transform="translate(77.944205 318.238437) scale(0.1 -0.1)">
       <defs>
        <path id="DejaVuSans-30" d="M 2034 4250 
Q 1547 4250 1301 3770 
Q 1056 3291 1056 2328 
Q 1056 1369 1301 889 
Q 1547 409 2034 409 
Q 2525 409 2770 889 
Q 3016 1369 3016 2328 
Q 3016 3291 2770 3770 
Q 2525 4250 2034 4250 
z
M 2034 4750 
Q 2819 4750 3233 4129 
Q 3647 3509 3647 2328 
Q 3647 1150 3233 529 
Q 2819 -91 2034 -91 
Q 1250 -91 836 529 
Q 422 1150 422 2328 
Q 422 3509 836 4129 
Q 1250 4750 2034 4750 
z
" transform="scale(0.015625)"/>
       </defs>
       <use xlink:href="#DejaVuSans-30"/>
      </g>
     </g>
    </g>
    <g id="xtick_2">
     <g id="line2d_2">
      <g>
       <use xlink:href="#m597397ffaa" x="125.039091" y="303.64" style="stroke: #000000; stroke-width: 0.8"/>
      </g>
     </g>
     <g id="text_2">
      <!-- 1000 -->
      <g transform="translate(112.314091 318.238437) scale(0.1 -0.1)">
       <defs>
        <path id="DejaVuSans-31" d="M 794 531 
L 1825 531 
L 1825 4091 
L 703 3866 
L 703 4441 
L 1819 4666 
L 2450 4666 
L 2450 531 
L 3481 531 
L 3481 0 
L 794 0 
L 794 531 
z
" transform="scale(0.015625)"/>
       </defs>
       <use xlink:href="#DejaVuSans-31"/>
       <use xlink:href="#DejaVuSans-30" x="63.623047"/>
       <use xlink:href="#DejaVuSans-30" x="127.246094"/>
       <use xlink:href="#DejaVuSans-30" x="190.869141"/>
      </g>
     </g>
    </g>
    <g id="xtick_3">
     <g id="line2d_3">
      <g>
       <use xlink:href="#m597397ffaa" x="168.952727" y="303.64" style="stroke: #000000; stroke-width: 0.8"/>
      </g>
     </g>
     <g id="text_3">
      <!-- 2000 -->
      <g transform="translate(156.227727 318.238437) scale(0.1 -0.1)">
       <defs>
        <path id="DejaVuSans-32" d="M 1228 531 
L 3431 531 
L 3431 0 
L 469 0 
L 469 531 
Q 828 903 1448 1529 
Q 2069 2156 2228 2338 
Q 2531 2678 2651 2914 
Q 2772 3150 2772 3378 
Q 2772 3750 2511 3984 
Q 2250 4219 1831 4219 
Q 1534 4219 1204 4116 
Q 875 4013 500 3803 
L 500 4441 
Q 881 4594 1212 4672 
Q 1544 4750 1819 4750 
Q 2544 4750 2975 4387 
Q 3406 4025 3406 3419 
Q 3406 3131 3298 2873 
Q 3191 2616 2906 2266 
Q 2828 2175 2409 1742 
Q 1991 1309 1228 531 
z
" transform="scale(0.015625)"/>
       </defs>
       <use xlink:href="#DejaVuSans-32"/>
       <use xlink:href="#DejaVuSans-30" x="63.623047"/>
       <use xlink:href="#DejaVuSans-30" x="127.246094"/>
       <use xlink:href="#DejaVuSans-30" x="190.869141"/>
      </g>
     </g>
    </g>
    <g id="xtick_4">
     <g id="line2d_4">
      <g>
       <use xlink:href="#m597397ffaa" x="212.866364" y="303.64" style="stroke: #000000; stroke-width: 0.8"/>
      </g>
     </g>
     <g id="text_4">
      <!-- 3000 -->
      <g transform="translate(200.141364 318.238437) scale(0.1 -0.1)">
       <defs>
        <path id="DejaVuSans-33" d="M 2597 2516 
Q 3050 2419 3304 2112 
Q 3559 1806 3559 1356 
Q 3559 666 3084 287 
Q 2609 -91 1734 -91 
Q 1441 -91 1130 -33 
Q 819 25 488 141 
L 488 750 
Q 750 597 1062 519 
Q 1375 441 1716 441 
Q 2309 441 2620 675 
Q 2931 909 2931 1356 
Q 2931 1769 2642 2001 
Q 2353 2234 1838 2234 
L 1294 2234 
L 1294 2753 
L 1863 2753 
Q 2328 2753 2575 2939 
Q 2822 3125 2822 3475 
Q 2822 3834 2567 4026 
Q 2313 4219 1838 4219 
Q 1578 4219 1281 4162 
Q 984 4106 628 3988 
L 628 4550 
Q 988 4650 1302 4700 
Q 1616 4750 1894 4750 
Q 2613 4750 3031 4423 
Q 3450 4097 3450 3541 
Q 3450 3153 3228 2886 
Q 3006 2619 2597 2516 
z
" transform="scale(0.015625)"/>
       </defs>
       <use xlink:href="#DejaVuSans-33"/>
       <use xlink:href="#DejaVuSans-30" x="63.623047"/>
       <use xlink:href="#DejaVuSans-30" x="127.246094"/>
       <use xlink:href="#DejaVuSans-30" x="190.869141"/>
      </g>
     </g>
    </g>
    <g id="xtick_5">
     <g id="line2d_5">
      <g>
       <use xlink:href="#m597397ffaa" x="256.78" y="303.64" style="stroke: #000000; stroke-width: 0.8"/>
      </g>
     </g>
     <g id="text_5">
      <!-- 4000 -->
      <g transform="translate(244.055 318.238437) scale(0.1 -0.1)">
       <defs>
        <path id="DejaVuSans-34" d="M 2419 4116 
L 825 1625 
L 2419 1625 
L 2419 4116 
z
M 2253 4666 
L 3047 4666 
L 3047 1625 
L 3713 1625 
L 3713 1100 
L 3047 1100 
L 3047 0 
L 2419 0 
L 2419 1100 
L 313 1100 
L 313 1709 
L 2253 4666 
z
" transform="scale(0.015625)"/>
       </defs>
       <use xlink:href="#DejaVuSans-34"/>
       <use xlink:href="#DejaVuSans-30" x="63.623047"/>
       <use xlink:href="#DejaVuSans-30" x="127.246094"/>
       <use xlink:href="#DejaVuSans-30" x="190.869141"/>
      </g>
     </g>
    </g>
    <g id="xtick_6">
     <g id="line2d_6">
      <g>
       <use xlink:href="#m597397ffaa" x="300.693636" y="303.64" style="stroke: #000000; stroke-width: 0.8"/>
      </g>
     </g>
     <g id="text_6">
      <!-- 5000 -->
      <g transform="translate(287.968636 318.238437) scale(0.1 -0.1)">
       <defs>
        <path id="DejaVuSans-35" d="M 691 4666 
L 3169 4666 
L 3169 4134 
L 1269 4134 
L 1269 2991 
Q 1406 3038 1543 3061 
Q 1681 3084 1819 3084 
Q 2600 3084 3056 2656 
Q 3513 2228 3513 1497 
Q 3513 744 3044 326 
Q 2575 -91 1722 -91 
Q 1428 -91 1123 -41 
Q 819 9 494 109 
L 494 744 
Q 775 591 1075 516 
Q 1375 441 1709 441 
Q 2250 441 2565 725 
Q 2881 1009 2881 1497 
Q 2881 1984 2565 2268 
Q 2250 2553 1709 2553 
Q 1456 2553 1204 2497 
Q 953 2441 691 2322 
L 691 4666 
z
" transform="scale(0.015625)"/>
       </defs>
       <use xlink:href="#DejaVuSans-35"/>
       <use xlink:href="#DejaVuSans-30" x="63.623047"/>
       <use xlink:href="#DejaVuSans-30" x="127.246094"/>
       <use xlink:href="#DejaVuSans-30" x="190.869141"/>
      </g>
     </g>
    </g>
    <g id="xtick_7">
     <g id="line2d_7">
      <g>
       <use xlink:href="#m597397ffaa" x="344.607273" y="303.64" style="stroke: #000000; stroke-width: 0.8"/>
      </g>
     </g>
     <g id="text_7">
      <!-- 6000 -->
      <g transform="translate(331.882273 318.238437) scale(0.1 -0.1)">
       <defs>
        <path id="DejaVuSans-36" d="M 2113 2584 
Q 1688 2584 1439 2293 
Q 1191 2003 1191 1497 
Q 1191 994 1439 701 
Q 1688 409 2113 409 
Q 2538 409 2786 701 
Q 3034 994 3034 1497 
Q 3034 2003 2786 2293 
Q 2538 2584 2113 2584 
z
M 3366 4563 
L 3366 3988 
Q 3128 4100 2886 4159 
Q 2644 4219 2406 4219 
Q 1781 4219 1451 3797 
Q 1122 3375 1075 2522 
Q 1259 2794 1537 2939 
Q 1816 3084 2150 3084 
Q 2853 3084 3261 2657 
Q 3669 2231 3669 1497 
Q 3669 778 3244 343 
Q 2819 -91 2113 -91 
Q 1303 -91 875 529 
Q 447 1150 447 2328 
Q 447 3434 972 4092 
Q 1497 4750 2381 4750 
Q 2619 4750 2861 4703 
Q 3103 4656 3366 4563 
z
" transform="scale(0.015625)"/>
       </defs>
       <use xlink:href="#DejaVuSans-36"/>
       <use xlink:href="#DejaVuSans-30" x="63.623047"/>
       <use xlink:href="#DejaVuSans-30" x="127.246094"/>
       <use xlink:href="#DejaVuSans-30" x="190.869141"/>
      </g>
     </g>
    </g>
    <g id="xtick_8">
     <g id="line2d_8">
      <g>
       <use xlink:href="#m597397ffaa" x="388.520909" y="303.64" style="stroke: #000000; stroke-width: 0.8"/>
      </g>
     </g>
     <g id="text_8">
      <!-- 7000 -->
      <g transform="translate(375.795909 318.238437) scale(0.1 -0.1)">
       <defs>
        <path id="DejaVuSans-37" d="M 525 4666 
L 3525 4666 
L 3525 4397 
L 1831 0 
L 1172 0 
L 2766 4134 
L 525 4134 
L 525 4666 
z
" transform="scale(0.015625)"/>
       </defs>
       <use xlink:href="#DejaVuSans-37"/>
       <use xlink:href="#DejaVuSans-30" x="63.623047"/>
       <use xlink:href="#DejaVuSans-30" x="127.246094"/>
       <use xlink:href="#DejaVuSans-30" x="190.869141"/>
      </g>
     </g>
    </g>
    <g id="xtick_9">
     <g id="line2d_9">
      <g>
       <use xlink:href="#m597397ffaa" x="432.434545" y="303.64" style="stroke: #000000; stroke-width: 0.8"/>
      </g>
     </g>
     <g id="text_9">
      <!-- 8000 -->
      <g transform="translate(419.709545 318.238437) scale(0.1 -0.1)">
       <defs>
        <path id="DejaVuSans-38" d="M 2034 2216 
Q 1584 2216 1326 1975 
Q 1069 1734 1069 1313 
Q 1069 891 1326 650 
Q 1584 409 2034 409 
Q 2484 409 2743 651 
Q 3003 894 3003 1313 
Q 3003 1734 2745 1975 
Q 2488 2216 2034 2216 
z
M 1403 2484 
Q 997 2584 770 2862 
Q 544 3141 544 3541 
Q 544 4100 942 4425 
Q 1341 4750 2034 4750 
Q 2731 4750 3128 4425 
Q 3525 4100 3525 3541 
Q 3525 3141 3298 2862 
Q 3072 2584 2669 2484 
Q 3125 2378 3379 2068 
Q 3634 1759 3634 1313 
Q 3634 634 3220 271 
Q 2806 -91 2034 -91 
Q 1263 -91 848 271 
Q 434 634 434 1313 
Q 434 1759 690 2068 
Q 947 2378 1403 2484 
z
M 1172 3481 
Q 1172 3119 1398 2916 
Q 1625 2713 2034 2713 
Q 2441 2713 2670 2916 
Q 2900 3119 2900 3481 
Q 2900 3844 2670 4047 
Q 2441 4250 2034 4250 
Q 1625 4250 1398 4047 
Q 1172 3844 1172 3481 
z
" transform="scale(0.015625)"/>
       </defs>
       <use xlink:href="#DejaVuSans-38"/>
       <use xlink:href="#DejaVuSans-30" x="63.623047"/>
       <use xlink:href="#DejaVuSans-30" x="127.246094"/>
       <use xlink:href="#DejaVuSans-30" x="190.869141"/>
      </g>
     </g>
    </g>
    <g id="text_10">
     <!-- Number of cells expressing a gene -->
     <g transform="translate(170.076875 331.916562) scale(0.1 -0.1)">
      <defs>
       <path id="DejaVuSans-4e" d="M 628 4666 
L 1478 4666 
L 3547 763 
L 3547 4666 
L 4159 4666 
L 4159 0 
L 3309 0 
L 1241 3903 
L 1241 0 
L 628 0 
L 628 4666 
z
" transform="scale(0.015625)"/>
       <path id="DejaVuSans-75" d="M 544 1381 
L 544 3500 
L 1119 3500 
L 1119 1403 
Q 1119 906 1312 657 
Q 1506 409 1894 409 
Q 2359 409 2629 706 
Q 2900 1003 2900 1516 
L 2900 3500 
L 3475 3500 
L 3475 0 
L 2900 0 
L 2900 538 
Q 2691 219 2414 64 
Q 2138 -91 1772 -91 
Q 1169 -91 856 284 
Q 544 659 544 1381 
z
M 1991 3584 
L 1991 3584 
z
" transform="scale(0.015625)"/>
       <path id="DejaVuSans-6d" d="M 3328 2828 
Q 3544 3216 3844 3400 
Q 4144 3584 4550 3584 
Q 5097 3584 5394 3201 
Q 5691 2819 5691 2113 
L 5691 0 
L 5113 0 
L 5113 2094 
Q 5113 2597 4934 2840 
Q 4756 3084 4391 3084 
Q 3944 3084 3684 2787 
Q 3425 2491 3425 1978 
L 3425 0 
L 2847 0 
L 2847 2094 
Q 2847 2600 2669 2842 
Q 2491 3084 2119 3084 
Q 1678 3084 1418 2786 
Q 1159 2488 1159 1978 
L 1159 0 
L 581 0 
L 581 3500 
L 1159 3500 
L 1159 2956 
Q 1356 3278 1631 3431 
Q 1906 3584 2284 3584 
Q 2666 3584 2933 3390 
Q 3200 3197 3328 2828 
z
" transform="scale(0.015625)"/>
       <path id="DejaVuSans-62" d="M 3116 1747 
Q 3116 2381 2855 2742 
Q 2594 3103 2138 3103 
Q 1681 3103 1420 2742 
Q 1159 2381 1159 1747 
Q 1159 1113 1420 752 
Q 1681 391 2138 391 
Q 2594 391 2855 752 
Q 3116 1113 3116 1747 
z
M 1159 2969 
Q 1341 3281 1617 3432 
Q 1894 3584 2278 3584 
Q 2916 3584 3314 3078 
Q 3713 2572 3713 1747 
Q 3713 922 3314 415 
Q 2916 -91 2278 -91 
Q 1894 -91 1617 61 
Q 1341 213 1159 525 
L 1159 0 
L 581 0 
L 581 4863 
L 1159 4863 
L 1159 2969 
z
" transform="scale(0.015625)"/>
       <path id="DejaVuSans-65" d="M 3597 1894 
L 3597 1613 
L 953 1613 
Q 991 1019 1311 708 
Q 1631 397 2203 397 
Q 2534 397 2845 478 
Q 3156 559 3463 722 
L 3463 178 
Q 3153 47 2828 -22 
Q 2503 -91 2169 -91 
Q 1331 -91 842 396 
Q 353 884 353 1716 
Q 353 2575 817 3079 
Q 1281 3584 2069 3584 
Q 2775 3584 3186 3129 
Q 3597 2675 3597 1894 
z
M 3022 2063 
Q 3016 2534 2758 2815 
Q 2500 3097 2075 3097 
Q 1594 3097 1305 2825 
Q 1016 2553 972 2059 
L 3022 2063 
z
" transform="scale(0.015625)"/>
       <path id="DejaVuSans-72" d="M 2631 2963 
Q 2534 3019 2420 3045 
Q 2306 3072 2169 3072 
Q 1681 3072 1420 2755 
Q 1159 2438 1159 1844 
L 1159 0 
L 581 0 
L 581 3500 
L 1159 3500 
L 1159 2956 
Q 1341 3275 1631 3429 
Q 1922 3584 2338 3584 
Q 2397 3584 2469 3576 
Q 2541 3569 2628 3553 
L 2631 2963 
z
" transform="scale(0.015625)"/>
       <path id="DejaVuSans-20" transform="scale(0.015625)"/>
       <path id="DejaVuSans-6f" d="M 1959 3097 
Q 1497 3097 1228 2736 
Q 959 2375 959 1747 
Q 959 1119 1226 758 
Q 1494 397 1959 397 
Q 2419 397 2687 759 
Q 2956 1122 2956 1747 
Q 2956 2369 2687 2733 
Q 2419 3097 1959 3097 
z
M 1959 3584 
Q 2709 3584 3137 3096 
Q 3566 2609 3566 1747 
Q 3566 888 3137 398 
Q 2709 -91 1959 -91 
Q 1206 -91 779 398 
Q 353 888 353 1747 
Q 353 2609 779 3096 
Q 1206 3584 1959 3584 
z
" transform="scale(0.015625)"/>
       <path id="DejaVuSans-66" d="M 2375 4863 
L 2375 4384 
L 1825 4384 
Q 1516 4384 1395 4259 
Q 1275 4134 1275 3809 
L 1275 3500 
L 2222 3500 
L 2222 3053 
L 1275 3053 
L 1275 0 
L 697 0 
L 697 3053 
L 147 3053 
L 147 3500 
L 697 3500 
L 697 3744 
Q 697 4328 969 4595 
Q 1241 4863 1831 4863 
L 2375 4863 
z
" transform="scale(0.015625)"/>
       <path id="DejaVuSans-63" d="M 3122 3366 
L 3122 2828 
Q 2878 2963 2633 3030 
Q 2388 3097 2138 3097 
Q 1578 3097 1268 2742 
Q 959 2388 959 1747 
Q 959 1106 1268 751 
Q 1578 397 2138 397 
Q 2388 397 2633 464 
Q 2878 531 3122 666 
L 3122 134 
Q 2881 22 2623 -34 
Q 2366 -91 2075 -91 
Q 1284 -91 818 406 
Q 353 903 353 1747 
Q 353 2603 823 3093 
Q 1294 3584 2113 3584 
Q 2378 3584 2631 3529 
Q 2884 3475 3122 3366 
z
" transform="scale(0.015625)"/>
       <path id="DejaVuSans-6c" d="M 603 4863 
L 1178 4863 
L 1178 0 
L 603 0 
L 603 4863 
z
" transform="scale(0.015625)"/>
       <path id="DejaVuSans-73" d="M 2834 3397 
L 2834 2853 
Q 2591 2978 2328 3040 
Q 2066 3103 1784 3103 
Q 1356 3103 1142 2972 
Q 928 2841 928 2578 
Q 928 2378 1081 2264 
Q 1234 2150 1697 2047 
L 1894 2003 
Q 2506 1872 2764 1633 
Q 3022 1394 3022 966 
Q 3022 478 2636 193 
Q 2250 -91 1575 -91 
Q 1294 -91 989 -36 
Q 684 19 347 128 
L 347 722 
Q 666 556 975 473 
Q 1284 391 1588 391 
Q 1994 391 2212 530 
Q 2431 669 2431 922 
Q 2431 1156 2273 1281 
Q 2116 1406 1581 1522 
L 1381 1569 
Q 847 1681 609 1914 
Q 372 2147 372 2553 
Q 372 3047 722 3315 
Q 1072 3584 1716 3584 
Q 2034 3584 2315 3537 
Q 2597 3491 2834 3397 
z
" transform="scale(0.015625)"/>
       <path id="DejaVuSans-78" d="M 3513 3500 
L 2247 1797 
L 3578 0 
L 2900 0 
L 1881 1375 
L 863 0 
L 184 0 
L 1544 1831 
L 300 3500 
L 978 3500 
L 1906 2253 
L 2834 3500 
L 3513 3500 
z
" transform="scale(0.015625)"/>
       <path id="DejaVuSans-70" d="M 1159 525 
L 1159 -1331 
L 581 -1331 
L 581 3500 
L 1159 3500 
L 1159 2969 
Q 1341 3281 1617 3432 
Q 1894 3584 2278 3584 
Q 2916 3584 3314 3078 
Q 3713 2572 3713 1747 
Q 3713 922 3314 415 
Q 2916 -91 2278 -91 
Q 1894 -91 1617 61 
Q 1341 213 1159 525 
z
M 3116 1747 
Q 3116 2381 2855 2742 
Q 2594 3103 2138 3103 
Q 1681 3103 1420 2742 
Q 1159 2381 1159 1747 
Q 1159 1113 1420 752 
Q 1681 391 2138 391 
Q 2594 391 2855 752 
Q 3116 1113 3116 1747 
z
" transform="scale(0.015625)"/>
       <path id="DejaVuSans-69" d="M 603 3500 
L 1178 3500 
L 1178 0 
L 603 0 
L 603 3500 
z
M 603 4863 
L 1178 4863 
L 1178 4134 
L 603 4134 
L 603 4863 
z
" transform="scale(0.015625)"/>
       <path id="DejaVuSans-6e" d="M 3513 2113 
L 3513 0 
L 2938 0 
L 2938 2094 
Q 2938 2591 2744 2837 
Q 2550 3084 2163 3084 
Q 1697 3084 1428 2787 
Q 1159 2491 1159 1978 
L 1159 0 
L 581 0 
L 581 3500 
L 1159 3500 
L 1159 2956 
Q 1366 3272 1645 3428 
Q 1925 3584 2291 3584 
Q 2894 3584 3203 3211 
Q 3513 2838 3513 2113 
z
" transform="scale(0.015625)"/>
       <path id="DejaVuSans-67" d="M 2906 1791 
Q 2906 2416 2648 2759 
Q 2391 3103 1925 3103 
Q 1463 3103 1205 2759 
Q 947 2416 947 1791 
Q 947 1169 1205 825 
Q 1463 481 1925 481 
Q 2391 481 2648 825 
Q 2906 1169 2906 1791 
z
M 3481 434 
Q 3481 -459 3084 -895 
Q 2688 -1331 1869 -1331 
Q 1566 -1331 1297 -1286 
Q 1028 -1241 775 -1147 
L 775 -588 
Q 1028 -725 1275 -790 
Q 1522 -856 1778 -856 
Q 2344 -856 2625 -561 
Q 2906 -266 2906 331 
L 2906 616 
Q 2728 306 2450 153 
Q 2172 0 1784 0 
Q 1141 0 747 490 
Q 353 981 353 1791 
Q 353 2603 747 3093 
Q 1141 3584 1784 3584 
Q 2172 3584 2450 3431 
Q 2728 3278 2906 2969 
L 2906 3500 
L 3481 3500 
L 3481 434 
z
" transform="scale(0.015625)"/>
       <path id="DejaVuSans-61" d="M 2194 1759 
Q 1497 1759 1228 1600 
Q 959 1441 959 1056 
Q 959 750 1161 570 
Q 1363 391 1709 391 
Q 2188 391 2477 730 
Q 2766 1069 2766 1631 
L 2766 1759 
L 2194 1759 
z
M 3341 1997 
L 3341 0 
L 2766 0 
L 2766 531 
Q 2569 213 2275 61 
Q 1981 -91 1556 -91 
Q 1019 -91 701 211 
Q 384 513 384 1019 
Q 384 1609 779 1909 
Q 1175 2209 1959 2209 
L 2766 2209 
L 2766 2266 
Q 2766 2663 2505 2880 
Q 2244 3097 1772 3097 
Q 1472 3097 1187 3025 
Q 903 2953 641 2809 
L 641 3341 
Q 956 3463 1253 3523 
Q 1550 3584 1831 3584 
Q 2591 3584 2966 3190 
Q 3341 2797 3341 1997 
z
" transform="scale(0.015625)"/>
      </defs>
      <use xlink:href="#DejaVuSans-4e"/>
      <use xlink:href="#DejaVuSans-75" x="74.804688"/>
      <use xlink:href="#DejaVuSans-6d" x="138.183594"/>
      <use xlink:href="#DejaVuSans-62" x="235.595703"/>
      <use xlink:href="#DejaVuSans-65" x="299.072266"/>
      <use xlink:href="#DejaVuSans-72" x="360.595703"/>
      <use xlink:href="#DejaVuSans-20" x="401.708984"/>
      <use xlink:href="#DejaVuSans-6f" x="433.496094"/>
      <use xlink:href="#DejaVuSans-66" x="494.677734"/>
      <use xlink:href="#DejaVuSans-20" x="529.882812"/>
      <use xlink:href="#DejaVuSans-63" x="561.669922"/>
      <use xlink:href="#DejaVuSans-65" x="616.650391"/>
      <use xlink:href="#DejaVuSans-6c" x="678.173828"/>
      <use xlink:href="#DejaVuSans-6c" x="705.957031"/>
      <use xlink:href="#DejaVuSans-73" x="733.740234"/>
      <use xlink:href="#DejaVuSans-20" x="785.839844"/>
      <use xlink:href="#DejaVuSans-65" x="817.626953"/>
      <use xlink:href="#DejaVuSans-78" x="877.400391"/>
      <use xlink:href="#DejaVuSans-70" x="936.580078"/>
      <use xlink:href="#DejaVuSans-72" x="1000.056641"/>
      <use xlink:href="#DejaVuSans-65" x="1038.919922"/>
      <use xlink:href="#DejaVuSans-73" x="1100.443359"/>
      <use xlink:href="#DejaVuSans-73" x="1152.542969"/>
      <use xlink:href="#DejaVuSans-69" x="1204.642578"/>
      <use xlink:href="#DejaVuSans-6e" x="1232.425781"/>
      <use xlink:href="#DejaVuSans-67" x="1295.804688"/>
      <use xlink:href="#DejaVuSans-20" x="1359.28125"/>
      <use xlink:href="#DejaVuSans-61" x="1391.068359"/>
      <use xlink:href="#DejaVuSans-20" x="1452.347656"/>
      <use xlink:href="#DejaVuSans-67" x="1484.134766"/>
      <use xlink:href="#DejaVuSans-65" x="1547.611328"/>
      <use xlink:href="#DejaVuSans-6e" x="1609.134766"/>
      <use xlink:href="#DejaVuSans-65" x="1672.513672"/>
     </g>
    </g>
   </g>
   <g id="matplotlib.axis_2">
    <g id="ytick_1">
     <g id="line2d_10">
      <defs>
       <path id="m8653836111" d="M 0 0 
L -3.5 0 
" style="stroke: #000000; stroke-width: 0.8"/>
      </defs>
      <g>
       <use xlink:href="#m8653836111" x="63.56" y="303.64" style="stroke: #000000; stroke-width: 0.8"/>
      </g>
     </g>
     <g id="text_11">
      <!-- 0 -->
      <g transform="translate(50.1975 307.439219) scale(0.1 -0.1)">
       <use xlink:href="#DejaVuSans-30"/>
      </g>
     </g>
    </g>
    <g id="ytick_2">
     <g id="line2d_11">
      <g>
       <use xlink:href="#m8653836111" x="63.56" y="270.688262" style="stroke: #000000; stroke-width: 0.8"/>
      </g>
     </g>
     <g id="text_12">
      <!-- 2000 -->
      <g transform="translate(31.11 274.487481) scale(0.1 -0.1)">
       <use xlink:href="#DejaVuSans-32"/>
       <use xlink:href="#DejaVuSans-30" x="63.623047"/>
       <use xlink:href="#DejaVuSans-30" x="127.246094"/>
       <use xlink:href="#DejaVuSans-30" x="190.869141"/>
      </g>
     </g>
    </g>
    <g id="ytick_3">
     <g id="line2d_12">
      <g>
       <use xlink:href="#m8653836111" x="63.56" y="237.736524" style="stroke: #000000; stroke-width: 0.8"/>
      </g>
     </g>
     <g id="text_13">
      <!-- 4000 -->
      <g transform="translate(31.11 241.535743) scale(0.1 -0.1)">
       <use xlink:href="#DejaVuSans-34"/>
       <use xlink:href="#DejaVuSans-30" x="63.623047"/>
       <use xlink:href="#DejaVuSans-30" x="127.246094"/>
       <use xlink:href="#DejaVuSans-30" x="190.869141"/>
      </g>
     </g>
    </g>
    <g id="ytick_4">
     <g id="line2d_13">
      <g>
       <use xlink:href="#m8653836111" x="63.56" y="204.784786" style="stroke: #000000; stroke-width: 0.8"/>
      </g>
     </g>
     <g id="text_14">
      <!-- 6000 -->
      <g transform="translate(31.11 208.584005) scale(0.1 -0.1)">
       <use xlink:href="#DejaVuSans-36"/>
       <use xlink:href="#DejaVuSans-30" x="63.623047"/>
       <use xlink:href="#DejaVuSans-30" x="127.246094"/>
       <use xlink:href="#DejaVuSans-30" x="190.869141"/>
      </g>
     </g>
    </g>
    <g id="ytick_5">
     <g id="line2d_14">
      <g>
       <use xlink:href="#m8653836111" x="63.56" y="171.833048" style="stroke: #000000; stroke-width: 0.8"/>
      </g>
     </g>
     <g id="text_15">
      <!-- 8000 -->
      <g transform="translate(31.11 175.632267) scale(0.1 -0.1)">
       <use xlink:href="#DejaVuSans-38"/>
       <use xlink:href="#DejaVuSans-30" x="63.623047"/>
       <use xlink:href="#DejaVuSans-30" x="127.246094"/>
       <use xlink:href="#DejaVuSans-30" x="190.869141"/>
      </g>
     </g>
    </g>
    <g id="ytick_6">
     <g id="line2d_15">
      <g>
       <use xlink:href="#m8653836111" x="63.56" y="138.88131" style="stroke: #000000; stroke-width: 0.8"/>
      </g>
     </g>
     <g id="text_16">
      <!-- 10000 -->
      <g transform="translate(24.7475 142.680529) scale(0.1 -0.1)">
       <use xlink:href="#DejaVuSans-31"/>
       <use xlink:href="#DejaVuSans-30" x="63.623047"/>
       <use xlink:href="#DejaVuSans-30" x="127.246094"/>
       <use xlink:href="#DejaVuSans-30" x="190.869141"/>
       <use xlink:href="#DejaVuSans-30" x="254.492188"/>
      </g>
     </g>
    </g>
    <g id="ytick_7">
     <g id="line2d_16">
      <g>
       <use xlink:href="#m8653836111" x="63.56" y="105.929572" style="stroke: #000000; stroke-width: 0.8"/>
      </g>
     </g>
     <g id="text_17">
      <!-- 12000 -->
      <g transform="translate(24.7475 109.728791) scale(0.1 -0.1)">
       <use xlink:href="#DejaVuSans-31"/>
       <use xlink:href="#DejaVuSans-32" x="63.623047"/>
       <use xlink:href="#DejaVuSans-30" x="127.246094"/>
       <use xlink:href="#DejaVuSans-30" x="190.869141"/>
       <use xlink:href="#DejaVuSans-30" x="254.492188"/>
      </g>
     </g>
    </g>
    <g id="ytick_8">
     <g id="line2d_17">
      <g>
       <use xlink:href="#m8653836111" x="63.56" y="72.977834" style="stroke: #000000; stroke-width: 0.8"/>
      </g>
     </g>
     <g id="text_18">
      <!-- 14000 -->
      <g transform="translate(24.7475 76.777053) scale(0.1 -0.1)">
       <use xlink:href="#DejaVuSans-31"/>
       <use xlink:href="#DejaVuSans-34" x="63.623047"/>
       <use xlink:href="#DejaVuSans-30" x="127.246094"/>
       <use xlink:href="#DejaVuSans-30" x="190.869141"/>
       <use xlink:href="#DejaVuSans-30" x="254.492188"/>
      </g>
     </g>
    </g>
    <g id="ytick_9">
     <g id="line2d_18">
      <g>
       <use xlink:href="#m8653836111" x="63.56" y="40.026096" style="stroke: #000000; stroke-width: 0.8"/>
      </g>
     </g>
     <g id="text_19">
      <!-- 16000 -->
      <g transform="translate(24.7475 43.825315) scale(0.1 -0.1)">
       <use xlink:href="#DejaVuSans-31"/>
       <use xlink:href="#DejaVuSans-36" x="63.623047"/>
       <use xlink:href="#DejaVuSans-30" x="127.246094"/>
       <use xlink:href="#DejaVuSans-30" x="190.869141"/>
       <use xlink:href="#DejaVuSans-30" x="254.492188"/>
      </g>
     </g>
    </g>
    <g id="text_20">
     <!-- Number of genes -->
     <g transform="translate(18.667813 208.444375) rotate(-90) scale(0.1 -0.1)">
      <use xlink:href="#DejaVuSans-4e"/>
      <use xlink:href="#DejaVuSans-75" x="74.804688"/>
      <use xlink:href="#DejaVuSans-6d" x="138.183594"/>
      <use xlink:href="#DejaVuSans-62" x="235.595703"/>
      <use xlink:href="#DejaVuSans-65" x="299.072266"/>
      <use xlink:href="#DejaVuSans-72" x="360.595703"/>
      <use xlink:href="#DejaVuSans-20" x="401.708984"/>
      <use xlink:href="#DejaVuSans-6f" x="433.496094"/>
      <use xlink:href="#DejaVuSans-66" x="494.677734"/>
      <use xlink:href="#DejaVuSans-20" x="529.882812"/>
      <use xlink:href="#DejaVuSans-67" x="561.669922"/>
      <use xlink:href="#DejaVuSans-65" x="625.146484"/>
      <use xlink:href="#DejaVuSans-6e" x="686.669922"/>
      <use xlink:href="#DejaVuSans-65" x="750.048828"/>
      <use xlink:href="#DejaVuSans-73" x="811.572266"/>
     </g>
    </g>
   </g>
   <g id="patch_103">
    <path d="M 63.56 303.64 
L 63.56 26.88 
" style="fill: none; stroke: #000000; stroke-width: 0.8; stroke-linejoin: miter; stroke-linecap: square"/>
   </g>
   <g id="patch_104">
    <path d="M 450 303.64 
L 450 26.88 
" style="fill: none; stroke: #000000; stroke-width: 0.8; stroke-linejoin: miter; stroke-linecap: square"/>
   </g>
   <g id="patch_105">
    <path d="M 63.56 303.64 
L 450 303.64 
" style="fill: none; stroke: #000000; stroke-width: 0.8; stroke-linejoin: miter; stroke-linecap: square"/>
   </g>
   <g id="patch_106">
    <path d="M 63.56 26.88 
L 450 26.88 
" style="fill: none; stroke: #000000; stroke-width: 0.8; stroke-linejoin: miter; stroke-linecap: square"/>
   </g>
   <g id="text_21">
    <!-- Distribution of expressions per gene -->
    <g transform="translate(147.915625 20.88) scale(0.12 -0.12)">
     <defs>
      <path id="DejaVuSans-44" d="M 1259 4147 
L 1259 519 
L 2022 519 
Q 2988 519 3436 956 
Q 3884 1394 3884 2338 
Q 3884 3275 3436 3711 
Q 2988 4147 2022 4147 
L 1259 4147 
z
M 628 4666 
L 1925 4666 
Q 3281 4666 3915 4102 
Q 4550 3538 4550 2338 
Q 4550 1131 3912 565 
Q 3275 0 1925 0 
L 628 0 
L 628 4666 
z
" transform="scale(0.015625)"/>
      <path id="DejaVuSans-74" d="M 1172 4494 
L 1172 3500 
L 2356 3500 
L 2356 3053 
L 1172 3053 
L 1172 1153 
Q 1172 725 1289 603 
Q 1406 481 1766 481 
L 2356 481 
L 2356 0 
L 1766 0 
Q 1100 0 847 248 
Q 594 497 594 1153 
L 594 3053 
L 172 3053 
L 172 3500 
L 594 3500 
L 594 4494 
L 1172 4494 
z
" transform="scale(0.015625)"/>
     </defs>
     <use xlink:href="#DejaVuSans-44"/>
     <use xlink:href="#DejaVuSans-69" x="77.001953"/>
     <use xlink:href="#DejaVuSans-73" x="104.785156"/>
     <use xlink:href="#DejaVuSans-74" x="156.884766"/>
     <use xlink:href="#DejaVuSans-72" x="196.09375"/>
     <use xlink:href="#DejaVuSans-69" x="237.207031"/>
     <use xlink:href="#DejaVuSans-62" x="264.990234"/>
     <use xlink:href="#DejaVuSans-75" x="328.466797"/>
     <use xlink:href="#DejaVuSans-74" x="391.845703"/>
     <use xlink:href="#DejaVuSans-69" x="431.054688"/>
     <use xlink:href="#DejaVuSans-6f" x="458.837891"/>
     <use xlink:href="#DejaVuSans-6e" x="520.019531"/>
     <use xlink:href="#DejaVuSans-20" x="583.398438"/>
     <use xlink:href="#DejaVuSans-6f" x="615.185547"/>
     <use xlink:href="#DejaVuSans-66" x="676.367188"/>
     <use xlink:href="#DejaVuSans-20" x="711.572266"/>
     <use xlink:href="#DejaVuSans-65" x="743.359375"/>
     <use xlink:href="#DejaVuSans-78" x="803.132812"/>
     <use xlink:href="#DejaVuSans-70" x="862.3125"/>
     <use xlink:href="#DejaVuSans-72" x="925.789062"/>
     <use xlink:href="#DejaVuSans-65" x="964.652344"/>
     <use xlink:href="#DejaVuSans-73" x="1026.175781"/>
     <use xlink:href="#DejaVuSans-73" x="1078.275391"/>
     <use xlink:href="#DejaVuSans-69" x="1130.375"/>
     <use xlink:href="#DejaVuSans-6f" x="1158.158203"/>
     <use xlink:href="#DejaVuSans-6e" x="1219.339844"/>
     <use xlink:href="#DejaVuSans-73" x="1282.71875"/>
     <use xlink:href="#DejaVuSans-20" x="1334.818359"/>
     <use xlink:href="#DejaVuSans-70" x="1366.605469"/>
     <use xlink:href="#DejaVuSans-65" x="1430.082031"/>
     <use xlink:href="#DejaVuSans-72" x="1491.605469"/>
     <use xlink:href="#DejaVuSans-20" x="1532.71875"/>
     <use xlink:href="#DejaVuSans-67" x="1564.505859"/>
     <use xlink:href="#DejaVuSans-65" x="1627.982422"/>
     <use xlink:href="#DejaVuSans-6e" x="1689.505859"/>
     <use xlink:href="#DejaVuSans-65" x="1752.884766"/>
    </g>
   </g>
  </g>
 </g>
 <defs>
  <clipPath id="paf53cb5f83">
   <rect x="63.56" y="26.88" width="386.44" height="276.76"/>
  </clipPath>
 </defs>
</svg>
