<?xml version="1.0" encoding="utf-8" standalone="no"?>
<!DOCTYPE svg PUBLIC "-//W3C//DTD SVG 1.1//EN"
  "http://www.w3.org/Graphics/SVG/1.1/DTD/svg11.dtd">
<svg xmlns:xlink="http://www.w3.org/1999/xlink" width="864pt" height="432pt" viewBox="0 0 864 432" xmlns="http://www.w3.org/2000/svg" version="1.1">
 <metadata>
  <rdf:RDF xmlns:dc="http://purl.org/dc/elements/1.1/" xmlns:cc="http://creativecommons.org/ns#" xmlns:rdf="http://www.w3.org/1999/02/22-rdf-syntax-ns#">
   <cc:Work>
    <dc:type rdf:resource="http://purl.org/dc/dcmitype/StillImage"/>
    <dc:date>2025-11-25T11:44:04.100682</dc:date>
    <dc:format>image/svg+xml</dc:format>
    <dc:creator>
     <cc:Agent>
      <dc:title>Matplotlib v3.8.4, https://matplotlib.org/</dc:title>
     </cc:Agent>
    </dc:creator>
   </cc:Work>
  </rdf:RDF>
 </metadata>
 <defs>
  <style type="text/css">*{stroke-linejoin: round; stroke-linecap: butt}</style>
 </defs>
 <g id="figure_1">
  <g id="patch_1">
   <path d="M 0 432 
L 864 432 
L 864 0 
L 0 0 
z
" style="fill: #ffffff"/>
  </g>
  <g id="axes_1">
   <g id="patch_2">
    <path d="M 47.72 390.04 
L 853.2 390.04 
L 853.2 26.88 
L 47.72 26.88 
z
" style="fill: #ffffff"/>
   </g>
   <g id="patch_3">
    <path d="M 283.132046 390.04 
L 283.132046 26.88 
L 421.481416 26.88 
L 421.481416 390.04 
z
" clip-path="url(#pe14d956c5c)" style="fill: #808080; opacity: 0.3; stroke: #808080; stroke-linejoin: miter"/>
   </g>
   <g id="matplotlib.axis_1">
    <g id="xtick_1">
     <g id="line2d_1">
      <defs>
       <path id="m5a10e9fdf9" d="M 0 0 
L 0 3.5 
" style="stroke: #000000; stroke-width: 0.8"/>
      </defs>
      <g>
       <use xlink:href="#m5a10e9fdf9" x="84.332727" y="390.04" style="stroke: #000000; stroke-width: 0.8"/>
      </g>
     </g>
     <g id="text_1">
      <!-- 0 -->
      <g transform="translate(81.151477 404.638438) scale(0.1 -0.1)">
       <defs>
        <path id="DejaVuSans-30" d="M 2034 4250 
Q 1547 4250 1301 3770 
Q 1056 3291 1056 2328 
Q 1056 1369 1301 889 
Q 1547 409 2034 409 
Q 2525 409 2770 889 
Q 3016 1369 3016 2328 
Q 3016 3291 2770 3770 
Q 2525 4250 2034 4250 
z
M 2034 4750 
Q 2819 4750 3233 4129 
Q 3647 3509 3647 2328 
Q 3647 1150 3233 529 
Q 2819 -91 2034 -91 
Q 1250 -91 836 529 
Q 422 1150 422 2328 
Q 422 3509 836 4129 
Q 1250 4750 2034 4750 
z
" transform="scale(0.015625)"/>
       </defs>
       <use xlink:href="#DejaVuSans-30"/>
      </g>
     </g>
    </g>
    <g id="xtick_2">
     <g id="line2d_2">
      <g>
       <use xlink:href="#m5a10e9fdf9" x="208.971799" y="390.04" style="stroke: #000000; stroke-width: 0.8"/>
      </g>
     </g>
     <g id="text_2">
      <!-- 200 -->
      <g transform="translate(199.428049 404.638438) scale(0.1 -0.1)">
       <defs>
        <path id="DejaVuSans-32" d="M 1228 531 
L 3431 531 
L 3431 0 
L 469 0 
L 469 531 
Q 828 903 1448 1529 
Q 2069 2156 2228 2338 
Q 2531 2678 2651 2914 
Q 2772 3150 2772 3378 
Q 2772 3750 2511 3984 
Q 2250 4219 1831 4219 
Q 1534 4219 1204 4116 
Q 875 4013 500 3803 
L 500 4441 
Q 881 4594 1212 4672 
Q 1544 4750 1819 4750 
Q 2544 4750 2975 4387 
Q 3406 4025 3406 3419 
Q 3406 3131 3298 2873 
Q 3191 2616 2906 2266 
Q 2828 2175 2409 1742 
Q 1991 1309 1228 531 
z
" transform="scale(0.015625)"/>
       </defs>
       <use xlink:href="#DejaVuSans-32"/>
       <use xlink:href="#DejaVuSans-30" x="63.623047"/>
       <use xlink:href="#DejaVuSans-30" x="127.246094"/>
      </g>
     </g>
    </g>
    <g id="xtick_3">
     <g id="line2d_3">
      <g>
       <use xlink:href="#m5a10e9fdf9" x="333.61087" y="390.04" style="stroke: #000000; stroke-width: 0.8"/>
      </g>
     </g>
     <g id="text_3">
      <!-- 400 -->
      <g transform="translate(324.06712 404.638438) scale(0.1 -0.1)">
       <defs>
        <path id="DejaVuSans-34" d="M 2419 4116 
L 825 1625 
L 2419 1625 
L 2419 4116 
z
M 2253 4666 
L 3047 4666 
L 3047 1625 
L 3713 1625 
L 3713 1100 
L 3047 1100 
L 3047 0 
L 2419 0 
L 2419 1100 
L 313 1100 
L 313 1709 
L 2253 4666 
z
" transform="scale(0.015625)"/>
       </defs>
       <use xlink:href="#DejaVuSans-34"/>
       <use xlink:href="#DejaVuSans-30" x="63.623047"/>
       <use xlink:href="#DejaVuSans-30" x="127.246094"/>
      </g>
     </g>
    </g>
    <g id="xtick_4">
     <g id="line2d_4">
      <g>
       <use xlink:href="#m5a10e9fdf9" x="458.249942" y="390.04" style="stroke: #000000; stroke-width: 0.8"/>
      </g>
     </g>
     <g id="text_4">
      <!-- 600 -->
      <g transform="translate(448.706192 404.638438) scale(0.1 -0.1)">
       <defs>
        <path id="DejaVuSans-36" d="M 2113 2584 
Q 1688 2584 1439 2293 
Q 1191 2003 1191 1497 
Q 1191 994 1439 701 
Q 1688 409 2113 409 
Q 2538 409 2786 701 
Q 3034 994 3034 1497 
Q 3034 2003 2786 2293 
Q 2538 2584 2113 2584 
z
M 3366 4563 
L 3366 3988 
Q 3128 4100 2886 4159 
Q 2644 4219 2406 4219 
Q 1781 4219 1451 3797 
Q 1122 3375 1075 2522 
Q 1259 2794 1537 2939 
Q 1816 3084 2150 3084 
Q 2853 3084 3261 2657 
Q 3669 2231 3669 1497 
Q 3669 778 3244 343 
Q 2819 -91 2113 -91 
Q 1303 -91 875 529 
Q 447 1150 447 2328 
Q 447 3434 972 4092 
Q 1497 4750 2381 4750 
Q 2619 4750 2861 4703 
Q 3103 4656 3366 4563 
z
" transform="scale(0.015625)"/>
       </defs>
       <use xlink:href="#DejaVuSans-36"/>
       <use xlink:href="#DejaVuSans-30" x="63.623047"/>
       <use xlink:href="#DejaVuSans-30" x="127.246094"/>
      </g>
     </g>
    </g>
    <g id="xtick_5">
     <g id="line2d_5">
      <g>
       <use xlink:href="#m5a10e9fdf9" x="582.889014" y="390.04" style="stroke: #000000; stroke-width: 0.8"/>
      </g>
     </g>
     <g id="text_5">
      <!-- 800 -->
      <g transform="translate(573.345264 404.638438) scale(0.1 -0.1)">
       <defs>
        <path id="DejaVuSans-38" d="M 2034 2216 
Q 1584 2216 1326 1975 
Q 1069 1734 1069 1313 
Q 1069 891 1326 650 
Q 1584 409 2034 409 
Q 2484 409 2743 651 
Q 3003 894 3003 1313 
Q 3003 1734 2745 1975 
Q 2488 2216 2034 2216 
z
M 1403 2484 
Q 997 2584 770 2862 
Q 544 3141 544 3541 
Q 544 4100 942 4425 
Q 1341 4750 2034 4750 
Q 2731 4750 3128 4425 
Q 3525 4100 3525 3541 
Q 3525 3141 3298 2862 
Q 3072 2584 2669 2484 
Q 3125 2378 3379 2068 
Q 3634 1759 3634 1313 
Q 3634 634 3220 271 
Q 2806 -91 2034 -91 
Q 1263 -91 848 271 
Q 434 634 434 1313 
Q 434 1759 690 2068 
Q 947 2378 1403 2484 
z
M 1172 3481 
Q 1172 3119 1398 2916 
Q 1625 2713 2034 2713 
Q 2441 2713 2670 2916 
Q 2900 3119 2900 3481 
Q 2900 3844 2670 4047 
Q 2441 4250 2034 4250 
Q 1625 4250 1398 4047 
Q 1172 3844 1172 3481 
z
" transform="scale(0.015625)"/>
       </defs>
       <use xlink:href="#DejaVuSans-38"/>
       <use xlink:href="#DejaVuSans-30" x="63.623047"/>
       <use xlink:href="#DejaVuSans-30" x="127.246094"/>
      </g>
     </g>
    </g>
    <g id="xtick_6">
     <g id="line2d_6">
      <g>
       <use xlink:href="#m5a10e9fdf9" x="707.528085" y="390.04" style="stroke: #000000; stroke-width: 0.8"/>
      </g>
     </g>
     <g id="text_6">
      <!-- 1000 -->
      <g transform="translate(694.803085 404.638438) scale(0.1 -0.1)">
       <defs>
        <path id="DejaVuSans-31" d="M 794 531 
L 1825 531 
L 1825 4091 
L 703 3866 
L 703 4441 
L 1819 4666 
L 2450 4666 
L 2450 531 
L 3481 531 
L 3481 0 
L 794 0 
L 794 531 
z
" transform="scale(0.015625)"/>
       </defs>
       <use xlink:href="#DejaVuSans-31"/>
       <use xlink:href="#DejaVuSans-30" x="63.623047"/>
       <use xlink:href="#DejaVuSans-30" x="127.246094"/>
       <use xlink:href="#DejaVuSans-30" x="190.869141"/>
      </g>
     </g>
    </g>
    <g id="xtick_7">
     <g id="line2d_7">
      <g>
       <use xlink:href="#m5a10e9fdf9" x="832.167157" y="390.04" style="stroke: #000000; stroke-width: 0.8"/>
      </g>
     </g>
     <g id="text_7">
      <!-- 1200 -->
      <g transform="translate(819.442157 404.638438) scale(0.1 -0.1)">
       <use xlink:href="#DejaVuSans-31"/>
       <use xlink:href="#DejaVuSans-32" x="63.623047"/>
       <use xlink:href="#DejaVuSans-30" x="127.246094"/>
       <use xlink:href="#DejaVuSans-30" x="190.869141"/>
      </g>
     </g>
    </g>
    <g id="text_8">
     <!-- Amino acid position (aligned index) -->
     <g transform="translate(361.996719 418.316562) scale(0.1 -0.1)">
      <defs>
       <path id="DejaVuSans-41" d="M 2188 4044 
L 1331 1722 
L 3047 1722 
L 2188 4044 
z
M 1831 4666 
L 2547 4666 
L 4325 0 
L 3669 0 
L 3244 1197 
L 1141 1197 
L 716 0 
L 50 0 
L 1831 4666 
z
" transform="scale(0.015625)"/>
       <path id="DejaVuSans-6d" d="M 3328 2828 
Q 3544 3216 3844 3400 
Q 4144 3584 4550 3584 
Q 5097 3584 5394 3201 
Q 5691 2819 5691 2113 
L 5691 0 
L 5113 0 
L 5113 2094 
Q 5113 2597 4934 2840 
Q 4756 3084 4391 3084 
Q 3944 3084 3684 2787 
Q 3425 2491 3425 1978 
L 3425 0 
L 2847 0 
L 2847 2094 
Q 2847 2600 2669 2842 
Q 2491 3084 2119 3084 
Q 1678 3084 1418 2786 
Q 1159 2488 1159 1978 
L 1159 0 
L 581 0 
L 581 3500 
L 1159 3500 
L 1159 2956 
Q 1356 3278 1631 3431 
Q 1906 3584 2284 3584 
Q 2666 3584 2933 3390 
Q 3200 3197 3328 2828 
z
" transform="scale(0.015625)"/>
       <path id="DejaVuSans-69" d="M 603 3500 
L 1178 3500 
L 1178 0 
L 603 0 
L 603 3500 
z
M 603 4863 
L 1178 4863 
L 1178 4134 
L 603 4134 
L 603 4863 
z
" transform="scale(0.015625)"/>
       <path id="DejaVuSans-6e" d="M 3513 2113 
L 3513 0 
L 2938 0 
L 2938 2094 
Q 2938 2591 2744 2837 
Q 2550 3084 2163 3084 
Q 1697 3084 1428 2787 
Q 1159 2491 1159 1978 
L 1159 0 
L 581 0 
L 581 3500 
L 1159 3500 
L 1159 2956 
Q 1366 3272 1645 3428 
Q 1925 3584 2291 3584 
Q 2894 3584 3203 3211 
Q 3513 2838 3513 2113 
z
" transform="scale(0.015625)"/>
       <path id="DejaVuSans-6f" d="M 1959 3097 
Q 1497 3097 1228 2736 
Q 959 2375 959 1747 
Q 959 1119 1226 758 
Q 1494 397 1959 397 
Q 2419 397 2687 759 
Q 2956 1122 2956 1747 
Q 2956 2369 2687 2733 
Q 2419 3097 1959 3097 
z
M 1959 3584 
Q 2709 3584 3137 3096 
Q 3566 2609 3566 1747 
Q 3566 888 3137 398 
Q 2709 -91 1959 -91 
Q 1206 -91 779 398 
Q 353 888 353 1747 
Q 353 2609 779 3096 
Q 1206 3584 1959 3584 
z
" transform="scale(0.015625)"/>
       <path id="DejaVuSans-20" transform="scale(0.015625)"/>
       <path id="DejaVuSans-61" d="M 2194 1759 
Q 1497 1759 1228 1600 
Q 959 1441 959 1056 
Q 959 750 1161 570 
Q 1363 391 1709 391 
Q 2188 391 2477 730 
Q 2766 1069 2766 1631 
L 2766 1759 
L 2194 1759 
z
M 3341 1997 
L 3341 0 
L 2766 0 
L 2766 531 
Q 2569 213 2275 61 
Q 1981 -91 1556 -91 
Q 1019 -91 701 211 
Q 384 513 384 1019 
Q 384 1609 779 1909 
Q 1175 2209 1959 2209 
L 2766 2209 
L 2766 2266 
Q 2766 2663 2505 2880 
Q 2244 3097 1772 3097 
Q 1472 3097 1187 3025 
Q 903 2953 641 2809 
L 641 3341 
Q 956 3463 1253 3523 
Q 1550 3584 1831 3584 
Q 2591 3584 2966 3190 
Q 3341 2797 3341 1997 
z
" transform="scale(0.015625)"/>
       <path id="DejaVuSans-63" d="M 3122 3366 
L 3122 2828 
Q 2878 2963 2633 3030 
Q 2388 3097 2138 3097 
Q 1578 3097 1268 2742 
Q 959 2388 959 1747 
Q 959 1106 1268 751 
Q 1578 397 2138 397 
Q 2388 397 2633 464 
Q 2878 531 3122 666 
L 3122 134 
Q 2881 22 2623 -34 
Q 2366 -91 2075 -91 
Q 1284 -91 818 406 
Q 353 903 353 1747 
Q 353 2603 823 3093 
Q 1294 3584 2113 3584 
Q 2378 3584 2631 3529 
Q 2884 3475 3122 3366 
z
" transform="scale(0.015625)"/>
       <path id="DejaVuSans-64" d="M 2906 2969 
L 2906 4863 
L 3481 4863 
L 3481 0 
L 2906 0 
L 2906 525 
Q 2725 213 2448 61 
Q 2172 -91 1784 -91 
Q 1150 -91 751 415 
Q 353 922 353 1747 
Q 353 2572 751 3078 
Q 1150 3584 1784 3584 
Q 2172 3584 2448 3432 
Q 2725 3281 2906 2969 
z
M 947 1747 
Q 947 1113 1208 752 
Q 1469 391 1925 391 
Q 2381 391 2643 752 
Q 2906 1113 2906 1747 
Q 2906 2381 2643 2742 
Q 2381 3103 1925 3103 
Q 1469 3103 1208 2742 
Q 947 2381 947 1747 
z
" transform="scale(0.015625)"/>
       <path id="DejaVuSans-70" d="M 1159 525 
L 1159 -1331 
L 581 -1331 
L 581 3500 
L 1159 3500 
L 1159 2969 
Q 1341 3281 1617 3432 
Q 1894 3584 2278 3584 
Q 2916 3584 3314 3078 
Q 3713 2572 3713 1747 
Q 3713 922 3314 415 
Q 2916 -91 2278 -91 
Q 1894 -91 1617 61 
Q 1341 213 1159 525 
z
M 3116 1747 
Q 3116 2381 2855 2742 
Q 2594 3103 2138 3103 
Q 1681 3103 1420 2742 
Q 1159 2381 1159 1747 
Q 1159 1113 1420 752 
Q 1681 391 2138 391 
Q 2594 391 2855 752 
Q 3116 1113 3116 1747 
z
" transform="scale(0.015625)"/>
       <path id="DejaVuSans-73" d="M 2834 3397 
L 2834 2853 
Q 2591 2978 2328 3040 
Q 2066 3103 1784 3103 
Q 1356 3103 1142 2972 
Q 928 2841 928 2578 
Q 928 2378 1081 2264 
Q 1234 2150 1697 2047 
L 1894 2003 
Q 2506 1872 2764 1633 
Q 3022 1394 3022 966 
Q 3022 478 2636 193 
Q 2250 -91 1575 -91 
Q 1294 -91 989 -36 
Q 684 19 347 128 
L 347 722 
Q 666 556 975 473 
Q 1284 391 1588 391 
Q 1994 391 2212 530 
Q 2431 669 2431 922 
Q 2431 1156 2273 1281 
Q 2116 1406 1581 1522 
L 1381 1569 
Q 847 1681 609 1914 
Q 372 2147 372 2553 
Q 372 3047 722 3315 
Q 1072 3584 1716 3584 
Q 2034 3584 2315 3537 
Q 2597 3491 2834 3397 
z
" transform="scale(0.015625)"/>
       <path id="DejaVuSans-74" d="M 1172 4494 
L 1172 3500 
L 2356 3500 
L 2356 3053 
L 1172 3053 
L 1172 1153 
Q 1172 725 1289 603 
Q 1406 481 1766 481 
L 2356 481 
L 2356 0 
L 1766 0 
Q 1100 0 847 248 
Q 594 497 594 1153 
L 594 3053 
L 172 3053 
L 172 3500 
L 594 3500 
L 594 4494 
L 1172 4494 
z
" transform="scale(0.015625)"/>
       <path id="DejaVuSans-28" d="M 1984 4856 
Q 1566 4138 1362 3434 
Q 1159 2731 1159 2009 
Q 1159 1288 1364 580 
Q 1569 -128 1984 -844 
L 1484 -844 
Q 1016 -109 783 600 
Q 550 1309 550 2009 
Q 550 2706 781 3412 
Q 1013 4119 1484 4856 
L 1984 4856 
z
" transform="scale(0.015625)"/>
       <path id="DejaVuSans-6c" d="M 603 4863 
L 1178 4863 
L 1178 0 
L 603 0 
L 603 4863 
z
" transform="scale(0.015625)"/>
       <path id="DejaVuSans-67" d="M 2906 1791 
Q 2906 2416 2648 2759 
Q 2391 3103 1925 3103 
Q 1463 3103 1205 2759 
Q 947 2416 947 1791 
Q 947 1169 1205 825 
Q 1463 481 1925 481 
Q 2391 481 2648 825 
Q 2906 1169 2906 1791 
z
M 3481 434 
Q 3481 -459 3084 -895 
Q 2688 -1331 1869 -1331 
Q 1566 -1331 1297 -1286 
Q 1028 -1241 775 -1147 
L 775 -588 
Q 1028 -725 1275 -790 
Q 1522 -856 1778 -856 
Q 2344 -856 2625 -561 
Q 2906 -266 2906 331 
L 2906 616 
Q 2728 306 2450 153 
Q 2172 0 1784 0 
Q 1141 0 747 490 
Q 353 981 353 1791 
Q 353 2603 747 3093 
Q 1141 3584 1784 3584 
Q 2172 3584 2450 3431 
Q 2728 3278 2906 2969 
L 2906 3500 
L 3481 3500 
L 3481 434 
z
" transform="scale(0.015625)"/>
       <path id="DejaVuSans-65" d="M 3597 1894 
L 3597 1613 
L 953 1613 
Q 991 1019 1311 708 
Q 1631 397 2203 397 
Q 2534 397 2845 478 
Q 3156 559 3463 722 
L 3463 178 
Q 3153 47 2828 -22 
Q 2503 -91 2169 -91 
Q 1331 -91 842 396 
Q 353 884 353 1716 
Q 353 2575 817 3079 
Q 1281 3584 2069 3584 
Q 2775 3584 3186 3129 
Q 3597 2675 3597 1894 
z
M 3022 2063 
Q 3016 2534 2758 2815 
Q 2500 3097 2075 3097 
Q 1594 3097 1305 2825 
Q 1016 2553 972 2059 
L 3022 2063 
z
" transform="scale(0.015625)"/>
       <path id="DejaVuSans-78" d="M 3513 3500 
L 2247 1797 
L 3578 0 
L 2900 0 
L 1881 1375 
L 863 0 
L 184 0 
L 1544 1831 
L 300 3500 
L 978 3500 
L 1906 2253 
L 2834 3500 
L 3513 3500 
z
" transform="scale(0.015625)"/>
       <path id="DejaVuSans-29" d="M 513 4856 
L 1013 4856 
Q 1481 4119 1714 3412 
Q 1947 2706 1947 2009 
Q 1947 1309 1714 600 
Q 1481 -109 1013 -844 
L 513 -844 
Q 928 -128 1133 580 
Q 1338 1288 1338 2009 
Q 1338 2731 1133 3434 
Q 928 4138 513 4856 
z
" transform="scale(0.015625)"/>
      </defs>
      <use xlink:href="#DejaVuSans-41"/>
      <use xlink:href="#DejaVuSans-6d" x="68.408203"/>
      <use xlink:href="#DejaVuSans-69" x="165.820312"/>
      <use xlink:href="#DejaVuSans-6e" x="193.603516"/>
      <use xlink:href="#DejaVuSans-6f" x="256.982422"/>
      <use xlink:href="#DejaVuSans-20" x="318.164062"/>
      <use xlink:href="#DejaVuSans-61" x="349.951172"/>
      <use xlink:href="#DejaVuSans-63" x="411.230469"/>
      <use xlink:href="#DejaVuSans-69" x="466.210938"/>
      <use xlink:href="#DejaVuSans-64" x="493.994141"/>
      <use xlink:href="#DejaVuSans-20" x="557.470703"/>
      <use xlink:href="#DejaVuSans-70" x="589.257812"/>
      <use xlink:href="#DejaVuSans-6f" x="652.734375"/>
      <use xlink:href="#DejaVuSans-73" x="713.916016"/>
      <use xlink:href="#DejaVuSans-69" x="766.015625"/>
      <use xlink:href="#DejaVuSans-74" x="793.798828"/>
      <use xlink:href="#DejaVuSans-69" x="833.007812"/>
      <use xlink:href="#DejaVuSans-6f" x="860.791016"/>
      <use xlink:href="#DejaVuSans-6e" x="921.972656"/>
      <use xlink:href="#DejaVuSans-20" x="985.351562"/>
      <use xlink:href="#DejaVuSans-28" x="1017.138672"/>
      <use xlink:href="#DejaVuSans-61" x="1056.152344"/>
      <use xlink:href="#DejaVuSans-6c" x="1117.431641"/>
      <use xlink:href="#DejaVuSans-69" x="1145.214844"/>
      <use xlink:href="#DejaVuSans-67" x="1172.998047"/>
      <use xlink:href="#DejaVuSans-6e" x="1236.474609"/>
      <use xlink:href="#DejaVuSans-65" x="1299.853516"/>
      <use xlink:href="#DejaVuSans-64" x="1361.376953"/>
      <use xlink:href="#DejaVuSans-20" x="1424.853516"/>
      <use xlink:href="#DejaVuSans-69" x="1456.640625"/>
      <use xlink:href="#DejaVuSans-6e" x="1484.423828"/>
      <use xlink:href="#DejaVuSans-64" x="1547.802734"/>
      <use xlink:href="#DejaVuSans-65" x="1611.279297"/>
      <use xlink:href="#DejaVuSans-78" x="1671.052734"/>
      <use xlink:href="#DejaVuSans-29" x="1730.232422"/>
     </g>
    </g>
   </g>
   <g id="matplotlib.axis_2">
    <g id="ytick_1">
     <g id="line2d_8">
      <defs>
       <path id="m5ccbca584a" d="M 0 0 
L -3.5 0 
" style="stroke: #000000; stroke-width: 0.8"/>
      </defs>
      <g>
       <use xlink:href="#m5ccbca584a" x="47.72" y="350.499323" style="stroke: #000000; stroke-width: 0.8"/>
      </g>
     </g>
     <g id="text_9">
      <!-- 0.6 -->
      <g transform="translate(24.816875 354.298542) scale(0.1 -0.1)">
       <defs>
        <path id="DejaVuSans-2e" d="M 684 794 
L 1344 794 
L 1344 0 
L 684 0 
L 684 794 
z
" transform="scale(0.015625)"/>
       </defs>
       <use xlink:href="#DejaVuSans-30"/>
       <use xlink:href="#DejaVuSans-2e" x="63.623047"/>
       <use xlink:href="#DejaVuSans-36" x="95.410156"/>
      </g>
     </g>
    </g>
    <g id="ytick_2">
     <g id="line2d_9">
      <g>
       <use xlink:href="#m5ccbca584a" x="47.72" y="273.721311" style="stroke: #000000; stroke-width: 0.8"/>
      </g>
     </g>
     <g id="text_10">
      <!-- 0.7 -->
      <g transform="translate(24.816875 277.52053) scale(0.1 -0.1)">
       <defs>
        <path id="DejaVuSans-37" d="M 525 4666 
L 3525 4666 
L 3525 4397 
L 1831 0 
L 1172 0 
L 2766 4134 
L 525 4134 
L 525 4666 
z
" transform="scale(0.015625)"/>
       </defs>
       <use xlink:href="#DejaVuSans-30"/>
       <use xlink:href="#DejaVuSans-2e" x="63.623047"/>
       <use xlink:href="#DejaVuSans-37" x="95.410156"/>
      </g>
     </g>
    </g>
    <g id="ytick_3">
     <g id="line2d_10">
      <g>
       <use xlink:href="#m5ccbca584a" x="47.72" y="196.943298" style="stroke: #000000; stroke-width: 0.8"/>
      </g>
     </g>
     <g id="text_11">
      <!-- 0.8 -->
      <g transform="translate(24.816875 200.742517) scale(0.1 -0.1)">
       <use xlink:href="#DejaVuSans-30"/>
       <use xlink:href="#DejaVuSans-2e" x="63.623047"/>
       <use xlink:href="#DejaVuSans-38" x="95.410156"/>
      </g>
     </g>
    </g>
    <g id="ytick_4">
     <g id="line2d_11">
      <g>
       <use xlink:href="#m5ccbca584a" x="47.72" y="120.165285" style="stroke: #000000; stroke-width: 0.8"/>
      </g>
     </g>
     <g id="text_12">
      <!-- 0.9 -->
      <g transform="translate(24.816875 123.964504) scale(0.1 -0.1)">
       <defs>
        <path id="DejaVuSans-39" d="M 703 97 
L 703 672 
Q 941 559 1184 500 
Q 1428 441 1663 441 
Q 2288 441 2617 861 
Q 2947 1281 2994 2138 
Q 2813 1869 2534 1725 
Q 2256 1581 1919 1581 
Q 1219 1581 811 2004 
Q 403 2428 403 3163 
Q 403 3881 828 4315 
Q 1253 4750 1959 4750 
Q 2769 4750 3195 4129 
Q 3622 3509 3622 2328 
Q 3622 1225 3098 567 
Q 2575 -91 1691 -91 
Q 1453 -91 1209 -44 
Q 966 3 703 97 
z
M 1959 2075 
Q 2384 2075 2632 2365 
Q 2881 2656 2881 3163 
Q 2881 3666 2632 3958 
Q 2384 4250 1959 4250 
Q 1534 4250 1286 3958 
Q 1038 3666 1038 3163 
Q 1038 2656 1286 2365 
Q 1534 2075 1959 2075 
z
" transform="scale(0.015625)"/>
       </defs>
       <use xlink:href="#DejaVuSans-30"/>
       <use xlink:href="#DejaVuSans-2e" x="63.623047"/>
       <use xlink:href="#DejaVuSans-39" x="95.410156"/>
      </g>
     </g>
    </g>
    <g id="ytick_5">
     <g id="line2d_12">
      <g>
       <use xlink:href="#m5ccbca584a" x="47.72" y="43.387273" style="stroke: #000000; stroke-width: 0.8"/>
      </g>
     </g>
     <g id="text_13">
      <!-- 1.0 -->
      <g transform="translate(24.816875 47.186491) scale(0.1 -0.1)">
       <use xlink:href="#DejaVuSans-31"/>
       <use xlink:href="#DejaVuSans-2e" x="63.623047"/>
       <use xlink:href="#DejaVuSans-30" x="95.410156"/>
      </g>
     </g>
    </g>
    <g id="text_14">
     <!-- Fraction of matching amino acids (windowed) -->
     <g transform="translate(18.737188 322.383438) rotate(-90) scale(0.1 -0.1)">
      <defs>
       <path id="DejaVuSans-46" d="M 628 4666 
L 3309 4666 
L 3309 4134 
L 1259 4134 
L 1259 2759 
L 3109 2759 
L 3109 2228 
L 1259 2228 
L 1259 0 
L 628 0 
L 628 4666 
z
" transform="scale(0.015625)"/>
       <path id="DejaVuSans-72" d="M 2631 2963 
Q 2534 3019 2420 3045 
Q 2306 3072 2169 3072 
Q 1681 3072 1420 2755 
Q 1159 2438 1159 1844 
L 1159 0 
L 581 0 
L 581 3500 
L 1159 3500 
L 1159 2956 
Q 1341 3275 1631 3429 
Q 1922 3584 2338 3584 
Q 2397 3584 2469 3576 
Q 2541 3569 2628 3553 
L 2631 2963 
z
" transform="scale(0.015625)"/>
       <path id="DejaVuSans-66" d="M 2375 4863 
L 2375 4384 
L 1825 4384 
Q 1516 4384 1395 4259 
Q 1275 4134 1275 3809 
L 1275 3500 
L 2222 3500 
L 2222 3053 
L 1275 3053 
L 1275 0 
L 697 0 
L 697 3053 
L 147 3053 
L 147 3500 
L 697 3500 
L 697 3744 
Q 697 4328 969 4595 
Q 1241 4863 1831 4863 
L 2375 4863 
z
" transform="scale(0.015625)"/>
       <path id="DejaVuSans-68" d="M 3513 2113 
L 3513 0 
L 2938 0 
L 2938 2094 
Q 2938 2591 2744 2837 
Q 2550 3084 2163 3084 
Q 1697 3084 1428 2787 
Q 1159 2491 1159 1978 
L 1159 0 
L 581 0 
L 581 4863 
L 1159 4863 
L 1159 2956 
Q 1366 3272 1645 3428 
Q 1925 3584 2291 3584 
Q 2894 3584 3203 3211 
Q 3513 2838 3513 2113 
z
" transform="scale(0.015625)"/>
       <path id="DejaVuSans-77" d="M 269 3500 
L 844 3500 
L 1563 769 
L 2278 3500 
L 2956 3500 
L 3675 769 
L 4391 3500 
L 4966 3500 
L 4050 0 
L 3372 0 
L 2619 2869 
L 1863 0 
L 1184 0 
L 269 3500 
z
" transform="scale(0.015625)"/>
      </defs>
      <use xlink:href="#DejaVuSans-46"/>
      <use xlink:href="#DejaVuSans-72" x="50.269531"/>
      <use xlink:href="#DejaVuSans-61" x="91.382812"/>
      <use xlink:href="#DejaVuSans-63" x="152.662109"/>
      <use xlink:href="#DejaVuSans-74" x="207.642578"/>
      <use xlink:href="#DejaVuSans-69" x="246.851562"/>
      <use xlink:href="#DejaVuSans-6f" x="274.634766"/>
      <use xlink:href="#DejaVuSans-6e" x="335.816406"/>
      <use xlink:href="#DejaVuSans-20" x="399.195312"/>
      <use xlink:href="#DejaVuSans-6f" x="430.982422"/>
      <use xlink:href="#DejaVuSans-66" x="492.164062"/>
      <use xlink:href="#DejaVuSans-20" x="527.369141"/>
      <use xlink:href="#DejaVuSans-6d" x="559.15625"/>
      <use xlink:href="#DejaVuSans-61" x="656.568359"/>
      <use xlink:href="#DejaVuSans-74" x="717.847656"/>
      <use xlink:href="#DejaVuSans-63" x="757.056641"/>
      <use xlink:href="#DejaVuSans-68" x="812.037109"/>
      <use xlink:href="#DejaVuSans-69" x="875.416016"/>
      <use xlink:href="#DejaVuSans-6e" x="903.199219"/>
      <use xlink:href="#DejaVuSans-67" x="966.578125"/>
      <use xlink:href="#DejaVuSans-20" x="1030.054688"/>
      <use xlink:href="#DejaVuSans-61" x="1061.841797"/>
      <use xlink:href="#DejaVuSans-6d" x="1123.121094"/>
      <use xlink:href="#DejaVuSans-69" x="1220.533203"/>
      <use xlink:href="#DejaVuSans-6e" x="1248.316406"/>
      <use xlink:href="#DejaVuSans-6f" x="1311.695312"/>
      <use xlink:href="#DejaVuSans-20" x="1372.876953"/>
      <use xlink:href="#DejaVuSans-61" x="1404.664062"/>
      <use xlink:href="#DejaVuSans-63" x="1465.943359"/>
      <use xlink:href="#DejaVuSans-69" x="1520.923828"/>
      <use xlink:href="#DejaVuSans-64" x="1548.707031"/>
      <use xlink:href="#DejaVuSans-73" x="1612.183594"/>
      <use xlink:href="#DejaVuSans-20" x="1664.283203"/>
      <use xlink:href="#DejaVuSans-28" x="1696.070312"/>
      <use xlink:href="#DejaVuSans-77" x="1735.083984"/>
      <use xlink:href="#DejaVuSans-69" x="1816.871094"/>
      <use xlink:href="#DejaVuSans-6e" x="1844.654297"/>
      <use xlink:href="#DejaVuSans-64" x="1908.033203"/>
      <use xlink:href="#DejaVuSans-6f" x="1971.509766"/>
      <use xlink:href="#DejaVuSans-77" x="2032.691406"/>
      <use xlink:href="#DejaVuSans-65" x="2114.478516"/>
      <use xlink:href="#DejaVuSans-64" x="2176.001953"/>
      <use xlink:href="#DejaVuSans-29" x="2239.478516"/>
     </g>
    </g>
   </g>
   <g id="line2d_13">
    <path d="M 84.332727 66.420677 
L 103.651783 66.420677 
L 104.274979 58.742875 
L 114.8693 58.742875 
L 115.492495 51.065074 
L 131.072379 51.065074 
L 131.695574 43.387273 
L 157.246584 43.387273 
L 157.869779 51.065074 
L 219.56612 51.065074 
L 220.189315 43.387273 
L 223.305292 43.387273 
L 223.928487 51.065074 
L 237.01559 51.065074 
L 237.638785 58.742875 
L 253.218669 58.742875 
L 253.841865 66.420677 
L 272.537725 66.420677 
L 273.160921 74.098478 
L 285.624828 74.098478 
L 286.248023 66.420677 
L 294.972758 66.420677 
L 296.842344 89.45408 
L 297.46554 89.45408 
L 298.088735 97.131882 
L 298.71193 97.131882 
L 299.335126 104.809683 
L 299.958321 97.131882 
L 301.204712 97.131882 
L 301.827907 104.809683 
L 307.436665 104.809683 
L 308.059861 112.487484 
L 315.538205 112.487484 
L 316.1614 104.809683 
L 319.277377 104.809683 
L 319.900573 112.487484 
L 322.393354 112.487484 
L 323.639745 127.843087 
L 324.26294 127.843087 
L 324.886135 135.520888 
L 326.755721 135.520888 
L 327.378917 143.198689 
L 328.625308 143.198689 
L 329.871698 158.554292 
L 331.741284 158.554292 
L 332.36448 166.232093 
L 333.61087 166.232093 
L 334.234066 173.909894 
L 334.857261 173.909894 
L 335.480456 166.232093 
L 336.103652 166.232093 
L 336.726847 173.909894 
L 344.828387 173.909894 
L 345.451582 181.587696 
L 357.292294 181.587696 
L 359.16188 158.554292 
L 359.785075 158.554292 
L 360.408271 150.87649 
L 361.031466 150.87649 
L 361.654662 143.198689 
L 363.524248 143.198689 
L 364.147443 135.520888 
L 369.756201 135.520888 
L 370.379397 127.843087 
L 381.596913 127.843087 
L 382.220108 120.165285 
L 384.71289 120.165285 
L 385.95928 104.809683 
L 386.582476 104.809683 
L 387.205671 97.131882 
L 389.075257 97.131882 
L 389.698453 89.45408 
L 390.944843 89.45408 
L 392.191234 74.098478 
L 394.06082 74.098478 
L 394.684015 66.420677 
L 395.930406 66.420677 
L 396.553602 58.742875 
L 397.799992 58.742875 
L 398.423188 66.420677 
L 399.046383 58.742875 
L 407.147923 58.742875 
L 407.771118 51.065074 
L 445.786035 51.065074 
L 446.40923 58.742875 
L 447.032426 58.742875 
L 448.902012 81.776279 
L 460.119528 81.776279 
L 460.742723 74.098478 
L 508.105571 74.098478 
L 508.728766 66.420677 
L 509.351961 66.420677 
L 511.221547 43.387273 
L 722.484774 43.387273 
L 723.107969 51.065074 
L 784.804309 51.065074 
L 785.427505 43.387273 
L 786.673896 43.387273 
L 787.297091 51.065074 
L 815.340882 51.065074 
L 815.340882 51.065074 
" clip-path="url(#pe14d956c5c)" style="fill: none; stroke: #0000ff; stroke-width: 1.5; stroke-linecap: square"/>
   </g>
   <g id="line2d_14">
    <path d="M 84.332727 373.532727 
L 84.955923 373.532727 
L 85.579118 365.854926 
L 86.202313 373.532727 
L 86.825509 365.854926 
L 87.448704 365.854926 
L 90.564681 327.46592 
L 91.811072 327.46592 
L 92.434267 319.788118 
L 94.303853 342.821522 
L 96.796634 342.821522 
L 97.41983 335.143721 
L 98.043025 335.143721 
L 100.535807 304.432516 
L 101.159002 304.432516 
L 101.782197 296.754715 
L 104.274979 296.754715 
L 104.898174 289.076913 
L 108.014151 289.076913 
L 108.637346 296.754715 
L 110.506932 296.754715 
L 111.130128 289.076913 
L 112.376518 304.432516 
L 112.999714 304.432516 
L 114.246104 289.076913 
L 114.8693 296.754715 
L 116.738886 273.721311 
L 117.362081 281.399112 
L 117.985277 273.721311 
L 118.608472 273.721311 
L 119.854863 289.076913 
L 123.594035 289.076913 
L 124.21723 281.399112 
L 124.840426 289.076913 
L 125.463621 289.076913 
L 126.086816 281.399112 
L 126.710012 281.399112 
L 129.825988 243.010106 
L 130.449184 243.010106 
L 131.072379 250.687907 
L 131.695574 250.687907 
L 132.31877 243.010106 
L 132.941965 243.010106 
L 133.565161 250.687907 
L 134.811551 250.687907 
L 135.434747 258.365708 
L 136.681137 258.365708 
L 137.304333 266.04351 
L 139.797114 266.04351 
L 140.420309 273.721311 
L 141.043505 273.721311 
L 141.6667 266.04351 
L 143.536286 266.04351 
L 144.159482 258.365708 
L 144.782677 266.04351 
L 145.405872 266.04351 
L 146.029068 273.721311 
L 147.898654 273.721311 
L 148.521849 266.04351 
L 151.637826 266.04351 
L 152.261021 273.721311 
L 153.507412 273.721311 
L 154.130607 281.399112 
L 156.623389 281.399112 
L 157.246584 289.076913 
L 158.492975 289.076913 
L 159.11617 296.754715 
L 164.101733 296.754715 
L 164.724928 289.076913 
L 165.971319 304.432516 
L 166.594515 304.432516 
L 167.21771 312.110317 
L 167.840905 304.432516 
L 171.580077 304.432516 
L 172.203273 312.110317 
L 172.826468 304.432516 
L 173.449663 304.432516 
L 174.072859 296.754715 
L 174.696054 296.754715 
L 175.31925 304.432516 
L 177.188836 304.432516 
L 179.058422 327.46592 
L 179.681617 319.788118 
L 180.304812 327.46592 
L 182.174398 327.46592 
L 182.797594 335.143721 
L 183.420789 335.143721 
L 184.043985 327.46592 
L 184.66718 327.46592 
L 186.536766 350.499323 
L 187.783157 335.143721 
L 191.522329 335.143721 
L 192.145524 342.821522 
L 192.76872 342.821522 
L 194.01511 327.46592 
L 195.261501 327.46592 
L 195.884696 319.788118 
L 196.507892 327.46592 
L 197.754282 312.110317 
L 199.000673 312.110317 
L 199.623868 304.432516 
L 200.247064 304.432516 
L 200.870259 296.754715 
L 201.493455 296.754715 
L 202.739845 281.399112 
L 206.479017 281.399112 
L 207.102213 273.721311 
L 207.725408 273.721311 
L 208.348603 266.04351 
L 208.971799 266.04351 
L 209.594994 273.721311 
L 213.334166 273.721311 
L 213.957362 281.399112 
L 214.580557 273.721311 
L 215.826948 273.721311 
L 216.450143 266.04351 
L 217.073338 266.04351 
L 219.56612 235.332304 
L 220.812511 235.332304 
L 221.435706 227.654503 
L 227.044464 227.654503 
L 228.290855 212.298901 
L 228.91405 212.298901 
L 229.537246 204.621099 
L 232.653222 204.621099 
L 233.276418 196.943298 
L 233.899613 196.943298 
L 234.522809 189.265497 
L 236.392395 189.265497 
L 237.638785 173.909894 
L 238.261981 173.909894 
L 238.885176 181.587696 
L 241.377957 150.87649 
L 242.001153 150.87649 
L 245.11713 112.487484 
L 246.986716 112.487484 
L 248.856302 89.45408 
L 253.841865 89.45408 
L 254.46506 81.776279 
L 255.088255 89.45408 
L 256.957841 89.45408 
L 257.581037 81.776279 
L 258.204232 81.776279 
L 258.827427 74.098478 
L 271.291335 74.098478 
L 271.91453 66.420677 
L 273.160921 66.420677 
L 273.784116 74.098478 
L 275.653702 74.098478 
L 276.276897 66.420677 
L 282.508851 66.420677 
L 283.132046 74.098478 
L 300.581516 74.098478 
L 301.204712 66.420677 
L 316.784596 66.420677 
L 317.407791 58.742875 
L 332.987675 58.742875 
L 333.61087 66.420677 
L 335.480456 66.420677 
L 336.103652 58.742875 
L 344.828387 58.742875 
L 345.451582 51.065074 
L 346.074778 51.065074 
L 346.697973 58.742875 
L 352.306731 58.742875 
L 352.929926 66.420677 
L 369.133006 66.420677 
L 369.756201 74.098478 
L 395.307211 74.098478 
L 395.930406 66.420677 
L 408.394313 66.420677 
L 409.017509 58.742875 
L 414.626267 58.742875 
L 415.249462 51.065074 
L 431.452542 51.065074 
L 432.075737 43.387273 
L 433.322128 43.387273 
L 433.945323 51.065074 
L 447.032426 51.065074 
L 447.655621 58.742875 
L 448.278816 58.742875 
L 450.148402 81.776279 
L 451.394793 81.776279 
L 452.017988 89.45408 
L 453.264379 89.45408 
L 453.887574 97.131882 
L 463.8587 97.131882 
L 464.481896 104.809683 
L 488.163319 104.809683 
L 488.786515 112.487484 
L 495.641663 112.487484 
L 496.264859 104.809683 
L 509.351961 104.809683 
L 509.975157 97.131882 
L 510.598352 97.131882 
L 512.467938 74.098478 
L 513.714329 74.098478 
L 514.337524 66.420677 
L 515.583915 66.420677 
L 516.20711 58.742875 
L 526.178236 58.742875 
L 526.801431 51.065074 
L 550.482855 51.065074 
L 551.10605 43.387273 
L 689.45542 43.387273 
L 690.078615 51.065074 
L 694.440983 51.065074 
L 695.064178 58.742875 
L 698.180155 58.742875 
L 698.80335 66.420677 
L 723.731164 66.420677 
L 724.35436 74.098478 
L 751.774956 74.098478 
L 752.398151 66.420677 
L 756.760518 66.420677 
L 757.383714 58.742875 
L 760.499691 58.742875 
L 761.122886 51.065074 
L 786.0507 51.065074 
L 786.673896 43.387273 
L 787.920286 43.387273 
L 788.543482 51.065074 
L 816.587273 51.065074 
L 816.587273 51.065074 
" clip-path="url(#pe14d956c5c)" style="fill: none; stroke: #ffa500; stroke-width: 1.5; stroke-linecap: square"/>
   </g>
   <g id="patch_4">
    <path d="M 47.72 390.04 
L 47.72 26.88 
" style="fill: none; stroke: #000000; stroke-width: 0.8; stroke-linejoin: miter; stroke-linecap: square"/>
   </g>
   <g id="patch_5">
    <path d="M 853.2 390.04 
L 853.2 26.88 
" style="fill: none; stroke: #000000; stroke-width: 0.8; stroke-linejoin: miter; stroke-linecap: square"/>
   </g>
   <g id="patch_6">
    <path d="M 47.72 390.04 
L 853.2 390.04 
" style="fill: none; stroke: #000000; stroke-width: 0.8; stroke-linejoin: miter; stroke-linecap: square"/>
   </g>
   <g id="patch_7">
    <path d="M 47.72 26.88 
L 853.2 26.88 
" style="fill: none; stroke: #000000; stroke-width: 0.8; stroke-linejoin: miter; stroke-linecap: square"/>
   </g>
   <g id="text_15">
    <!-- SARS-CoV-2 Spike Similarity — Sliding Window (window=100) -->
    <g transform="translate(264.843438 20.88) scale(0.12 -0.12)">
     <defs>
      <path id="DejaVuSans-53" d="M 3425 4513 
L 3425 3897 
Q 3066 4069 2747 4153 
Q 2428 4238 2131 4238 
Q 1616 4238 1336 4038 
Q 1056 3838 1056 3469 
Q 1056 3159 1242 3001 
Q 1428 2844 1947 2747 
L 2328 2669 
Q 3034 2534 3370 2195 
Q 3706 1856 3706 1288 
Q 3706 609 3251 259 
Q 2797 -91 1919 -91 
Q 1588 -91 1214 -16 
Q 841 59 441 206 
L 441 856 
Q 825 641 1194 531 
Q 1563 422 1919 422 
Q 2459 422 2753 634 
Q 3047 847 3047 1241 
Q 3047 1584 2836 1778 
Q 2625 1972 2144 2069 
L 1759 2144 
Q 1053 2284 737 2584 
Q 422 2884 422 3419 
Q 422 4038 858 4394 
Q 1294 4750 2059 4750 
Q 2388 4750 2728 4690 
Q 3069 4631 3425 4513 
z
" transform="scale(0.015625)"/>
      <path id="DejaVuSans-52" d="M 2841 2188 
Q 3044 2119 3236 1894 
Q 3428 1669 3622 1275 
L 4263 0 
L 3584 0 
L 2988 1197 
Q 2756 1666 2539 1819 
Q 2322 1972 1947 1972 
L 1259 1972 
L 1259 0 
L 628 0 
L 628 4666 
L 2053 4666 
Q 2853 4666 3247 4331 
Q 3641 3997 3641 3322 
Q 3641 2881 3436 2590 
Q 3231 2300 2841 2188 
z
M 1259 4147 
L 1259 2491 
L 2053 2491 
Q 2509 2491 2742 2702 
Q 2975 2913 2975 3322 
Q 2975 3731 2742 3939 
Q 2509 4147 2053 4147 
L 1259 4147 
z
" transform="scale(0.015625)"/>
      <path id="DejaVuSans-2d" d="M 313 2009 
L 1997 2009 
L 1997 1497 
L 313 1497 
L 313 2009 
z
" transform="scale(0.015625)"/>
      <path id="DejaVuSans-43" d="M 4122 4306 
L 4122 3641 
Q 3803 3938 3442 4084 
Q 3081 4231 2675 4231 
Q 1875 4231 1450 3742 
Q 1025 3253 1025 2328 
Q 1025 1406 1450 917 
Q 1875 428 2675 428 
Q 3081 428 3442 575 
Q 3803 722 4122 1019 
L 4122 359 
Q 3791 134 3420 21 
Q 3050 -91 2638 -91 
Q 1578 -91 968 557 
Q 359 1206 359 2328 
Q 359 3453 968 4101 
Q 1578 4750 2638 4750 
Q 3056 4750 3426 4639 
Q 3797 4528 4122 4306 
z
" transform="scale(0.015625)"/>
      <path id="DejaVuSans-56" d="M 1831 0 
L 50 4666 
L 709 4666 
L 2188 738 
L 3669 4666 
L 4325 4666 
L 2547 0 
L 1831 0 
z
" transform="scale(0.015625)"/>
      <path id="DejaVuSans-6b" d="M 581 4863 
L 1159 4863 
L 1159 1991 
L 2875 3500 
L 3609 3500 
L 1753 1863 
L 3688 0 
L 2938 0 
L 1159 1709 
L 1159 0 
L 581 0 
L 581 4863 
z
" transform="scale(0.015625)"/>
      <path id="DejaVuSans-79" d="M 2059 -325 
Q 1816 -950 1584 -1140 
Q 1353 -1331 966 -1331 
L 506 -1331 
L 506 -850 
L 844 -850 
Q 1081 -850 1212 -737 
Q 1344 -625 1503 -206 
L 1606 56 
L 191 3500 
L 800 3500 
L 1894 763 
L 2988 3500 
L 3597 3500 
L 2059 -325 
z
" transform="scale(0.015625)"/>
      <path id="DejaVuSans-2014" d="M 313 1978 
L 6088 1978 
L 6088 1528 
L 313 1528 
L 313 1978 
z
" transform="scale(0.015625)"/>
      <path id="DejaVuSans-57" d="M 213 4666 
L 850 4666 
L 1831 722 
L 2809 4666 
L 3519 4666 
L 4500 722 
L 5478 4666 
L 6119 4666 
L 4947 0 
L 4153 0 
L 3169 4050 
L 2175 0 
L 1381 0 
L 213 4666 
z
" transform="scale(0.015625)"/>
      <path id="DejaVuSans-3d" d="M 678 2906 
L 4684 2906 
L 4684 2381 
L 678 2381 
L 678 2906 
z
M 678 1631 
L 4684 1631 
L 4684 1100 
L 678 1100 
L 678 1631 
z
" transform="scale(0.015625)"/>
     </defs>
     <use xlink:href="#DejaVuSans-53"/>
     <use xlink:href="#DejaVuSans-41" x="65.351562"/>
     <use xlink:href="#DejaVuSans-52" x="133.759766"/>
     <use xlink:href="#DejaVuSans-53" x="203.242188"/>
     <use xlink:href="#DejaVuSans-2d" x="266.71875"/>
     <use xlink:href="#DejaVuSans-43" x="302.802734"/>
     <use xlink:href="#DejaVuSans-6f" x="372.626953"/>
     <use xlink:href="#DejaVuSans-56" x="433.808594"/>
     <use xlink:href="#DejaVuSans-2d" x="496.341797"/>
     <use xlink:href="#DejaVuSans-32" x="532.425781"/>
     <use xlink:href="#DejaVuSans-20" x="596.048828"/>
     <use xlink:href="#DejaVuSans-53" x="627.835938"/>
     <use xlink:href="#DejaVuSans-70" x="691.3125"/>
     <use xlink:href="#DejaVuSans-69" x="754.789062"/>
     <use xlink:href="#DejaVuSans-6b" x="782.572266"/>
     <use xlink:href="#DejaVuSans-65" x="836.857422"/>
     <use xlink:href="#DejaVuSans-20" x="898.380859"/>
     <use xlink:href="#DejaVuSans-53" x="930.167969"/>
     <use xlink:href="#DejaVuSans-69" x="993.644531"/>
     <use xlink:href="#DejaVuSans-6d" x="1021.427734"/>
     <use xlink:href="#DejaVuSans-69" x="1118.839844"/>
     <use xlink:href="#DejaVuSans-6c" x="1146.623047"/>
     <use xlink:href="#DejaVuSans-61" x="1174.40625"/>
     <use xlink:href="#DejaVuSans-72" x="1235.685547"/>
     <use xlink:href="#DejaVuSans-69" x="1276.798828"/>
     <use xlink:href="#DejaVuSans-74" x="1304.582031"/>
     <use xlink:href="#DejaVuSans-79" x="1343.791016"/>
     <use xlink:href="#DejaVuSans-20" x="1402.970703"/>
     <use xlink:href="#DejaVuSans-2014" x="1434.757812"/>
     <use xlink:href="#DejaVuSans-20" x="1534.757812"/>
     <use xlink:href="#DejaVuSans-53" x="1566.544922"/>
     <use xlink:href="#DejaVuSans-6c" x="1630.021484"/>
     <use xlink:href="#DejaVuSans-69" x="1657.804688"/>
     <use xlink:href="#DejaVuSans-64" x="1685.587891"/>
     <use xlink:href="#DejaVuSans-69" x="1749.064453"/>
     <use xlink:href="#DejaVuSans-6e" x="1776.847656"/>
     <use xlink:href="#DejaVuSans-67" x="1840.226562"/>
     <use xlink:href="#DejaVuSans-20" x="1903.703125"/>
     <use xlink:href="#DejaVuSans-57" x="1935.490234"/>
     <use xlink:href="#DejaVuSans-69" x="2032.117188"/>
     <use xlink:href="#DejaVuSans-6e" x="2059.900391"/>
     <use xlink:href="#DejaVuSans-64" x="2123.279297"/>
     <use xlink:href="#DejaVuSans-6f" x="2186.755859"/>
     <use xlink:href="#DejaVuSans-77" x="2247.9375"/>
     <use xlink:href="#DejaVuSans-20" x="2329.724609"/>
     <use xlink:href="#DejaVuSans-28" x="2361.511719"/>
     <use xlink:href="#DejaVuSans-77" x="2400.525391"/>
     <use xlink:href="#DejaVuSans-69" x="2482.3125"/>
     <use xlink:href="#DejaVuSans-6e" x="2510.095703"/>
     <use xlink:href="#DejaVuSans-64" x="2573.474609"/>
     <use xlink:href="#DejaVuSans-6f" x="2636.951172"/>
     <use xlink:href="#DejaVuSans-77" x="2698.132812"/>
     <use xlink:href="#DejaVuSans-3d" x="2779.919922"/>
     <use xlink:href="#DejaVuSans-31" x="2863.708984"/>
     <use xlink:href="#DejaVuSans-30" x="2927.332031"/>
     <use xlink:href="#DejaVuSans-30" x="2990.955078"/>
     <use xlink:href="#DejaVuSans-29" x="3054.578125"/>
    </g>
   </g>
   <g id="legend_1">
    <g id="patch_8">
     <path d="M 711.320312 385.04 
L 846.2 385.04 
Q 848.2 385.04 848.2 383.04 
L 848.2 340.005625 
Q 848.2 338.005625 846.2 338.005625 
L 711.320312 338.005625 
Q 709.320312 338.005625 709.320312 340.005625 
L 709.320312 383.04 
Q 709.320312 385.04 711.320312 385.04 
z
" style="fill: #ffffff; opacity: 0.8; stroke: #cccccc; stroke-linejoin: miter"/>
    </g>
    <g id="line2d_15">
     <path d="M 713.320312 346.104062 
L 723.320312 346.104062 
L 733.320312 346.104062 
" style="fill: none; stroke: #0000ff; stroke-width: 1.5; stroke-linecap: square"/>
    </g>
    <g id="text_16">
     <!-- Bat-CoV RaTG13 -->
     <g transform="translate(741.320312 349.604062) scale(0.1 -0.1)">
      <defs>
       <path id="DejaVuSans-42" d="M 1259 2228 
L 1259 519 
L 2272 519 
Q 2781 519 3026 730 
Q 3272 941 3272 1375 
Q 3272 1813 3026 2020 
Q 2781 2228 2272 2228 
L 1259 2228 
z
M 1259 4147 
L 1259 2741 
L 2194 2741 
Q 2656 2741 2882 2914 
Q 3109 3088 3109 3444 
Q 3109 3797 2882 3972 
Q 2656 4147 2194 4147 
L 1259 4147 
z
M 628 4666 
L 2241 4666 
Q 2963 4666 3353 4366 
Q 3744 4066 3744 3513 
Q 3744 3084 3544 2831 
Q 3344 2578 2956 2516 
Q 3422 2416 3680 2098 
Q 3938 1781 3938 1306 
Q 3938 681 3513 340 
Q 3088 0 2303 0 
L 628 0 
L 628 4666 
z
" transform="scale(0.015625)"/>
       <path id="DejaVuSans-54" d="M -19 4666 
L 3928 4666 
L 3928 4134 
L 2272 4134 
L 2272 0 
L 1638 0 
L 1638 4134 
L -19 4134 
L -19 4666 
z
" transform="scale(0.015625)"/>
       <path id="DejaVuSans-47" d="M 3809 666 
L 3809 1919 
L 2778 1919 
L 2778 2438 
L 4434 2438 
L 4434 434 
Q 4069 175 3628 42 
Q 3188 -91 2688 -91 
Q 1594 -91 976 548 
Q 359 1188 359 2328 
Q 359 3472 976 4111 
Q 1594 4750 2688 4750 
Q 3144 4750 3555 4637 
Q 3966 4525 4313 4306 
L 4313 3634 
Q 3963 3931 3569 4081 
Q 3175 4231 2741 4231 
Q 1884 4231 1454 3753 
Q 1025 3275 1025 2328 
Q 1025 1384 1454 906 
Q 1884 428 2741 428 
Q 3075 428 3337 486 
Q 3600 544 3809 666 
z
" transform="scale(0.015625)"/>
       <path id="DejaVuSans-33" d="M 2597 2516 
Q 3050 2419 3304 2112 
Q 3559 1806 3559 1356 
Q 3559 666 3084 287 
Q 2609 -91 1734 -91 
Q 1441 -91 1130 -33 
Q 819 25 488 141 
L 488 750 
Q 750 597 1062 519 
Q 1375 441 1716 441 
Q 2309 441 2620 675 
Q 2931 909 2931 1356 
Q 2931 1769 2642 2001 
Q 2353 2234 1838 2234 
L 1294 2234 
L 1294 2753 
L 1863 2753 
Q 2328 2753 2575 2939 
Q 2822 3125 2822 3475 
Q 2822 3834 2567 4026 
Q 2313 4219 1838 4219 
Q 1578 4219 1281 4162 
Q 984 4106 628 3988 
L 628 4550 
Q 988 4650 1302 4700 
Q 1616 4750 1894 4750 
Q 2613 4750 3031 4423 
Q 3450 4097 3450 3541 
Q 3450 3153 3228 2886 
Q 3006 2619 2597 2516 
z
" transform="scale(0.015625)"/>
      </defs>
      <use xlink:href="#DejaVuSans-42"/>
      <use xlink:href="#DejaVuSans-61" x="68.603516"/>
      <use xlink:href="#DejaVuSans-74" x="129.882812"/>
      <use xlink:href="#DejaVuSans-2d" x="169.091797"/>
      <use xlink:href="#DejaVuSans-43" x="205.175781"/>
      <use xlink:href="#DejaVuSans-6f" x="275"/>
      <use xlink:href="#DejaVuSans-56" x="336.181641"/>
      <use xlink:href="#DejaVuSans-20" x="404.589844"/>
      <use xlink:href="#DejaVuSans-52" x="436.376953"/>
      <use xlink:href="#DejaVuSans-61" x="503.609375"/>
      <use xlink:href="#DejaVuSans-54" x="564.888672"/>
      <use xlink:href="#DejaVuSans-47" x="625.972656"/>
      <use xlink:href="#DejaVuSans-31" x="703.462891"/>
      <use xlink:href="#DejaVuSans-33" x="767.085938"/>
     </g>
    </g>
    <g id="line2d_16">
     <path d="M 713.320312 360.782187 
L 723.320312 360.782187 
L 733.320312 360.782187 
" style="fill: none; stroke: #ffa500; stroke-width: 1.5; stroke-linecap: square"/>
    </g>
    <g id="text_17">
     <!-- Pangolin-CoV MP789 -->
     <g transform="translate(741.320312 364.282187) scale(0.1 -0.1)">
      <defs>
       <path id="DejaVuSans-50" d="M 1259 4147 
L 1259 2394 
L 2053 2394 
Q 2494 2394 2734 2622 
Q 2975 2850 2975 3272 
Q 2975 3691 2734 3919 
Q 2494 4147 2053 4147 
L 1259 4147 
z
M 628 4666 
L 2053 4666 
Q 2838 4666 3239 4311 
Q 3641 3956 3641 3272 
Q 3641 2581 3239 2228 
Q 2838 1875 2053 1875 
L 1259 1875 
L 1259 0 
L 628 0 
L 628 4666 
z
" transform="scale(0.015625)"/>
       <path id="DejaVuSans-4d" d="M 628 4666 
L 1569 4666 
L 2759 1491 
L 3956 4666 
L 4897 4666 
L 4897 0 
L 4281 0 
L 4281 4097 
L 3078 897 
L 2444 897 
L 1241 4097 
L 1241 0 
L 628 0 
L 628 4666 
z
" transform="scale(0.015625)"/>
      </defs>
      <use xlink:href="#DejaVuSans-50"/>
      <use xlink:href="#DejaVuSans-61" x="55.802734"/>
      <use xlink:href="#DejaVuSans-6e" x="117.082031"/>
      <use xlink:href="#DejaVuSans-67" x="180.460938"/>
      <use xlink:href="#DejaVuSans-6f" x="243.9375"/>
      <use xlink:href="#DejaVuSans-6c" x="305.119141"/>
      <use xlink:href="#DejaVuSans-69" x="332.902344"/>
      <use xlink:href="#DejaVuSans-6e" x="360.685547"/>
      <use xlink:href="#DejaVuSans-2d" x="424.064453"/>
      <use xlink:href="#DejaVuSans-43" x="460.148438"/>
      <use xlink:href="#DejaVuSans-6f" x="529.972656"/>
      <use xlink:href="#DejaVuSans-56" x="591.154297"/>
      <use xlink:href="#DejaVuSans-20" x="659.5625"/>
      <use xlink:href="#DejaVuSans-4d" x="691.349609"/>
      <use xlink:href="#DejaVuSans-50" x="777.628906"/>
      <use xlink:href="#DejaVuSans-37" x="837.931641"/>
      <use xlink:href="#DejaVuSans-38" x="901.554688"/>
      <use xlink:href="#DejaVuSans-39" x="965.177734"/>
     </g>
    </g>
    <g id="patch_9">
     <path d="M 713.320312 378.960312 
L 733.320312 378.960312 
L 733.320312 371.960312 
L 713.320312 371.960312 
z
" style="fill: #808080; opacity: 0.3; stroke: #808080; stroke-linejoin: miter"/>
    </g>
    <g id="text_18">
     <!-- RBD region -->
     <g transform="translate(741.320312 378.960312) scale(0.1 -0.1)">
      <defs>
       <path id="DejaVuSans-44" d="M 1259 4147 
L 1259 519 
L 2022 519 
Q 2988 519 3436 956 
Q 3884 1394 3884 2338 
Q 3884 3275 3436 3711 
Q 2988 4147 2022 4147 
L 1259 4147 
z
M 628 4666 
L 1925 4666 
Q 3281 4666 3915 4102 
Q 4550 3538 4550 2338 
Q 4550 1131 3912 565 
Q 3275 0 1925 0 
L 628 0 
L 628 4666 
z
" transform="scale(0.015625)"/>
      </defs>
      <use xlink:href="#DejaVuSans-52"/>
      <use xlink:href="#DejaVuSans-42" x="69.482422"/>
      <use xlink:href="#DejaVuSans-44" x="138.085938"/>
      <use xlink:href="#DejaVuSans-20" x="215.087891"/>
      <use xlink:href="#DejaVuSans-72" x="246.875"/>
      <use xlink:href="#DejaVuSans-65" x="285.738281"/>
      <use xlink:href="#DejaVuSans-67" x="347.261719"/>
      <use xlink:href="#DejaVuSans-69" x="410.738281"/>
      <use xlink:href="#DejaVuSans-6f" x="438.521484"/>
      <use xlink:href="#DejaVuSans-6e" x="499.703125"/>
     </g>
    </g>
   </g>
  </g>
 </g>
 <defs>
  <clipPath id="pe14d956c5c">
   <rect x="47.72" y="26.88" width="805.48" height="363.16"/>
  </clipPath>
 </defs>
</svg>
