<?xml version="1.0" encoding="utf-8" standalone="no"?>
<!DOCTYPE svg PUBLIC "-//W3C//DTD SVG 1.1//EN"
  "http://www.w3.org/Graphics/SVG/1.1/DTD/svg11.dtd">
<svg xmlns:xlink="http://www.w3.org/1999/xlink" width="1152pt" height="720pt" viewBox="0 0 1152 720" xmlns="http://www.w3.org/2000/svg" version="1.1">
 <metadata>
  <rdf:RDF xmlns:dc="http://purl.org/dc/elements/1.1/" xmlns:cc="http://creativecommons.org/ns#" xmlns:rdf="http://www.w3.org/1999/02/22-rdf-syntax-ns#">
   <cc:Work>
    <dc:type rdf:resource="http://purl.org/dc/dcmitype/StillImage"/>
    <dc:date>2025-12-02T17:40:36.667761</dc:date>
    <dc:format>image/svg+xml</dc:format>
    <dc:creator>
     <cc:Agent>
      <dc:title>Matplotlib v3.8.4, https://matplotlib.org/</dc:title>
     </cc:Agent>
    </dc:creator>
   </cc:Work>
  </rdf:RDF>
 </metadata>
 <defs>
  <style type="text/css">*{stroke-linejoin: round; stroke-linecap: butt}</style>
 </defs>
 <g id="figure_1">
  <g id="patch_1">
   <path d="M 0 720 
L 1152 720 
L 1152 0 
L 0 0 
z
" style="fill: #ffffff"/>
  </g>
  <g id="axes_1">
   <g id="patch_2">
    <path d="M 47.72 323.44 
L 1141.10215 323.44 
L 1141.10215 26.88 
L 47.72 26.88 
z
" style="fill: #ffffff"/>
   </g>
   <g id="patch_3">
    <path d="M 247.203179 323.44 
L 247.203179 26.88 
L 638.772544 26.88 
L 638.772544 323.44 
z
" clip-path="url(#pa5ff692d12)" style="fill: #008000; opacity: 0.25; stroke: #008000; stroke-linejoin: miter"/>
   </g>
   <g id="patch_4">
    <path d="M 726.880774 323.44 
L 726.880774 26.88 
L 750.2397 26.88 
L 750.2397 323.44 
z
" clip-path="url(#pa5ff692d12)" style="fill: #ffa500; opacity: 0.25; stroke: #ffa500; stroke-linejoin: miter"/>
   </g>
   <g id="patch_5">
    <path d="M 755.362272 323.44 
L 755.362272 26.88 
L 823.902278 26.88 
L 823.902278 323.44 
z
" clip-path="url(#pa5ff692d12)" style="fill: #ffc0cb; opacity: 0.35; stroke: #ffc0cb; stroke-linejoin: miter"/>
   </g>
   <g id="patch_6">
    <path d="M 934.754725 323.44 
L 934.754725 26.88 
L 1063.843527 26.88 
L 1063.843527 323.44 
z
" clip-path="url(#pa5ff692d12)" style="fill: #800080; opacity: 0.25; stroke: #800080; stroke-linejoin: miter"/>
   </g>
   <g id="matplotlib.axis_1">
    <g id="xtick_1">
     <g id="line2d_1">
      <defs>
       <path id="m0712509dcb" d="M 0 0 
L 0 3.5 
" style="stroke: #000000; stroke-width: 0.8"/>
      </defs>
      <g>
       <use xlink:href="#m0712509dcb" x="97.419189" y="323.44" style="stroke: #000000; stroke-width: 0.8"/>
      </g>
     </g>
     <g id="text_1">
      <!-- 20000 -->
      <g transform="translate(81.512939 338.038438) scale(0.1 -0.1)">
       <defs>
        <path id="DejaVuSans-32" d="M 1228 531 
L 3431 531 
L 3431 0 
L 469 0 
L 469 531 
Q 828 903 1448 1529 
Q 2069 2156 2228 2338 
Q 2531 2678 2651 2914 
Q 2772 3150 2772 3378 
Q 2772 3750 2511 3984 
Q 2250 4219 1831 4219 
Q 1534 4219 1204 4116 
Q 875 4013 500 3803 
L 500 4441 
Q 881 4594 1212 4672 
Q 1544 4750 1819 4750 
Q 2544 4750 2975 4387 
Q 3406 4025 3406 3419 
Q 3406 3131 3298 2873 
Q 3191 2616 2906 2266 
Q 2828 2175 2409 1742 
Q 1991 1309 1228 531 
z
" transform="scale(0.015625)"/>
        <path id="DejaVuSans-30" d="M 2034 4250 
Q 1547 4250 1301 3770 
Q 1056 3291 1056 2328 
Q 1056 1369 1301 889 
Q 1547 409 2034 409 
Q 2525 409 2770 889 
Q 3016 1369 3016 2328 
Q 3016 3291 2770 3770 
Q 2525 4250 2034 4250 
z
M 2034 4750 
Q 2819 4750 3233 4129 
Q 3647 3509 3647 2328 
Q 3647 1150 3233 529 
Q 2819 -91 2034 -91 
Q 1250 -91 836 529 
Q 422 1150 422 2328 
Q 422 3509 836 4129 
Q 1250 4750 2034 4750 
z
" transform="scale(0.015625)"/>
       </defs>
       <use xlink:href="#DejaVuSans-32"/>
       <use xlink:href="#DejaVuSans-30" x="63.623047"/>
       <use xlink:href="#DejaVuSans-30" x="127.246094"/>
       <use xlink:href="#DejaVuSans-30" x="190.869141"/>
       <use xlink:href="#DejaVuSans-30" x="254.492188"/>
      </g>
     </g>
    </g>
    <g id="xtick_2">
     <g id="line2d_2">
      <g>
       <use xlink:href="#m0712509dcb" x="302.322049" y="323.44" style="stroke: #000000; stroke-width: 0.8"/>
      </g>
     </g>
     <g id="text_2">
      <!-- 22000 -->
      <g transform="translate(286.415799 338.038438) scale(0.1 -0.1)">
       <use xlink:href="#DejaVuSans-32"/>
       <use xlink:href="#DejaVuSans-32" x="63.623047"/>
       <use xlink:href="#DejaVuSans-30" x="127.246094"/>
       <use xlink:href="#DejaVuSans-30" x="190.869141"/>
       <use xlink:href="#DejaVuSans-30" x="254.492188"/>
      </g>
     </g>
    </g>
    <g id="xtick_3">
     <g id="line2d_3">
      <g>
       <use xlink:href="#m0712509dcb" x="507.224908" y="323.44" style="stroke: #000000; stroke-width: 0.8"/>
      </g>
     </g>
     <g id="text_3">
      <!-- 24000 -->
      <g transform="translate(491.318658 338.038438) scale(0.1 -0.1)">
       <defs>
        <path id="DejaVuSans-34" d="M 2419 4116 
L 825 1625 
L 2419 1625 
L 2419 4116 
z
M 2253 4666 
L 3047 4666 
L 3047 1625 
L 3713 1625 
L 3713 1100 
L 3047 1100 
L 3047 0 
L 2419 0 
L 2419 1100 
L 313 1100 
L 313 1709 
L 2253 4666 
z
" transform="scale(0.015625)"/>
       </defs>
       <use xlink:href="#DejaVuSans-32"/>
       <use xlink:href="#DejaVuSans-34" x="63.623047"/>
       <use xlink:href="#DejaVuSans-30" x="127.246094"/>
       <use xlink:href="#DejaVuSans-30" x="190.869141"/>
       <use xlink:href="#DejaVuSans-30" x="254.492188"/>
      </g>
     </g>
    </g>
    <g id="xtick_4">
     <g id="line2d_4">
      <g>
       <use xlink:href="#m0712509dcb" x="712.127768" y="323.44" style="stroke: #000000; stroke-width: 0.8"/>
      </g>
     </g>
     <g id="text_4">
      <!-- 26000 -->
      <g transform="translate(696.221518 338.038438) scale(0.1 -0.1)">
       <defs>
        <path id="DejaVuSans-36" d="M 2113 2584 
Q 1688 2584 1439 2293 
Q 1191 2003 1191 1497 
Q 1191 994 1439 701 
Q 1688 409 2113 409 
Q 2538 409 2786 701 
Q 3034 994 3034 1497 
Q 3034 2003 2786 2293 
Q 2538 2584 2113 2584 
z
M 3366 4563 
L 3366 3988 
Q 3128 4100 2886 4159 
Q 2644 4219 2406 4219 
Q 1781 4219 1451 3797 
Q 1122 3375 1075 2522 
Q 1259 2794 1537 2939 
Q 1816 3084 2150 3084 
Q 2853 3084 3261 2657 
Q 3669 2231 3669 1497 
Q 3669 778 3244 343 
Q 2819 -91 2113 -91 
Q 1303 -91 875 529 
Q 447 1150 447 2328 
Q 447 3434 972 4092 
Q 1497 4750 2381 4750 
Q 2619 4750 2861 4703 
Q 3103 4656 3366 4563 
z
" transform="scale(0.015625)"/>
       </defs>
       <use xlink:href="#DejaVuSans-32"/>
       <use xlink:href="#DejaVuSans-36" x="63.623047"/>
       <use xlink:href="#DejaVuSans-30" x="127.246094"/>
       <use xlink:href="#DejaVuSans-30" x="190.869141"/>
       <use xlink:href="#DejaVuSans-30" x="254.492188"/>
      </g>
     </g>
    </g>
    <g id="xtick_5">
     <g id="line2d_5">
      <g>
       <use xlink:href="#m0712509dcb" x="917.030628" y="323.44" style="stroke: #000000; stroke-width: 0.8"/>
      </g>
     </g>
     <g id="text_5">
      <!-- 28000 -->
      <g transform="translate(901.124378 338.038438) scale(0.1 -0.1)">
       <defs>
        <path id="DejaVuSans-38" d="M 2034 2216 
Q 1584 2216 1326 1975 
Q 1069 1734 1069 1313 
Q 1069 891 1326 650 
Q 1584 409 2034 409 
Q 2484 409 2743 651 
Q 3003 894 3003 1313 
Q 3003 1734 2745 1975 
Q 2488 2216 2034 2216 
z
M 1403 2484 
Q 997 2584 770 2862 
Q 544 3141 544 3541 
Q 544 4100 942 4425 
Q 1341 4750 2034 4750 
Q 2731 4750 3128 4425 
Q 3525 4100 3525 3541 
Q 3525 3141 3298 2862 
Q 3072 2584 2669 2484 
Q 3125 2378 3379 2068 
Q 3634 1759 3634 1313 
Q 3634 634 3220 271 
Q 2806 -91 2034 -91 
Q 1263 -91 848 271 
Q 434 634 434 1313 
Q 434 1759 690 2068 
Q 947 2378 1403 2484 
z
M 1172 3481 
Q 1172 3119 1398 2916 
Q 1625 2713 2034 2713 
Q 2441 2713 2670 2916 
Q 2900 3119 2900 3481 
Q 2900 3844 2670 4047 
Q 2441 4250 2034 4250 
Q 1625 4250 1398 4047 
Q 1172 3844 1172 3481 
z
" transform="scale(0.015625)"/>
       </defs>
       <use xlink:href="#DejaVuSans-32"/>
       <use xlink:href="#DejaVuSans-38" x="63.623047"/>
       <use xlink:href="#DejaVuSans-30" x="127.246094"/>
       <use xlink:href="#DejaVuSans-30" x="190.869141"/>
       <use xlink:href="#DejaVuSans-30" x="254.492188"/>
      </g>
     </g>
    </g>
    <g id="xtick_6">
     <g id="line2d_6">
      <g>
       <use xlink:href="#m0712509dcb" x="1121.933488" y="323.44" style="stroke: #000000; stroke-width: 0.8"/>
      </g>
     </g>
     <g id="text_6">
      <!-- 30000 -->
      <g transform="translate(1106.027238 338.038438) scale(0.1 -0.1)">
       <defs>
        <path id="DejaVuSans-33" d="M 2597 2516 
Q 3050 2419 3304 2112 
Q 3559 1806 3559 1356 
Q 3559 666 3084 287 
Q 2609 -91 1734 -91 
Q 1441 -91 1130 -33 
Q 819 25 488 141 
L 488 750 
Q 750 597 1062 519 
Q 1375 441 1716 441 
Q 2309 441 2620 675 
Q 2931 909 2931 1356 
Q 2931 1769 2642 2001 
Q 2353 2234 1838 2234 
L 1294 2234 
L 1294 2753 
L 1863 2753 
Q 2328 2753 2575 2939 
Q 2822 3125 2822 3475 
Q 2822 3834 2567 4026 
Q 2313 4219 1838 4219 
Q 1578 4219 1281 4162 
Q 984 4106 628 3988 
L 628 4550 
Q 988 4650 1302 4700 
Q 1616 4750 1894 4750 
Q 2613 4750 3031 4423 
Q 3450 4097 3450 3541 
Q 3450 3153 3228 2886 
Q 3006 2619 2597 2516 
z
" transform="scale(0.015625)"/>
       </defs>
       <use xlink:href="#DejaVuSans-33"/>
       <use xlink:href="#DejaVuSans-30" x="63.623047"/>
       <use xlink:href="#DejaVuSans-30" x="127.246094"/>
       <use xlink:href="#DejaVuSans-30" x="190.869141"/>
       <use xlink:href="#DejaVuSans-30" x="254.492188"/>
      </g>
     </g>
    </g>
    <g id="text_7">
     <!-- Position in genome (nucleotide) -->
     <g transform="translate(515.08295 351.716563) scale(0.1 -0.1)">
      <defs>
       <path id="DejaVuSans-50" d="M 1259 4147 
L 1259 2394 
L 2053 2394 
Q 2494 2394 2734 2622 
Q 2975 2850 2975 3272 
Q 2975 3691 2734 3919 
Q 2494 4147 2053 4147 
L 1259 4147 
z
M 628 4666 
L 2053 4666 
Q 2838 4666 3239 4311 
Q 3641 3956 3641 3272 
Q 3641 2581 3239 2228 
Q 2838 1875 2053 1875 
L 1259 1875 
L 1259 0 
L 628 0 
L 628 4666 
z
" transform="scale(0.015625)"/>
       <path id="DejaVuSans-6f" d="M 1959 3097 
Q 1497 3097 1228 2736 
Q 959 2375 959 1747 
Q 959 1119 1226 758 
Q 1494 397 1959 397 
Q 2419 397 2687 759 
Q 2956 1122 2956 1747 
Q 2956 2369 2687 2733 
Q 2419 3097 1959 3097 
z
M 1959 3584 
Q 2709 3584 3137 3096 
Q 3566 2609 3566 1747 
Q 3566 888 3137 398 
Q 2709 -91 1959 -91 
Q 1206 -91 779 398 
Q 353 888 353 1747 
Q 353 2609 779 3096 
Q 1206 3584 1959 3584 
z
" transform="scale(0.015625)"/>
       <path id="DejaVuSans-73" d="M 2834 3397 
L 2834 2853 
Q 2591 2978 2328 3040 
Q 2066 3103 1784 3103 
Q 1356 3103 1142 2972 
Q 928 2841 928 2578 
Q 928 2378 1081 2264 
Q 1234 2150 1697 2047 
L 1894 2003 
Q 2506 1872 2764 1633 
Q 3022 1394 3022 966 
Q 3022 478 2636 193 
Q 2250 -91 1575 -91 
Q 1294 -91 989 -36 
Q 684 19 347 128 
L 347 722 
Q 666 556 975 473 
Q 1284 391 1588 391 
Q 1994 391 2212 530 
Q 2431 669 2431 922 
Q 2431 1156 2273 1281 
Q 2116 1406 1581 1522 
L 1381 1569 
Q 847 1681 609 1914 
Q 372 2147 372 2553 
Q 372 3047 722 3315 
Q 1072 3584 1716 3584 
Q 2034 3584 2315 3537 
Q 2597 3491 2834 3397 
z
" transform="scale(0.015625)"/>
       <path id="DejaVuSans-69" d="M 603 3500 
L 1178 3500 
L 1178 0 
L 603 0 
L 603 3500 
z
M 603 4863 
L 1178 4863 
L 1178 4134 
L 603 4134 
L 603 4863 
z
" transform="scale(0.015625)"/>
       <path id="DejaVuSans-74" d="M 1172 4494 
L 1172 3500 
L 2356 3500 
L 2356 3053 
L 1172 3053 
L 1172 1153 
Q 1172 725 1289 603 
Q 1406 481 1766 481 
L 2356 481 
L 2356 0 
L 1766 0 
Q 1100 0 847 248 
Q 594 497 594 1153 
L 594 3053 
L 172 3053 
L 172 3500 
L 594 3500 
L 594 4494 
L 1172 4494 
z
" transform="scale(0.015625)"/>
       <path id="DejaVuSans-6e" d="M 3513 2113 
L 3513 0 
L 2938 0 
L 2938 2094 
Q 2938 2591 2744 2837 
Q 2550 3084 2163 3084 
Q 1697 3084 1428 2787 
Q 1159 2491 1159 1978 
L 1159 0 
L 581 0 
L 581 3500 
L 1159 3500 
L 1159 2956 
Q 1366 3272 1645 3428 
Q 1925 3584 2291 3584 
Q 2894 3584 3203 3211 
Q 3513 2838 3513 2113 
z
" transform="scale(0.015625)"/>
       <path id="DejaVuSans-20" transform="scale(0.015625)"/>
       <path id="DejaVuSans-67" d="M 2906 1791 
Q 2906 2416 2648 2759 
Q 2391 3103 1925 3103 
Q 1463 3103 1205 2759 
Q 947 2416 947 1791 
Q 947 1169 1205 825 
Q 1463 481 1925 481 
Q 2391 481 2648 825 
Q 2906 1169 2906 1791 
z
M 3481 434 
Q 3481 -459 3084 -895 
Q 2688 -1331 1869 -1331 
Q 1566 -1331 1297 -1286 
Q 1028 -1241 775 -1147 
L 775 -588 
Q 1028 -725 1275 -790 
Q 1522 -856 1778 -856 
Q 2344 -856 2625 -561 
Q 2906 -266 2906 331 
L 2906 616 
Q 2728 306 2450 153 
Q 2172 0 1784 0 
Q 1141 0 747 490 
Q 353 981 353 1791 
Q 353 2603 747 3093 
Q 1141 3584 1784 3584 
Q 2172 3584 2450 3431 
Q 2728 3278 2906 2969 
L 2906 3500 
L 3481 3500 
L 3481 434 
z
" transform="scale(0.015625)"/>
       <path id="DejaVuSans-65" d="M 3597 1894 
L 3597 1613 
L 953 1613 
Q 991 1019 1311 708 
Q 1631 397 2203 397 
Q 2534 397 2845 478 
Q 3156 559 3463 722 
L 3463 178 
Q 3153 47 2828 -22 
Q 2503 -91 2169 -91 
Q 1331 -91 842 396 
Q 353 884 353 1716 
Q 353 2575 817 3079 
Q 1281 3584 2069 3584 
Q 2775 3584 3186 3129 
Q 3597 2675 3597 1894 
z
M 3022 2063 
Q 3016 2534 2758 2815 
Q 2500 3097 2075 3097 
Q 1594 3097 1305 2825 
Q 1016 2553 972 2059 
L 3022 2063 
z
" transform="scale(0.015625)"/>
       <path id="DejaVuSans-6d" d="M 3328 2828 
Q 3544 3216 3844 3400 
Q 4144 3584 4550 3584 
Q 5097 3584 5394 3201 
Q 5691 2819 5691 2113 
L 5691 0 
L 5113 0 
L 5113 2094 
Q 5113 2597 4934 2840 
Q 4756 3084 4391 3084 
Q 3944 3084 3684 2787 
Q 3425 2491 3425 1978 
L 3425 0 
L 2847 0 
L 2847 2094 
Q 2847 2600 2669 2842 
Q 2491 3084 2119 3084 
Q 1678 3084 1418 2786 
Q 1159 2488 1159 1978 
L 1159 0 
L 581 0 
L 581 3500 
L 1159 3500 
L 1159 2956 
Q 1356 3278 1631 3431 
Q 1906 3584 2284 3584 
Q 2666 3584 2933 3390 
Q 3200 3197 3328 2828 
z
" transform="scale(0.015625)"/>
       <path id="DejaVuSans-28" d="M 1984 4856 
Q 1566 4138 1362 3434 
Q 1159 2731 1159 2009 
Q 1159 1288 1364 580 
Q 1569 -128 1984 -844 
L 1484 -844 
Q 1016 -109 783 600 
Q 550 1309 550 2009 
Q 550 2706 781 3412 
Q 1013 4119 1484 4856 
L 1984 4856 
z
" transform="scale(0.015625)"/>
       <path id="DejaVuSans-75" d="M 544 1381 
L 544 3500 
L 1119 3500 
L 1119 1403 
Q 1119 906 1312 657 
Q 1506 409 1894 409 
Q 2359 409 2629 706 
Q 2900 1003 2900 1516 
L 2900 3500 
L 3475 3500 
L 3475 0 
L 2900 0 
L 2900 538 
Q 2691 219 2414 64 
Q 2138 -91 1772 -91 
Q 1169 -91 856 284 
Q 544 659 544 1381 
z
M 1991 3584 
L 1991 3584 
z
" transform="scale(0.015625)"/>
       <path id="DejaVuSans-63" d="M 3122 3366 
L 3122 2828 
Q 2878 2963 2633 3030 
Q 2388 3097 2138 3097 
Q 1578 3097 1268 2742 
Q 959 2388 959 1747 
Q 959 1106 1268 751 
Q 1578 397 2138 397 
Q 2388 397 2633 464 
Q 2878 531 3122 666 
L 3122 134 
Q 2881 22 2623 -34 
Q 2366 -91 2075 -91 
Q 1284 -91 818 406 
Q 353 903 353 1747 
Q 353 2603 823 3093 
Q 1294 3584 2113 3584 
Q 2378 3584 2631 3529 
Q 2884 3475 3122 3366 
z
" transform="scale(0.015625)"/>
       <path id="DejaVuSans-6c" d="M 603 4863 
L 1178 4863 
L 1178 0 
L 603 0 
L 603 4863 
z
" transform="scale(0.015625)"/>
       <path id="DejaVuSans-64" d="M 2906 2969 
L 2906 4863 
L 3481 4863 
L 3481 0 
L 2906 0 
L 2906 525 
Q 2725 213 2448 61 
Q 2172 -91 1784 -91 
Q 1150 -91 751 415 
Q 353 922 353 1747 
Q 353 2572 751 3078 
Q 1150 3584 1784 3584 
Q 2172 3584 2448 3432 
Q 2725 3281 2906 2969 
z
M 947 1747 
Q 947 1113 1208 752 
Q 1469 391 1925 391 
Q 2381 391 2643 752 
Q 2906 1113 2906 1747 
Q 2906 2381 2643 2742 
Q 2381 3103 1925 3103 
Q 1469 3103 1208 2742 
Q 947 2381 947 1747 
z
" transform="scale(0.015625)"/>
       <path id="DejaVuSans-29" d="M 513 4856 
L 1013 4856 
Q 1481 4119 1714 3412 
Q 1947 2706 1947 2009 
Q 1947 1309 1714 600 
Q 1481 -109 1013 -844 
L 513 -844 
Q 928 -128 1133 580 
Q 1338 1288 1338 2009 
Q 1338 2731 1133 3434 
Q 928 4138 513 4856 
z
" transform="scale(0.015625)"/>
      </defs>
      <use xlink:href="#DejaVuSans-50"/>
      <use xlink:href="#DejaVuSans-6f" x="56.677734"/>
      <use xlink:href="#DejaVuSans-73" x="117.859375"/>
      <use xlink:href="#DejaVuSans-69" x="169.958984"/>
      <use xlink:href="#DejaVuSans-74" x="197.742188"/>
      <use xlink:href="#DejaVuSans-69" x="236.951172"/>
      <use xlink:href="#DejaVuSans-6f" x="264.734375"/>
      <use xlink:href="#DejaVuSans-6e" x="325.916016"/>
      <use xlink:href="#DejaVuSans-20" x="389.294922"/>
      <use xlink:href="#DejaVuSans-69" x="421.082031"/>
      <use xlink:href="#DejaVuSans-6e" x="448.865234"/>
      <use xlink:href="#DejaVuSans-20" x="512.244141"/>
      <use xlink:href="#DejaVuSans-67" x="544.03125"/>
      <use xlink:href="#DejaVuSans-65" x="607.507812"/>
      <use xlink:href="#DejaVuSans-6e" x="669.03125"/>
      <use xlink:href="#DejaVuSans-6f" x="732.410156"/>
      <use xlink:href="#DejaVuSans-6d" x="793.591797"/>
      <use xlink:href="#DejaVuSans-65" x="891.003906"/>
      <use xlink:href="#DejaVuSans-20" x="952.527344"/>
      <use xlink:href="#DejaVuSans-28" x="984.314453"/>
      <use xlink:href="#DejaVuSans-6e" x="1023.328125"/>
      <use xlink:href="#DejaVuSans-75" x="1086.707031"/>
      <use xlink:href="#DejaVuSans-63" x="1150.085938"/>
      <use xlink:href="#DejaVuSans-6c" x="1205.066406"/>
      <use xlink:href="#DejaVuSans-65" x="1232.849609"/>
      <use xlink:href="#DejaVuSans-6f" x="1294.373047"/>
      <use xlink:href="#DejaVuSans-74" x="1355.554688"/>
      <use xlink:href="#DejaVuSans-69" x="1394.763672"/>
      <use xlink:href="#DejaVuSans-64" x="1422.546875"/>
      <use xlink:href="#DejaVuSans-65" x="1486.023438"/>
      <use xlink:href="#DejaVuSans-29" x="1547.546875"/>
     </g>
    </g>
   </g>
   <g id="matplotlib.axis_2">
    <g id="ytick_1">
     <g id="line2d_7">
      <defs>
       <path id="mb90db85ce3" d="M 0 0 
L -3.5 0 
" style="stroke: #000000; stroke-width: 0.8"/>
      </defs>
      <g>
       <use xlink:href="#mb90db85ce3" x="47.72" y="309.96" style="stroke: #000000; stroke-width: 0.8"/>
      </g>
     </g>
     <g id="text_8">
      <!-- 0.0 -->
      <g transform="translate(24.816875 313.759219) scale(0.1 -0.1)">
       <defs>
        <path id="DejaVuSans-2e" d="M 684 794 
L 1344 794 
L 1344 0 
L 684 0 
L 684 794 
z
" transform="scale(0.015625)"/>
       </defs>
       <use xlink:href="#DejaVuSans-30"/>
       <use xlink:href="#DejaVuSans-2e" x="63.623047"/>
       <use xlink:href="#DejaVuSans-30" x="95.410156"/>
      </g>
     </g>
    </g>
    <g id="ytick_2">
     <g id="line2d_8">
      <g>
       <use xlink:href="#mb90db85ce3" x="47.72" y="256.04" style="stroke: #000000; stroke-width: 0.8"/>
      </g>
     </g>
     <g id="text_9">
      <!-- 0.2 -->
      <g transform="translate(24.816875 259.839219) scale(0.1 -0.1)">
       <use xlink:href="#DejaVuSans-30"/>
       <use xlink:href="#DejaVuSans-2e" x="63.623047"/>
       <use xlink:href="#DejaVuSans-32" x="95.410156"/>
      </g>
     </g>
    </g>
    <g id="ytick_3">
     <g id="line2d_9">
      <g>
       <use xlink:href="#mb90db85ce3" x="47.72" y="202.12" style="stroke: #000000; stroke-width: 0.8"/>
      </g>
     </g>
     <g id="text_10">
      <!-- 0.4 -->
      <g transform="translate(24.816875 205.919219) scale(0.1 -0.1)">
       <use xlink:href="#DejaVuSans-30"/>
       <use xlink:href="#DejaVuSans-2e" x="63.623047"/>
       <use xlink:href="#DejaVuSans-34" x="95.410156"/>
      </g>
     </g>
    </g>
    <g id="ytick_4">
     <g id="line2d_10">
      <g>
       <use xlink:href="#mb90db85ce3" x="47.72" y="148.2" style="stroke: #000000; stroke-width: 0.8"/>
      </g>
     </g>
     <g id="text_11">
      <!-- 0.6 -->
      <g transform="translate(24.816875 151.999219) scale(0.1 -0.1)">
       <use xlink:href="#DejaVuSans-30"/>
       <use xlink:href="#DejaVuSans-2e" x="63.623047"/>
       <use xlink:href="#DejaVuSans-36" x="95.410156"/>
      </g>
     </g>
    </g>
    <g id="ytick_5">
     <g id="line2d_11">
      <g>
       <use xlink:href="#mb90db85ce3" x="47.72" y="94.28" style="stroke: #000000; stroke-width: 0.8"/>
      </g>
     </g>
     <g id="text_12">
      <!-- 0.8 -->
      <g transform="translate(24.816875 98.079219) scale(0.1 -0.1)">
       <use xlink:href="#DejaVuSans-30"/>
       <use xlink:href="#DejaVuSans-2e" x="63.623047"/>
       <use xlink:href="#DejaVuSans-38" x="95.410156"/>
      </g>
     </g>
    </g>
    <g id="ytick_6">
     <g id="line2d_12">
      <g>
       <use xlink:href="#mb90db85ce3" x="47.72" y="40.36" style="stroke: #000000; stroke-width: 0.8"/>
      </g>
     </g>
     <g id="text_13">
      <!-- 1.0 -->
      <g transform="translate(24.816875 44.159219) scale(0.1 -0.1)">
       <defs>
        <path id="DejaVuSans-31" d="M 794 531 
L 1825 531 
L 1825 4091 
L 703 3866 
L 703 4441 
L 1819 4666 
L 2450 4666 
L 2450 531 
L 3481 531 
L 3481 0 
L 794 0 
L 794 531 
z
" transform="scale(0.015625)"/>
       </defs>
       <use xlink:href="#DejaVuSans-31"/>
       <use xlink:href="#DejaVuSans-2e" x="63.623047"/>
       <use xlink:href="#DejaVuSans-30" x="95.410156"/>
      </g>
     </g>
    </g>
    <g id="text_14">
     <!-- Frequency of mutation -->
     <g transform="translate(18.737187 231.627969) rotate(-90) scale(0.1 -0.1)">
      <defs>
       <path id="DejaVuSans-46" d="M 628 4666 
L 3309 4666 
L 3309 4134 
L 1259 4134 
L 1259 2759 
L 3109 2759 
L 3109 2228 
L 1259 2228 
L 1259 0 
L 628 0 
L 628 4666 
z
" transform="scale(0.015625)"/>
       <path id="DejaVuSans-72" d="M 2631 2963 
Q 2534 3019 2420 3045 
Q 2306 3072 2169 3072 
Q 1681 3072 1420 2755 
Q 1159 2438 1159 1844 
L 1159 0 
L 581 0 
L 581 3500 
L 1159 3500 
L 1159 2956 
Q 1341 3275 1631 3429 
Q 1922 3584 2338 3584 
Q 2397 3584 2469 3576 
Q 2541 3569 2628 3553 
L 2631 2963 
z
" transform="scale(0.015625)"/>
       <path id="DejaVuSans-71" d="M 947 1747 
Q 947 1113 1208 752 
Q 1469 391 1925 391 
Q 2381 391 2643 752 
Q 2906 1113 2906 1747 
Q 2906 2381 2643 2742 
Q 2381 3103 1925 3103 
Q 1469 3103 1208 2742 
Q 947 2381 947 1747 
z
M 2906 525 
Q 2725 213 2448 61 
Q 2172 -91 1784 -91 
Q 1150 -91 751 415 
Q 353 922 353 1747 
Q 353 2572 751 3078 
Q 1150 3584 1784 3584 
Q 2172 3584 2448 3432 
Q 2725 3281 2906 2969 
L 2906 3500 
L 3481 3500 
L 3481 -1331 
L 2906 -1331 
L 2906 525 
z
" transform="scale(0.015625)"/>
       <path id="DejaVuSans-79" d="M 2059 -325 
Q 1816 -950 1584 -1140 
Q 1353 -1331 966 -1331 
L 506 -1331 
L 506 -850 
L 844 -850 
Q 1081 -850 1212 -737 
Q 1344 -625 1503 -206 
L 1606 56 
L 191 3500 
L 800 3500 
L 1894 763 
L 2988 3500 
L 3597 3500 
L 2059 -325 
z
" transform="scale(0.015625)"/>
       <path id="DejaVuSans-66" d="M 2375 4863 
L 2375 4384 
L 1825 4384 
Q 1516 4384 1395 4259 
Q 1275 4134 1275 3809 
L 1275 3500 
L 2222 3500 
L 2222 3053 
L 1275 3053 
L 1275 0 
L 697 0 
L 697 3053 
L 147 3053 
L 147 3500 
L 697 3500 
L 697 3744 
Q 697 4328 969 4595 
Q 1241 4863 1831 4863 
L 2375 4863 
z
" transform="scale(0.015625)"/>
       <path id="DejaVuSans-61" d="M 2194 1759 
Q 1497 1759 1228 1600 
Q 959 1441 959 1056 
Q 959 750 1161 570 
Q 1363 391 1709 391 
Q 2188 391 2477 730 
Q 2766 1069 2766 1631 
L 2766 1759 
L 2194 1759 
z
M 3341 1997 
L 3341 0 
L 2766 0 
L 2766 531 
Q 2569 213 2275 61 
Q 1981 -91 1556 -91 
Q 1019 -91 701 211 
Q 384 513 384 1019 
Q 384 1609 779 1909 
Q 1175 2209 1959 2209 
L 2766 2209 
L 2766 2266 
Q 2766 2663 2505 2880 
Q 2244 3097 1772 3097 
Q 1472 3097 1187 3025 
Q 903 2953 641 2809 
L 641 3341 
Q 956 3463 1253 3523 
Q 1550 3584 1831 3584 
Q 2591 3584 2966 3190 
Q 3341 2797 3341 1997 
z
" transform="scale(0.015625)"/>
      </defs>
      <use xlink:href="#DejaVuSans-46"/>
      <use xlink:href="#DejaVuSans-72" x="50.269531"/>
      <use xlink:href="#DejaVuSans-65" x="89.132812"/>
      <use xlink:href="#DejaVuSans-71" x="150.65625"/>
      <use xlink:href="#DejaVuSans-75" x="214.132812"/>
      <use xlink:href="#DejaVuSans-65" x="277.511719"/>
      <use xlink:href="#DejaVuSans-6e" x="339.035156"/>
      <use xlink:href="#DejaVuSans-63" x="402.414062"/>
      <use xlink:href="#DejaVuSans-79" x="457.394531"/>
      <use xlink:href="#DejaVuSans-20" x="516.574219"/>
      <use xlink:href="#DejaVuSans-6f" x="548.361328"/>
      <use xlink:href="#DejaVuSans-66" x="609.542969"/>
      <use xlink:href="#DejaVuSans-20" x="644.748047"/>
      <use xlink:href="#DejaVuSans-6d" x="676.535156"/>
      <use xlink:href="#DejaVuSans-75" x="773.947266"/>
      <use xlink:href="#DejaVuSans-74" x="837.326172"/>
      <use xlink:href="#DejaVuSans-61" x="876.535156"/>
      <use xlink:href="#DejaVuSans-74" x="937.814453"/>
      <use xlink:href="#DejaVuSans-69" x="977.023438"/>
      <use xlink:href="#DejaVuSans-6f" x="1004.806641"/>
      <use xlink:href="#DejaVuSans-6e" x="1065.988281"/>
     </g>
    </g>
   </g>
   <g id="line2d_13">
    <path d="M 97.419189 309.96 
L 115.143286 309.96 
L 115.245737 291.986667 
L 115.45064 309.96 
L 124.568818 309.96 
L 124.77372 184.146667 
L 126.105589 184.146667 
L 126.310492 309.96 
L 126.720298 309.96 
L 126.822749 300.973333 
L 127.027652 309.96 
L 136.145829 309.96 
L 136.248281 300.973333 
L 136.453183 309.96 
L 136.862989 309.96 
L 136.965441 300.973333 
L 137.170343 309.96 
L 160.631721 309.96 
L 160.734172 265.026667 
L 160.939075 309.96 
L 165.037132 309.96 
L 165.139584 274.013333 
L 165.344487 309.96 
L 202.022099 309.96 
L 202.12455 300.973333 
L 202.329453 309.96 
L 213.394207 309.96 
L 213.496659 300.973333 
L 213.701562 309.96 
L 248.330145 309.96 
L 248.432596 300.973333 
L 248.637499 309.96 
L 253.145362 309.96 
L 253.247814 300.973333 
L 253.452716 309.96 
L 257.038516 309.96 
L 257.140968 300.973333 
L 257.345871 309.96 
L 267.795917 309.96 
L 268.000819 40.36 
L 268.410625 40.36 
L 268.615528 309.96 
L 275.787128 309.96 
L 275.88958 300.973333 
L 276.094482 309.96 
L 280.19254 309.96 
L 280.294991 300.973333 
L 280.499894 309.96 
L 287.773945 309.96 
L 287.876397 300.973333 
L 288.0813 309.96 
L 291.052391 309.96 
L 291.257294 40.36 
L 291.359746 40.36 
L 291.564648 309.96 
L 292.076906 309.96 
L 292.179357 300.973333 
L 292.38426 309.96 
L 336.13102 309.96 
L 336.233472 300.973333 
L 336.438375 309.96 
L 400.777873 309.96 
L 400.880324 40.36 
L 401.085227 309.96 
L 403.134256 309.96 
L 403.236707 300.973333 
L 403.44161 309.96 
L 413.276947 309.96 
L 413.379399 300.973333 
L 413.584301 309.96 
L 422.08777 309.96 
L 422.190222 40.36 
L 422.395124 309.96 
L 435.611359 309.96 
L 435.71381 40.36 
L 435.918713 309.96 
L 437.967742 309.96 
L 438.070193 300.973333 
L 438.275096 309.96 
L 448.930045 309.96 
L 449.032496 300.973333 
L 449.237399 309.96 
L 456.204096 309.96 
L 456.306548 40.36 
L 456.511451 309.96 
L 462.351182 309.96 
L 462.453633 291.986667 
L 462.658536 309.96 
L 466.961496 309.96 
L 467.063948 40.36 
L 467.268851 309.96 
L 506.917554 309.96 
L 507.020005 300.973333 
L 507.224908 309.96 
L 548.615286 309.96 
L 548.717737 40.36 
L 548.92264 309.96 
L 590.415469 309.96 
L 590.517921 40.36 
L 590.722824 309.96 
L 595.538041 309.96 
L 595.640492 300.973333 
L 595.845395 309.96 
L 604.04151 309.96 
L 604.143961 300.973333 
L 604.348864 309.96 
L 643.075504 309.96 
L 643.177956 300.973333 
L 643.382859 309.96 
L 656.803996 309.96 
L 656.906447 291.986667 
L 657.11135 309.96 
L 672.581516 309.96 
L 672.683968 300.973333 
L 672.888871 309.96 
L 685.695299 309.96 
L 685.797751 300.973333 
L 686.002654 309.96 
L 720.016528 309.96 
L 720.11898 300.973333 
L 720.323883 309.96 
L 735.589146 309.96 
L 735.691597 300.973333 
L 735.8965 309.96 
L 765.709866 309.96 
L 765.812317 300.973333 
L 766.01722 309.96 
L 768.578506 309.96 
L 768.680958 300.973333 
L 768.88586 309.96 
L 772.676563 309.96 
L 772.779015 291.986667 
L 772.983918 309.96 
L 776.364815 309.96 
L 776.467266 300.973333 
L 776.672169 309.96 
L 778.516295 309.96 
L 778.618746 300.973333 
L 778.823649 309.96 
L 779.848163 309.96 
L 779.950615 300.973333 
L 780.155518 309.96 
L 789.581049 309.96 
L 789.683501 300.973333 
L 789.888404 309.96 
L 817.242935 309.96 
L 817.345387 300.973333 
L 817.55029 309.96 
L 834.04497 309.96 
L 834.147421 291.986667 
L 834.352324 309.96 
L 844.392564 309.96 
L 844.495016 300.973333 
L 844.699919 309.96 
L 847.67101 309.96 
L 847.773461 300.973333 
L 847.978364 309.96 
L 854.637707 309.96 
L 854.740159 283 
L 854.945062 309.96 
L 858.121056 309.96 
L 858.223507 300.973333 
L 858.42841 309.96 
L 859.555376 309.96 
L 859.657827 300.973333 
L 859.86273 309.96 
L 863.243627 309.96 
L 863.346079 300.973333 
L 863.550982 309.96 
L 865.907365 309.96 
L 866.009816 291.986667 
L 866.214719 309.96 
L 868.878456 309.96 
L 868.980907 300.973333 
L 869.18581 309.96 
L 870.107873 309.96 
L 870.210325 300.973333 
L 870.415227 309.96 
L 874.718187 309.96 
L 874.820639 300.973333 
L 875.025542 309.96 
L 880.045662 309.96 
L 880.148113 300.973333 
L 880.353016 309.96 
L 882.197142 309.96 
L 882.299593 300.973333 
L 882.504496 309.96 
L 899.716336 309.96 
L 899.818788 300.973333 
L 900.023691 309.96 
L 903.711942 309.96 
L 903.814394 40.36 
L 904.019296 309.96 
L 911.498251 309.96 
L 911.600702 40.36 
L 911.805605 309.96 
L 916.313468 309.96 
L 916.415919 139.213333 
L 916.620822 309.96 
L 917.952691 309.96 
L 918.055142 40.36 
L 918.260045 309.96 
L 918.362497 300.973333 
L 918.5674 309.96 
L 934.34492 309.96 
L 934.447371 40.36 
L 934.652274 309.96 
L 935.266983 309.96 
L 935.471885 40.36 
L 935.574337 40.36 
L 935.77924 309.96 
L 959.752874 309.96 
L 959.855326 300.973333 
L 960.060229 309.96 
L 975.9402 309.96 
L 976.042652 300.973333 
L 976.247555 309.96 
L 988.951532 309.96 
L 989.258886 291.986667 
L 991.307915 291.986667 
L 991.512818 300.973333 
L 991.71772 300.973333 
L 991.922623 309.96 
L 996.840292 309.96 
L 997.045195 40.36 
L 997.147646 40.36 
L 997.352549 309.96 
L 1001.348155 309.96 
L 1001.450606 300.973333 
L 1001.655509 309.96 
L 1006.675629 309.96 
L 1006.778081 40.36 
L 1006.982984 309.96 
L 1008.929561 309.96 
L 1009.032012 300.973333 
L 1009.236915 309.96 
L 1034.952224 309.96 
L 1035.054675 300.973333 
L 1035.259578 309.96 
L 1036.898801 309.96 
L 1037.001253 300.973333 
L 1037.206155 309.96 
L 1046.939041 309.96 
L 1047.041493 300.973333 
L 1047.246395 309.96 
L 1050.934647 309.96 
L 1051.037098 300.973333 
L 1051.242001 309.96 
L 1074.703379 309.96 
L 1074.908282 300.973333 
L 1077.162213 300.973333 
L 1077.367116 291.986667 
L 1079.518596 291.986667 
L 1079.621047 283 
L 1079.82595 291.986667 
L 1080.952916 291.986667 
L 1081.055367 274.013333 
L 1081.26027 291.986667 
L 1084.743619 291.986667 
L 1084.84607 283 
L 1085.050973 291.986667 
L 1085.255876 283 
L 1085.460779 291.986667 
L 1088.226967 291.986667 
L 1088.329419 274.013333 
L 1088.534322 291.986667 
L 1089.251482 291.986667 
L 1089.456385 166.173333 
L 1091.402962 166.173333 
L 1091.402962 166.173333 
" clip-path="url(#pa5ff692d12)" style="fill: none; stroke: #0000ff; stroke-width: 1.5; stroke-linecap: square"/>
   </g>
   <g id="patch_7">
    <path d="M 47.72 323.44 
L 47.72 26.88 
" style="fill: none; stroke: #000000; stroke-width: 0.8; stroke-linejoin: miter; stroke-linecap: square"/>
   </g>
   <g id="patch_8">
    <path d="M 1141.10215 323.44 
L 1141.10215 26.88 
" style="fill: none; stroke: #000000; stroke-width: 0.8; stroke-linejoin: miter; stroke-linecap: square"/>
   </g>
   <g id="patch_9">
    <path d="M 47.72 323.44 
L 1141.10215 323.44 
" style="fill: none; stroke: #000000; stroke-width: 0.8; stroke-linejoin: miter; stroke-linecap: square"/>
   </g>
   <g id="patch_10">
    <path d="M 47.72 26.88 
L 1141.10215 26.88 
" style="fill: none; stroke: #000000; stroke-width: 0.8; stroke-linejoin: miter; stroke-linecap: square"/>
   </g>
   <g id="text_15">
    <!-- Alpha variants -->
    <g transform="translate(551.125763 20.88) scale(0.12 -0.12)">
     <defs>
      <path id="DejaVuSans-41" d="M 2188 4044 
L 1331 1722 
L 3047 1722 
L 2188 4044 
z
M 1831 4666 
L 2547 4666 
L 4325 0 
L 3669 0 
L 3244 1197 
L 1141 1197 
L 716 0 
L 50 0 
L 1831 4666 
z
" transform="scale(0.015625)"/>
      <path id="DejaVuSans-70" d="M 1159 525 
L 1159 -1331 
L 581 -1331 
L 581 3500 
L 1159 3500 
L 1159 2969 
Q 1341 3281 1617 3432 
Q 1894 3584 2278 3584 
Q 2916 3584 3314 3078 
Q 3713 2572 3713 1747 
Q 3713 922 3314 415 
Q 2916 -91 2278 -91 
Q 1894 -91 1617 61 
Q 1341 213 1159 525 
z
M 3116 1747 
Q 3116 2381 2855 2742 
Q 2594 3103 2138 3103 
Q 1681 3103 1420 2742 
Q 1159 2381 1159 1747 
Q 1159 1113 1420 752 
Q 1681 391 2138 391 
Q 2594 391 2855 752 
Q 3116 1113 3116 1747 
z
" transform="scale(0.015625)"/>
      <path id="DejaVuSans-68" d="M 3513 2113 
L 3513 0 
L 2938 0 
L 2938 2094 
Q 2938 2591 2744 2837 
Q 2550 3084 2163 3084 
Q 1697 3084 1428 2787 
Q 1159 2491 1159 1978 
L 1159 0 
L 581 0 
L 581 4863 
L 1159 4863 
L 1159 2956 
Q 1366 3272 1645 3428 
Q 1925 3584 2291 3584 
Q 2894 3584 3203 3211 
Q 3513 2838 3513 2113 
z
" transform="scale(0.015625)"/>
      <path id="DejaVuSans-76" d="M 191 3500 
L 800 3500 
L 1894 563 
L 2988 3500 
L 3597 3500 
L 2284 0 
L 1503 0 
L 191 3500 
z
" transform="scale(0.015625)"/>
     </defs>
     <use xlink:href="#DejaVuSans-41"/>
     <use xlink:href="#DejaVuSans-6c" x="68.408203"/>
     <use xlink:href="#DejaVuSans-70" x="96.191406"/>
     <use xlink:href="#DejaVuSans-68" x="159.667969"/>
     <use xlink:href="#DejaVuSans-61" x="223.046875"/>
     <use xlink:href="#DejaVuSans-20" x="284.326172"/>
     <use xlink:href="#DejaVuSans-76" x="316.113281"/>
     <use xlink:href="#DejaVuSans-61" x="375.292969"/>
     <use xlink:href="#DejaVuSans-72" x="436.572266"/>
     <use xlink:href="#DejaVuSans-69" x="477.685547"/>
     <use xlink:href="#DejaVuSans-61" x="505.46875"/>
     <use xlink:href="#DejaVuSans-6e" x="566.748047"/>
     <use xlink:href="#DejaVuSans-74" x="630.126953"/>
     <use xlink:href="#DejaVuSans-73" x="669.335938"/>
    </g>
   </g>
   <g id="legend_1">
    <g id="patch_11">
     <path d="M 54.72 108.270625 
L 158.862188 108.270625 
Q 160.862188 108.270625 160.862188 106.270625 
L 160.862188 33.88 
Q 160.862188 31.88 158.862188 31.88 
L 54.72 31.88 
Q 52.72 31.88 52.72 33.88 
L 52.72 106.270625 
Q 52.72 108.270625 54.72 108.270625 
z
" style="fill: #ffffff; opacity: 0.8; stroke: #cccccc; stroke-linejoin: miter"/>
    </g>
    <g id="line2d_14">
     <path d="M 56.72 39.978438 
L 66.72 39.978438 
L 76.72 39.978438 
" style="fill: none; stroke: #0000ff; stroke-width: 1.5; stroke-linecap: square"/>
    </g>
    <g id="text_16">
     <!-- Alpha variants -->
     <g transform="translate(84.72 43.478438) scale(0.1 -0.1)">
      <use xlink:href="#DejaVuSans-41"/>
      <use xlink:href="#DejaVuSans-6c" x="68.408203"/>
      <use xlink:href="#DejaVuSans-70" x="96.191406"/>
      <use xlink:href="#DejaVuSans-68" x="159.667969"/>
      <use xlink:href="#DejaVuSans-61" x="223.046875"/>
      <use xlink:href="#DejaVuSans-20" x="284.326172"/>
      <use xlink:href="#DejaVuSans-76" x="316.113281"/>
      <use xlink:href="#DejaVuSans-61" x="375.292969"/>
      <use xlink:href="#DejaVuSans-72" x="436.572266"/>
      <use xlink:href="#DejaVuSans-69" x="477.685547"/>
      <use xlink:href="#DejaVuSans-61" x="505.46875"/>
      <use xlink:href="#DejaVuSans-6e" x="566.748047"/>
      <use xlink:href="#DejaVuSans-74" x="630.126953"/>
      <use xlink:href="#DejaVuSans-73" x="669.335938"/>
     </g>
    </g>
    <g id="patch_12">
     <path d="M 56.72 58.156563 
L 76.72 58.156563 
L 76.72 51.156563 
L 56.72 51.156563 
z
" style="fill: #008000; opacity: 0.25; stroke: #008000; stroke-linejoin: miter"/>
    </g>
    <g id="text_17">
     <!-- S gene -->
     <g transform="translate(84.72 58.156563) scale(0.1 -0.1)">
      <defs>
       <path id="DejaVuSans-53" d="M 3425 4513 
L 3425 3897 
Q 3066 4069 2747 4153 
Q 2428 4238 2131 4238 
Q 1616 4238 1336 4038 
Q 1056 3838 1056 3469 
Q 1056 3159 1242 3001 
Q 1428 2844 1947 2747 
L 2328 2669 
Q 3034 2534 3370 2195 
Q 3706 1856 3706 1288 
Q 3706 609 3251 259 
Q 2797 -91 1919 -91 
Q 1588 -91 1214 -16 
Q 841 59 441 206 
L 441 856 
Q 825 641 1194 531 
Q 1563 422 1919 422 
Q 2459 422 2753 634 
Q 3047 847 3047 1241 
Q 3047 1584 2836 1778 
Q 2625 1972 2144 2069 
L 1759 2144 
Q 1053 2284 737 2584 
Q 422 2884 422 3419 
Q 422 4038 858 4394 
Q 1294 4750 2059 4750 
Q 2388 4750 2728 4690 
Q 3069 4631 3425 4513 
z
" transform="scale(0.015625)"/>
      </defs>
      <use xlink:href="#DejaVuSans-53"/>
      <use xlink:href="#DejaVuSans-20" x="63.476562"/>
      <use xlink:href="#DejaVuSans-67" x="95.263672"/>
      <use xlink:href="#DejaVuSans-65" x="158.740234"/>
      <use xlink:href="#DejaVuSans-6e" x="220.263672"/>
      <use xlink:href="#DejaVuSans-65" x="283.642578"/>
     </g>
    </g>
    <g id="patch_13">
     <path d="M 56.72 72.834688 
L 76.72 72.834688 
L 76.72 65.834688 
L 56.72 65.834688 
z
" style="fill: #ffa500; opacity: 0.25; stroke: #ffa500; stroke-linejoin: miter"/>
    </g>
    <g id="text_18">
     <!-- E gene -->
     <g transform="translate(84.72 72.834688) scale(0.1 -0.1)">
      <defs>
       <path id="DejaVuSans-45" d="M 628 4666 
L 3578 4666 
L 3578 4134 
L 1259 4134 
L 1259 2753 
L 3481 2753 
L 3481 2222 
L 1259 2222 
L 1259 531 
L 3634 531 
L 3634 0 
L 628 0 
L 628 4666 
z
" transform="scale(0.015625)"/>
      </defs>
      <use xlink:href="#DejaVuSans-45"/>
      <use xlink:href="#DejaVuSans-20" x="63.183594"/>
      <use xlink:href="#DejaVuSans-67" x="94.970703"/>
      <use xlink:href="#DejaVuSans-65" x="158.447266"/>
      <use xlink:href="#DejaVuSans-6e" x="219.970703"/>
      <use xlink:href="#DejaVuSans-65" x="283.349609"/>
     </g>
    </g>
    <g id="patch_14">
     <path d="M 56.72 87.512813 
L 76.72 87.512813 
L 76.72 80.512813 
L 56.72 80.512813 
z
" style="fill: #ffc0cb; opacity: 0.35; stroke: #ffc0cb; stroke-linejoin: miter"/>
    </g>
    <g id="text_19">
     <!-- M gene -->
     <g transform="translate(84.72 87.512813) scale(0.1 -0.1)">
      <defs>
       <path id="DejaVuSans-4d" d="M 628 4666 
L 1569 4666 
L 2759 1491 
L 3956 4666 
L 4897 4666 
L 4897 0 
L 4281 0 
L 4281 4097 
L 3078 897 
L 2444 897 
L 1241 4097 
L 1241 0 
L 628 0 
L 628 4666 
z
" transform="scale(0.015625)"/>
      </defs>
      <use xlink:href="#DejaVuSans-4d"/>
      <use xlink:href="#DejaVuSans-20" x="86.279297"/>
      <use xlink:href="#DejaVuSans-67" x="118.066406"/>
      <use xlink:href="#DejaVuSans-65" x="181.542969"/>
      <use xlink:href="#DejaVuSans-6e" x="243.066406"/>
      <use xlink:href="#DejaVuSans-65" x="306.445312"/>
     </g>
    </g>
    <g id="patch_15">
     <path d="M 56.72 102.190938 
L 76.72 102.190938 
L 76.72 95.190938 
L 56.72 95.190938 
z
" style="fill: #800080; opacity: 0.25; stroke: #800080; stroke-linejoin: miter"/>
    </g>
    <g id="text_20">
     <!-- N gene -->
     <g transform="translate(84.72 102.190938) scale(0.1 -0.1)">
      <defs>
       <path id="DejaVuSans-4e" d="M 628 4666 
L 1478 4666 
L 3547 763 
L 3547 4666 
L 4159 4666 
L 4159 0 
L 3309 0 
L 1241 3903 
L 1241 0 
L 628 0 
L 628 4666 
z
" transform="scale(0.015625)"/>
      </defs>
      <use xlink:href="#DejaVuSans-4e"/>
      <use xlink:href="#DejaVuSans-20" x="74.804688"/>
      <use xlink:href="#DejaVuSans-67" x="106.591797"/>
      <use xlink:href="#DejaVuSans-65" x="170.068359"/>
      <use xlink:href="#DejaVuSans-6e" x="231.591797"/>
      <use xlink:href="#DejaVuSans-65" x="294.970703"/>
     </g>
    </g>
   </g>
  </g>
  <g id="axes_2">
   <g id="patch_16">
    <path d="M 47.72 678.04 
L 1141.10215 678.04 
L 1141.10215 381.48 
L 47.72 381.48 
z
" style="fill: #ffffff"/>
   </g>
   <g id="patch_17">
    <path d="M 247.203179 678.04 
L 247.203179 381.48 
L 638.772544 381.48 
L 638.772544 678.04 
z
" clip-path="url(#p2bc2e2ee36)" style="fill: #008000; opacity: 0.25; stroke: #008000; stroke-linejoin: miter"/>
   </g>
   <g id="patch_18">
    <path d="M 726.880774 678.04 
L 726.880774 381.48 
L 750.2397 381.48 
L 750.2397 678.04 
z
" clip-path="url(#p2bc2e2ee36)" style="fill: #ffa500; opacity: 0.25; stroke: #ffa500; stroke-linejoin: miter"/>
   </g>
   <g id="patch_19">
    <path d="M 755.362272 678.04 
L 755.362272 381.48 
L 823.902278 381.48 
L 823.902278 678.04 
z
" clip-path="url(#p2bc2e2ee36)" style="fill: #ffc0cb; opacity: 0.35; stroke: #ffc0cb; stroke-linejoin: miter"/>
   </g>
   <g id="patch_20">
    <path d="M 934.754725 678.04 
L 934.754725 381.48 
L 1063.843527 381.48 
L 1063.843527 678.04 
z
" clip-path="url(#p2bc2e2ee36)" style="fill: #800080; opacity: 0.25; stroke: #800080; stroke-linejoin: miter"/>
   </g>
   <g id="matplotlib.axis_3">
    <g id="xtick_7">
     <g id="line2d_15">
      <g>
       <use xlink:href="#m0712509dcb" x="97.419189" y="678.04" style="stroke: #000000; stroke-width: 0.8"/>
      </g>
     </g>
     <g id="text_21">
      <!-- 20000 -->
      <g transform="translate(81.512939 692.638438) scale(0.1 -0.1)">
       <use xlink:href="#DejaVuSans-32"/>
       <use xlink:href="#DejaVuSans-30" x="63.623047"/>
       <use xlink:href="#DejaVuSans-30" x="127.246094"/>
       <use xlink:href="#DejaVuSans-30" x="190.869141"/>
       <use xlink:href="#DejaVuSans-30" x="254.492188"/>
      </g>
     </g>
    </g>
    <g id="xtick_8">
     <g id="line2d_16">
      <g>
       <use xlink:href="#m0712509dcb" x="302.322049" y="678.04" style="stroke: #000000; stroke-width: 0.8"/>
      </g>
     </g>
     <g id="text_22">
      <!-- 22000 -->
      <g transform="translate(286.415799 692.638438) scale(0.1 -0.1)">
       <use xlink:href="#DejaVuSans-32"/>
       <use xlink:href="#DejaVuSans-32" x="63.623047"/>
       <use xlink:href="#DejaVuSans-30" x="127.246094"/>
       <use xlink:href="#DejaVuSans-30" x="190.869141"/>
       <use xlink:href="#DejaVuSans-30" x="254.492188"/>
      </g>
     </g>
    </g>
    <g id="xtick_9">
     <g id="line2d_17">
      <g>
       <use xlink:href="#m0712509dcb" x="507.224908" y="678.04" style="stroke: #000000; stroke-width: 0.8"/>
      </g>
     </g>
     <g id="text_23">
      <!-- 24000 -->
      <g transform="translate(491.318658 692.638438) scale(0.1 -0.1)">
       <use xlink:href="#DejaVuSans-32"/>
       <use xlink:href="#DejaVuSans-34" x="63.623047"/>
       <use xlink:href="#DejaVuSans-30" x="127.246094"/>
       <use xlink:href="#DejaVuSans-30" x="190.869141"/>
       <use xlink:href="#DejaVuSans-30" x="254.492188"/>
      </g>
     </g>
    </g>
    <g id="xtick_10">
     <g id="line2d_18">
      <g>
       <use xlink:href="#m0712509dcb" x="712.127768" y="678.04" style="stroke: #000000; stroke-width: 0.8"/>
      </g>
     </g>
     <g id="text_24">
      <!-- 26000 -->
      <g transform="translate(696.221518 692.638438) scale(0.1 -0.1)">
       <use xlink:href="#DejaVuSans-32"/>
       <use xlink:href="#DejaVuSans-36" x="63.623047"/>
       <use xlink:href="#DejaVuSans-30" x="127.246094"/>
       <use xlink:href="#DejaVuSans-30" x="190.869141"/>
       <use xlink:href="#DejaVuSans-30" x="254.492188"/>
      </g>
     </g>
    </g>
    <g id="xtick_11">
     <g id="line2d_19">
      <g>
       <use xlink:href="#m0712509dcb" x="917.030628" y="678.04" style="stroke: #000000; stroke-width: 0.8"/>
      </g>
     </g>
     <g id="text_25">
      <!-- 28000 -->
      <g transform="translate(901.124378 692.638438) scale(0.1 -0.1)">
       <use xlink:href="#DejaVuSans-32"/>
       <use xlink:href="#DejaVuSans-38" x="63.623047"/>
       <use xlink:href="#DejaVuSans-30" x="127.246094"/>
       <use xlink:href="#DejaVuSans-30" x="190.869141"/>
       <use xlink:href="#DejaVuSans-30" x="254.492188"/>
      </g>
     </g>
    </g>
    <g id="xtick_12">
     <g id="line2d_20">
      <g>
       <use xlink:href="#m0712509dcb" x="1121.933488" y="678.04" style="stroke: #000000; stroke-width: 0.8"/>
      </g>
     </g>
     <g id="text_26">
      <!-- 30000 -->
      <g transform="translate(1106.027238 692.638438) scale(0.1 -0.1)">
       <use xlink:href="#DejaVuSans-33"/>
       <use xlink:href="#DejaVuSans-30" x="63.623047"/>
       <use xlink:href="#DejaVuSans-30" x="127.246094"/>
       <use xlink:href="#DejaVuSans-30" x="190.869141"/>
       <use xlink:href="#DejaVuSans-30" x="254.492188"/>
      </g>
     </g>
    </g>
    <g id="text_27">
     <!-- Position in genome (nucleotide) -->
     <g transform="translate(515.08295 706.316563) scale(0.1 -0.1)">
      <use xlink:href="#DejaVuSans-50"/>
      <use xlink:href="#DejaVuSans-6f" x="56.677734"/>
      <use xlink:href="#DejaVuSans-73" x="117.859375"/>
      <use xlink:href="#DejaVuSans-69" x="169.958984"/>
      <use xlink:href="#DejaVuSans-74" x="197.742188"/>
      <use xlink:href="#DejaVuSans-69" x="236.951172"/>
      <use xlink:href="#DejaVuSans-6f" x="264.734375"/>
      <use xlink:href="#DejaVuSans-6e" x="325.916016"/>
      <use xlink:href="#DejaVuSans-20" x="389.294922"/>
      <use xlink:href="#DejaVuSans-69" x="421.082031"/>
      <use xlink:href="#DejaVuSans-6e" x="448.865234"/>
      <use xlink:href="#DejaVuSans-20" x="512.244141"/>
      <use xlink:href="#DejaVuSans-67" x="544.03125"/>
      <use xlink:href="#DejaVuSans-65" x="607.507812"/>
      <use xlink:href="#DejaVuSans-6e" x="669.03125"/>
      <use xlink:href="#DejaVuSans-6f" x="732.410156"/>
      <use xlink:href="#DejaVuSans-6d" x="793.591797"/>
      <use xlink:href="#DejaVuSans-65" x="891.003906"/>
      <use xlink:href="#DejaVuSans-20" x="952.527344"/>
      <use xlink:href="#DejaVuSans-28" x="984.314453"/>
      <use xlink:href="#DejaVuSans-6e" x="1023.328125"/>
      <use xlink:href="#DejaVuSans-75" x="1086.707031"/>
      <use xlink:href="#DejaVuSans-63" x="1150.085938"/>
      <use xlink:href="#DejaVuSans-6c" x="1205.066406"/>
      <use xlink:href="#DejaVuSans-65" x="1232.849609"/>
      <use xlink:href="#DejaVuSans-6f" x="1294.373047"/>
      <use xlink:href="#DejaVuSans-74" x="1355.554688"/>
      <use xlink:href="#DejaVuSans-69" x="1394.763672"/>
      <use xlink:href="#DejaVuSans-64" x="1422.546875"/>
      <use xlink:href="#DejaVuSans-65" x="1486.023438"/>
      <use xlink:href="#DejaVuSans-29" x="1547.546875"/>
     </g>
    </g>
   </g>
   <g id="matplotlib.axis_4">
    <g id="ytick_7">
     <g id="line2d_21">
      <g>
       <use xlink:href="#mb90db85ce3" x="47.72" y="664.56" style="stroke: #000000; stroke-width: 0.8"/>
      </g>
     </g>
     <g id="text_28">
      <!-- 0.0 -->
      <g transform="translate(24.816875 668.359219) scale(0.1 -0.1)">
       <use xlink:href="#DejaVuSans-30"/>
       <use xlink:href="#DejaVuSans-2e" x="63.623047"/>
       <use xlink:href="#DejaVuSans-30" x="95.410156"/>
      </g>
     </g>
    </g>
    <g id="ytick_8">
     <g id="line2d_22">
      <g>
       <use xlink:href="#mb90db85ce3" x="47.72" y="610.64" style="stroke: #000000; stroke-width: 0.8"/>
      </g>
     </g>
     <g id="text_29">
      <!-- 0.2 -->
      <g transform="translate(24.816875 614.439219) scale(0.1 -0.1)">
       <use xlink:href="#DejaVuSans-30"/>
       <use xlink:href="#DejaVuSans-2e" x="63.623047"/>
       <use xlink:href="#DejaVuSans-32" x="95.410156"/>
      </g>
     </g>
    </g>
    <g id="ytick_9">
     <g id="line2d_23">
      <g>
       <use xlink:href="#mb90db85ce3" x="47.72" y="556.72" style="stroke: #000000; stroke-width: 0.8"/>
      </g>
     </g>
     <g id="text_30">
      <!-- 0.4 -->
      <g transform="translate(24.816875 560.519219) scale(0.1 -0.1)">
       <use xlink:href="#DejaVuSans-30"/>
       <use xlink:href="#DejaVuSans-2e" x="63.623047"/>
       <use xlink:href="#DejaVuSans-34" x="95.410156"/>
      </g>
     </g>
    </g>
    <g id="ytick_10">
     <g id="line2d_24">
      <g>
       <use xlink:href="#mb90db85ce3" x="47.72" y="502.8" style="stroke: #000000; stroke-width: 0.8"/>
      </g>
     </g>
     <g id="text_31">
      <!-- 0.6 -->
      <g transform="translate(24.816875 506.599219) scale(0.1 -0.1)">
       <use xlink:href="#DejaVuSans-30"/>
       <use xlink:href="#DejaVuSans-2e" x="63.623047"/>
       <use xlink:href="#DejaVuSans-36" x="95.410156"/>
      </g>
     </g>
    </g>
    <g id="ytick_11">
     <g id="line2d_25">
      <g>
       <use xlink:href="#mb90db85ce3" x="47.72" y="448.88" style="stroke: #000000; stroke-width: 0.8"/>
      </g>
     </g>
     <g id="text_32">
      <!-- 0.8 -->
      <g transform="translate(24.816875 452.679219) scale(0.1 -0.1)">
       <use xlink:href="#DejaVuSans-30"/>
       <use xlink:href="#DejaVuSans-2e" x="63.623047"/>
       <use xlink:href="#DejaVuSans-38" x="95.410156"/>
      </g>
     </g>
    </g>
    <g id="ytick_12">
     <g id="line2d_26">
      <g>
       <use xlink:href="#mb90db85ce3" x="47.72" y="394.96" style="stroke: #000000; stroke-width: 0.8"/>
      </g>
     </g>
     <g id="text_33">
      <!-- 1.0 -->
      <g transform="translate(24.816875 398.759219) scale(0.1 -0.1)">
       <use xlink:href="#DejaVuSans-31"/>
       <use xlink:href="#DejaVuSans-2e" x="63.623047"/>
       <use xlink:href="#DejaVuSans-30" x="95.410156"/>
      </g>
     </g>
    </g>
    <g id="text_34">
     <!-- Frequency of mutation -->
     <g transform="translate(18.737187 586.227969) rotate(-90) scale(0.1 -0.1)">
      <use xlink:href="#DejaVuSans-46"/>
      <use xlink:href="#DejaVuSans-72" x="50.269531"/>
      <use xlink:href="#DejaVuSans-65" x="89.132812"/>
      <use xlink:href="#DejaVuSans-71" x="150.65625"/>
      <use xlink:href="#DejaVuSans-75" x="214.132812"/>
      <use xlink:href="#DejaVuSans-65" x="277.511719"/>
      <use xlink:href="#DejaVuSans-6e" x="339.035156"/>
      <use xlink:href="#DejaVuSans-63" x="402.414062"/>
      <use xlink:href="#DejaVuSans-79" x="457.394531"/>
      <use xlink:href="#DejaVuSans-20" x="516.574219"/>
      <use xlink:href="#DejaVuSans-6f" x="548.361328"/>
      <use xlink:href="#DejaVuSans-66" x="609.542969"/>
      <use xlink:href="#DejaVuSans-20" x="644.748047"/>
      <use xlink:href="#DejaVuSans-6d" x="676.535156"/>
      <use xlink:href="#DejaVuSans-75" x="773.947266"/>
      <use xlink:href="#DejaVuSans-74" x="837.326172"/>
      <use xlink:href="#DejaVuSans-61" x="876.535156"/>
      <use xlink:href="#DejaVuSans-74" x="937.814453"/>
      <use xlink:href="#DejaVuSans-69" x="977.023438"/>
      <use xlink:href="#DejaVuSans-6f" x="1004.806641"/>
      <use xlink:href="#DejaVuSans-6e" x="1065.988281"/>
     </g>
    </g>
   </g>
   <g id="line2d_27">
    <path d="M 97.419189 664.56 
L 97.52164 657.465263 
L 97.726543 664.56 
L 111.045229 664.56 
L 111.14768 657.465263 
L 111.352583 664.56 
L 112.684452 664.56 
L 112.786903 657.465263 
L 112.991806 664.56 
L 113.811417 664.56 
L 113.913869 657.465263 
L 114.118772 664.56 
L 183.580841 664.56 
L 183.683293 657.465263 
L 183.888196 664.56 
L 230.503596 664.56 
L 230.606048 650.370526 
L 230.81095 664.56 
L 242.695316 664.56 
L 242.797768 657.465263 
L 243.002671 664.56 
L 252.735556 664.56 
L 252.838008 402.054737 
L 253.042911 664.56 
L 254.784585 664.56 
L 254.887036 657.465263 
L 255.091939 664.56 
L 255.194391 657.465263 
L 255.399294 664.56 
L 263.595408 664.56 
L 263.697859 657.465263 
L 263.902762 664.56 
L 265.849339 664.56 
L 266.054242 657.465263 
L 272.30378 657.465263 
L 272.406231 650.370526 
L 272.611134 657.465263 
L 276.094482 657.465263 
L 276.196934 614.896842 
L 276.401837 657.465263 
L 287.978848 657.465263 
L 288.183751 664.56 
L 290.540134 664.56 
L 290.642585 643.275789 
L 290.847488 664.56 
L 294.843094 664.56 
L 295.047997 409.149474 
L 295.457803 409.149474 
L 295.662706 664.56 
L 297.916637 664.56 
L 298.12154 657.465263 
L 304.678431 657.465263 
L 304.883334 664.56 
L 315.128477 664.56 
L 315.230929 650.370526 
L 315.435832 664.56 
L 324.041752 664.56 
L 324.144203 629.086316 
L 324.349106 664.56 
L 327.115295 664.56 
L 327.217746 657.465263 
L 327.422649 664.56 
L 329.061872 664.56 
L 329.164323 657.465263 
L 329.369226 664.56 
L 336.84818 664.56 
L 336.950632 657.465263 
L 337.155535 664.56 
L 339.819272 664.56 
L 339.921723 657.465263 
L 340.126626 664.56 
L 373.013535 664.56 
L 373.115987 650.370526 
L 373.320889 664.56 
L 385.819964 664.56 
L 385.922415 394.96 
L 386.127318 664.56 
L 393.811175 664.56 
L 393.913627 394.96 
L 394.11853 664.56 
L 418.50197 664.56 
L 418.604421 657.465263 
L 418.809324 664.56 
L 435.611359 664.56 
L 435.71381 394.96 
L 435.918713 664.56 
L 456.204096 664.56 
L 456.306548 394.96 
L 456.511451 664.56 
L 458.253125 664.56 
L 458.355576 657.465263 
L 458.560479 664.56 
L 464.297759 664.56 
L 464.400211 657.465263 
L 464.605114 664.56 
L 471.981616 664.56 
L 472.084068 657.465263 
L 472.288971 664.56 
L 510.093548 664.56 
L 510.196 657.465263 
L 510.400903 664.56 
L 538.779949 664.56 
L 538.8824 394.96 
L 539.087303 664.56 
L 586.112509 664.56 
L 586.214961 657.465263 
L 586.419864 664.56 
L 591.849789 664.56 
L 591.952241 643.275789 
L 592.157144 664.56 
L 592.362047 664.56 
L 592.464498 657.465263 
L 592.669401 664.56 
L 605.578281 664.56 
L 605.680733 643.275789 
L 605.885635 664.56 
L 612.749881 664.56 
L 612.852333 657.465263 
L 613.057235 664.56 
L 628.937207 664.56 
L 629.039659 657.465263 
L 629.244561 664.56 
L 633.342619 664.56 
L 633.44507 657.465263 
L 633.649973 664.56 
L 634.572036 664.56 
L 634.674487 621.991579 
L 634.87939 664.56 
L 639.797059 664.56 
L 639.89951 657.465263 
L 640.104413 664.56 
L 644.817179 664.56 
L 644.91963 643.275789 
L 645.124533 664.56 
L 647.276013 664.56 
L 647.378464 394.96 
L 647.480916 664.56 
L 647.583367 657.465263 
L 647.78827 664.56 
L 666.229528 664.56 
L 666.331979 657.465263 
L 666.536882 664.56 
L 681.802145 664.56 
L 681.904596 657.465263 
L 682.109499 664.56 
L 685.695299 664.56 
L 685.797751 657.465263 
L 686.002654 664.56 
L 688.563939 664.56 
L 688.666391 657.465263 
L 688.871294 664.56 
L 728.519997 664.56 
L 728.622448 657.465263 
L 728.827351 664.56 
L 739.584751 664.56 
L 739.687203 657.465263 
L 739.892106 664.56 
L 743.477906 664.56 
L 743.580357 657.465263 
L 743.78526 664.56 
L 776.979523 664.56 
L 777.081975 657.465263 
L 777.286878 664.56 
L 780.257969 664.56 
L 780.360421 394.96 
L 780.565323 664.56 
L 782.204546 664.56 
L 782.306998 657.465263 
L 782.511901 664.56 
L 787.736923 664.56 
L 787.839375 657.465263 
L 788.044278 664.56 
L 795.523232 664.56 
L 795.625684 657.465263 
L 795.830586 664.56 
L 814.784101 664.56 
L 814.886552 657.465263 
L 815.091455 664.56 
L 855.969576 664.56 
L 856.072027 657.465263 
L 856.27693 664.56 
L 859.043119 664.56 
L 859.248022 657.465263 
L 859.555376 657.465263 
L 859.657827 650.370526 
L 859.86273 657.465263 
L 861.092147 657.465263 
L 861.194599 650.370526 
L 861.399502 657.465263 
L 862.116662 657.465263 
L 862.219113 643.275789 
L 862.424016 657.465263 
L 868.571102 657.465263 
L 868.673553 643.275789 
L 868.878456 657.465263 
L 869.493165 657.465263 
L 869.595616 394.96 
L 869.800519 657.465263 
L 870.825033 657.465263 
L 870.927485 650.370526 
L 871.132387 657.465263 
L 879.840759 657.465263 
L 879.94321 650.370526 
L 880.148113 657.465263 
L 881.172628 657.465263 
L 881.275079 394.96 
L 881.479982 657.465263 
L 881.684885 664.56 
L 893.671702 664.56 
L 893.774153 416.244211 
L 893.979056 664.56 
L 915.391405 664.56 
L 915.493857 629.086316 
L 915.698759 664.56 
L 931.988537 664.56 
L 932.19344 394.96 
L 932.603245 394.96 
L 932.808148 664.56 
L 934.34492 664.56 
L 934.447371 572.328421 
L 934.652274 664.56 
L 936.393948 664.56 
L 936.4964 657.465263 
L 936.701303 664.56 
L 937.21356 664.56 
L 937.316011 572.328421 
L 937.520914 664.56 
L 939.262588 664.56 
L 939.36504 657.465263 
L 939.569943 664.56 
L 953.810691 664.56 
L 953.913143 473.002105 
L 954.118046 664.56 
L 996.840292 664.56 
L 996.942743 394.96 
L 997.147646 664.56 
L 1000.426092 664.56 
L 1000.528543 416.244211 
L 1000.733446 664.56 
L 1004.626601 664.56 
L 1004.729052 657.465263 
L 1004.933955 664.56 
L 1006.573178 664.56 
L 1006.778081 657.465263 
L 1007.290338 657.465263 
L 1007.495241 664.56 
L 1027.370818 664.56 
L 1027.47327 657.465263 
L 1027.678172 664.56 
L 1033.517904 664.56 
L 1033.620355 657.465263 
L 1033.825258 664.56 
L 1034.952224 664.56 
L 1035.054675 650.370526 
L 1035.259578 664.56 
L 1035.874287 664.56 
L 1035.976738 657.465263 
L 1036.181641 664.56 
L 1044.582658 664.56 
L 1044.68511 657.465263 
L 1044.890013 664.56 
L 1050.217487 664.56 
L 1050.319938 394.96 
L 1050.524841 664.56 
L 1065.687653 664.56 
L 1065.790104 657.465263 
L 1065.995007 664.56 
L 1081.874979 664.56 
L 1081.97743 657.465263 
L 1082.182333 664.56 
L 1083.206847 664.56 
L 1083.309299 657.465263 
L 1083.514202 664.56 
L 1085.050973 664.56 
L 1085.153425 394.96 
L 1085.358327 664.56 
L 1085.973036 664.56 
L 1086.075487 657.465263 
L 1086.28039 664.56 
L 1089.251482 664.56 
L 1089.456385 657.465263 
L 1091.402962 657.465263 
L 1091.402962 657.465263 
" clip-path="url(#p2bc2e2ee36)" style="fill: none; stroke: #ff0000; stroke-width: 1.5; stroke-linecap: square"/>
   </g>
   <g id="patch_21">
    <path d="M 47.72 678.04 
L 47.72 381.48 
" style="fill: none; stroke: #000000; stroke-width: 0.8; stroke-linejoin: miter; stroke-linecap: square"/>
   </g>
   <g id="patch_22">
    <path d="M 1141.10215 678.04 
L 1141.10215 381.48 
" style="fill: none; stroke: #000000; stroke-width: 0.8; stroke-linejoin: miter; stroke-linecap: square"/>
   </g>
   <g id="patch_23">
    <path d="M 47.72 678.04 
L 1141.10215 678.04 
" style="fill: none; stroke: #000000; stroke-width: 0.8; stroke-linejoin: miter; stroke-linecap: square"/>
   </g>
   <g id="patch_24">
    <path d="M 47.72 381.48 
L 1141.10215 381.48 
" style="fill: none; stroke: #000000; stroke-width: 0.8; stroke-linejoin: miter; stroke-linecap: square"/>
   </g>
   <g id="text_35">
    <!-- Delta variants -->
    <g transform="translate(552.177638 375.48) scale(0.12 -0.12)">
     <defs>
      <path id="DejaVuSans-44" d="M 1259 4147 
L 1259 519 
L 2022 519 
Q 2988 519 3436 956 
Q 3884 1394 3884 2338 
Q 3884 3275 3436 3711 
Q 2988 4147 2022 4147 
L 1259 4147 
z
M 628 4666 
L 1925 4666 
Q 3281 4666 3915 4102 
Q 4550 3538 4550 2338 
Q 4550 1131 3912 565 
Q 3275 0 1925 0 
L 628 0 
L 628 4666 
z
" transform="scale(0.015625)"/>
     </defs>
     <use xlink:href="#DejaVuSans-44"/>
     <use xlink:href="#DejaVuSans-65" x="77.001953"/>
     <use xlink:href="#DejaVuSans-6c" x="138.525391"/>
     <use xlink:href="#DejaVuSans-74" x="166.308594"/>
     <use xlink:href="#DejaVuSans-61" x="205.517578"/>
     <use xlink:href="#DejaVuSans-20" x="266.796875"/>
     <use xlink:href="#DejaVuSans-76" x="298.583984"/>
     <use xlink:href="#DejaVuSans-61" x="357.763672"/>
     <use xlink:href="#DejaVuSans-72" x="419.042969"/>
     <use xlink:href="#DejaVuSans-69" x="460.15625"/>
     <use xlink:href="#DejaVuSans-61" x="487.939453"/>
     <use xlink:href="#DejaVuSans-6e" x="549.21875"/>
     <use xlink:href="#DejaVuSans-74" x="612.597656"/>
     <use xlink:href="#DejaVuSans-73" x="651.806641"/>
    </g>
   </g>
   <g id="legend_2">
    <g id="patch_25">
     <path d="M 54.72 462.870625 
L 157.109062 462.870625 
Q 159.109062 462.870625 159.109062 460.870625 
L 159.109062 388.48 
Q 159.109062 386.48 157.109062 386.48 
L 54.72 386.48 
Q 52.72 386.48 52.72 388.48 
L 52.72 460.870625 
Q 52.72 462.870625 54.72 462.870625 
z
" style="fill: #ffffff; opacity: 0.8; stroke: #cccccc; stroke-linejoin: miter"/>
    </g>
    <g id="line2d_28">
     <path d="M 56.72 394.578438 
L 66.72 394.578438 
L 76.72 394.578438 
" style="fill: none; stroke: #ff0000; stroke-width: 1.5; stroke-linecap: square"/>
    </g>
    <g id="text_36">
     <!-- Delta variants -->
     <g transform="translate(84.72 398.078438) scale(0.1 -0.1)">
      <use xlink:href="#DejaVuSans-44"/>
      <use xlink:href="#DejaVuSans-65" x="77.001953"/>
      <use xlink:href="#DejaVuSans-6c" x="138.525391"/>
      <use xlink:href="#DejaVuSans-74" x="166.308594"/>
      <use xlink:href="#DejaVuSans-61" x="205.517578"/>
      <use xlink:href="#DejaVuSans-20" x="266.796875"/>
      <use xlink:href="#DejaVuSans-76" x="298.583984"/>
      <use xlink:href="#DejaVuSans-61" x="357.763672"/>
      <use xlink:href="#DejaVuSans-72" x="419.042969"/>
      <use xlink:href="#DejaVuSans-69" x="460.15625"/>
      <use xlink:href="#DejaVuSans-61" x="487.939453"/>
      <use xlink:href="#DejaVuSans-6e" x="549.21875"/>
      <use xlink:href="#DejaVuSans-74" x="612.597656"/>
      <use xlink:href="#DejaVuSans-73" x="651.806641"/>
     </g>
    </g>
    <g id="patch_26">
     <path d="M 56.72 412.756563 
L 76.72 412.756563 
L 76.72 405.756563 
L 56.72 405.756563 
z
" style="fill: #008000; opacity: 0.25; stroke: #008000; stroke-linejoin: miter"/>
    </g>
    <g id="text_37">
     <!-- S gene -->
     <g transform="translate(84.72 412.756563) scale(0.1 -0.1)">
      <use xlink:href="#DejaVuSans-53"/>
      <use xlink:href="#DejaVuSans-20" x="63.476562"/>
      <use xlink:href="#DejaVuSans-67" x="95.263672"/>
      <use xlink:href="#DejaVuSans-65" x="158.740234"/>
      <use xlink:href="#DejaVuSans-6e" x="220.263672"/>
      <use xlink:href="#DejaVuSans-65" x="283.642578"/>
     </g>
    </g>
    <g id="patch_27">
     <path d="M 56.72 427.434688 
L 76.72 427.434688 
L 76.72 420.434688 
L 56.72 420.434688 
z
" style="fill: #ffa500; opacity: 0.25; stroke: #ffa500; stroke-linejoin: miter"/>
    </g>
    <g id="text_38">
     <!-- E gene -->
     <g transform="translate(84.72 427.434688) scale(0.1 -0.1)">
      <use xlink:href="#DejaVuSans-45"/>
      <use xlink:href="#DejaVuSans-20" x="63.183594"/>
      <use xlink:href="#DejaVuSans-67" x="94.970703"/>
      <use xlink:href="#DejaVuSans-65" x="158.447266"/>
      <use xlink:href="#DejaVuSans-6e" x="219.970703"/>
      <use xlink:href="#DejaVuSans-65" x="283.349609"/>
     </g>
    </g>
    <g id="patch_28">
     <path d="M 56.72 442.112813 
L 76.72 442.112813 
L 76.72 435.112813 
L 56.72 435.112813 
z
" style="fill: #ffc0cb; opacity: 0.35; stroke: #ffc0cb; stroke-linejoin: miter"/>
    </g>
    <g id="text_39">
     <!-- M gene -->
     <g transform="translate(84.72 442.112813) scale(0.1 -0.1)">
      <use xlink:href="#DejaVuSans-4d"/>
      <use xlink:href="#DejaVuSans-20" x="86.279297"/>
      <use xlink:href="#DejaVuSans-67" x="118.066406"/>
      <use xlink:href="#DejaVuSans-65" x="181.542969"/>
      <use xlink:href="#DejaVuSans-6e" x="243.066406"/>
      <use xlink:href="#DejaVuSans-65" x="306.445312"/>
     </g>
    </g>
    <g id="patch_29">
     <path d="M 56.72 456.790938 
L 76.72 456.790938 
L 76.72 449.790938 
L 56.72 449.790938 
z
" style="fill: #800080; opacity: 0.25; stroke: #800080; stroke-linejoin: miter"/>
    </g>
    <g id="text_40">
     <!-- N gene -->
     <g transform="translate(84.72 456.790938) scale(0.1 -0.1)">
      <use xlink:href="#DejaVuSans-4e"/>
      <use xlink:href="#DejaVuSans-20" x="74.804688"/>
      <use xlink:href="#DejaVuSans-67" x="106.591797"/>
      <use xlink:href="#DejaVuSans-65" x="170.068359"/>
      <use xlink:href="#DejaVuSans-6e" x="231.591797"/>
      <use xlink:href="#DejaVuSans-65" x="294.970703"/>
     </g>
    </g>
   </g>
  </g>
 </g>
 <defs>
  <clipPath id="pa5ff692d12">
   <rect x="47.72" y="26.88" width="1093.38215" height="296.56"/>
  </clipPath>
  <clipPath id="p2bc2e2ee36">
   <rect x="47.72" y="381.48" width="1093.38215" height="296.56"/>
  </clipPath>
 </defs>
</svg>
